G04 Layer: BottomLayer*
G04 EasyEDA v6.1.33, Mon, 29 Apr 2019 07:59:25 GMT*
G04 5d36fc25ff834208b66237403f2d6b39,84eed202dea0450dba7707278aa16868,10*
G04 Gerber Generator version 0.2*
G04 Scale: 100 percent, Rotated: No, Reflected: No *
G04 Dimensions in millimeters *
G04 leading zeros omitted , absolute positions ,3 integer and 3 decimal *
%FSLAX33Y33*%
%MOMM*%
G90*
G71D02*

%ADD10C,0.254000*%
%ADD11C,0.609600*%
%ADD15C,0.899998*%
%ADD16C,1.299997*%
%ADD17C,1.599997*%

%LPD*%
G36*
G01X5030Y5860D02*
G01X5014Y5861D01*
G01X4999Y5860D01*
G01X4984Y5857D01*
G01X4970Y5851D01*
G01X4957Y5844D01*
G01X4945Y5835D01*
G01X4935Y5824D01*
G01X4926Y5811D01*
G01X4920Y5798D01*
G01X4909Y5776D01*
G01X4897Y5755D01*
G01X4883Y5735D01*
G01X4867Y5716D01*
G01X4850Y5699D01*
G01X4831Y5683D01*
G01X4810Y5670D01*
G01X4789Y5658D01*
G01X4766Y5648D01*
G01X4743Y5641D01*
G01X4719Y5635D01*
G01X4695Y5632D01*
G01X4671Y5631D01*
G01X3479Y5631D01*
G01X3464Y5630D01*
G01X3450Y5627D01*
G01X3436Y5622D01*
G01X3424Y5615D01*
G01X3412Y5606D01*
G01X3402Y5596D01*
G01X3393Y5584D01*
G01X3386Y5571D01*
G01X3381Y5558D01*
G01X3378Y5544D01*
G01X3377Y5529D01*
G01X3378Y5514D01*
G01X3381Y5500D01*
G01X3387Y5486D01*
G01X3394Y5473D01*
G01X3403Y5461D01*
G01X3414Y5451D01*
G01X3449Y5421D01*
G01X3482Y5389D01*
G01X3514Y5356D01*
G01X3543Y5321D01*
G01X3571Y5285D01*
G01X3598Y5247D01*
G01X3622Y5208D01*
G01X3644Y5168D01*
G01X3664Y5127D01*
G01X3682Y5085D01*
G01X3698Y5042D01*
G01X3712Y4998D01*
G01X3723Y4953D01*
G01X3732Y4908D01*
G01X3165Y4908D01*
G01X3165Y5529D01*
G01X3164Y5544D01*
G01X3161Y5558D01*
G01X3156Y5571D01*
G01X3149Y5584D01*
G01X3140Y5596D01*
G01X3130Y5606D01*
G01X3118Y5615D01*
G01X3105Y5622D01*
G01X3092Y5627D01*
G01X3078Y5630D01*
G01X3063Y5631D01*
G01X2616Y5631D01*
G01X2602Y5630D01*
G01X2588Y5627D01*
G01X2574Y5622D01*
G01X2561Y5615D01*
G01X2550Y5606D01*
G01X2540Y5596D01*
G01X2531Y5584D01*
G01X2524Y5571D01*
G01X2519Y5558D01*
G01X2516Y5544D01*
G01X2515Y5529D01*
G01X2515Y4908D01*
G01X1947Y4908D01*
G01X1956Y4953D01*
G01X1968Y4998D01*
G01X1982Y5042D01*
G01X1997Y5085D01*
G01X2015Y5127D01*
G01X2036Y5168D01*
G01X2058Y5208D01*
G01X2082Y5247D01*
G01X2108Y5285D01*
G01X2136Y5321D01*
G01X2166Y5356D01*
G01X2197Y5389D01*
G01X2230Y5421D01*
G01X2265Y5451D01*
G01X2276Y5461D01*
G01X2285Y5473D01*
G01X2293Y5486D01*
G01X2298Y5500D01*
G01X2301Y5514D01*
G01X2302Y5529D01*
G01X2301Y5544D01*
G01X2298Y5558D01*
G01X2293Y5571D01*
G01X2286Y5584D01*
G01X2278Y5596D01*
G01X2267Y5606D01*
G01X2256Y5615D01*
G01X2243Y5622D01*
G01X2229Y5627D01*
G01X2215Y5630D01*
G01X2201Y5631D01*
G01X371Y5631D01*
G01X356Y5630D01*
G01X342Y5627D01*
G01X328Y5622D01*
G01X316Y5615D01*
G01X304Y5606D01*
G01X294Y5596D01*
G01X285Y5584D01*
G01X278Y5571D01*
G01X273Y5558D01*
G01X270Y5544D01*
G01X269Y5529D01*
G01X269Y3720D01*
G01X270Y3706D01*
G01X273Y3692D01*
G01X278Y3678D01*
G01X285Y3665D01*
G01X294Y3654D01*
G01X304Y3644D01*
G01X316Y3635D01*
G01X328Y3628D01*
G01X342Y3623D01*
G01X356Y3620D01*
G01X370Y3619D01*
G01X386Y3620D01*
G01X402Y3624D01*
G01X416Y3630D01*
G01X430Y3638D01*
G01X442Y3648D01*
G01X452Y3660D01*
G01X461Y3674D01*
G01X483Y3715D01*
G01X507Y3755D01*
G01X533Y3794D01*
G01X560Y3831D01*
G01X590Y3868D01*
G01X620Y3903D01*
G01X686Y3969D01*
G01X721Y3999D01*
G01X758Y4029D01*
G01X795Y4056D01*
G01X834Y4082D01*
G01X874Y4106D01*
G01X915Y4128D01*
G01X957Y4149D01*
G01X1000Y4167D01*
G01X1000Y3220D01*
G01X370Y3220D01*
G01X356Y3219D01*
G01X342Y3216D01*
G01X328Y3211D01*
G01X316Y3204D01*
G01X304Y3195D01*
G01X294Y3185D01*
G01X285Y3173D01*
G01X278Y3161D01*
G01X273Y3147D01*
G01X270Y3133D01*
G01X269Y3118D01*
G01X269Y1861D01*
G01X270Y1846D01*
G01X273Y1832D01*
G01X278Y1818D01*
G01X285Y1806D01*
G01X294Y1794D01*
G01X304Y1784D01*
G01X315Y1775D01*
G01X328Y1768D01*
G01X342Y1763D01*
G01X356Y1760D01*
G01X370Y1759D01*
G01X1000Y1759D01*
G01X1000Y812D01*
G01X957Y830D01*
G01X915Y851D01*
G01X874Y873D01*
G01X834Y897D01*
G01X795Y923D01*
G01X758Y950D01*
G01X721Y980D01*
G01X686Y1010D01*
G01X652Y1043D01*
G01X620Y1076D01*
G01X590Y1111D01*
G01X560Y1148D01*
G01X533Y1186D01*
G01X507Y1224D01*
G01X483Y1264D01*
G01X461Y1305D01*
G01X452Y1319D01*
G01X442Y1331D01*
G01X430Y1341D01*
G01X416Y1349D01*
G01X402Y1355D01*
G01X386Y1359D01*
G01X370Y1360D01*
G01X356Y1359D01*
G01X342Y1356D01*
G01X328Y1351D01*
G01X315Y1344D01*
G01X304Y1336D01*
G01X294Y1325D01*
G01X285Y1314D01*
G01X278Y1301D01*
G01X273Y1287D01*
G01X270Y1273D01*
G01X269Y1259D01*
G01X269Y370D01*
G01X270Y356D01*
G01X273Y342D01*
G01X278Y328D01*
G01X285Y315D01*
G01X294Y304D01*
G01X304Y294D01*
G01X315Y285D01*
G01X328Y278D01*
G01X342Y273D01*
G01X356Y270D01*
G01X370Y269D01*
G01X13949Y269D01*
G01X13963Y270D01*
G01X13978Y273D01*
G01X13991Y278D01*
G01X14004Y285D01*
G01X14015Y294D01*
G01X14026Y304D01*
G01X14034Y315D01*
G01X14041Y328D01*
G01X14046Y342D01*
G01X14049Y356D01*
G01X14051Y370D01*
G01X14051Y1258D01*
G01X14049Y1273D01*
G01X14046Y1287D01*
G01X14041Y1301D01*
G01X14034Y1313D01*
G01X14026Y1325D01*
G01X14015Y1335D01*
G01X14004Y1344D01*
G01X13991Y1351D01*
G01X13978Y1356D01*
G01X13963Y1359D01*
G01X13949Y1360D01*
G01X13933Y1359D01*
G01X13918Y1355D01*
G01X13903Y1349D01*
G01X13889Y1341D01*
G01X13877Y1331D01*
G01X13867Y1319D01*
G01X13859Y1305D01*
G01X13836Y1264D01*
G01X13812Y1224D01*
G01X13786Y1185D01*
G01X13759Y1148D01*
G01X13730Y1111D01*
G01X13699Y1076D01*
G01X13667Y1043D01*
G01X13633Y1010D01*
G01X13598Y980D01*
G01X13562Y950D01*
G01X13524Y923D01*
G01X13485Y897D01*
G01X13445Y873D01*
G01X13404Y851D01*
G01X13362Y830D01*
G01X13320Y812D01*
G01X13320Y1759D01*
G01X13949Y1759D01*
G01X13963Y1760D01*
G01X13978Y1763D01*
G01X13991Y1768D01*
G01X14004Y1775D01*
G01X14015Y1784D01*
G01X14026Y1794D01*
G01X14034Y1806D01*
G01X14041Y1818D01*
G01X14046Y1832D01*
G01X14049Y1846D01*
G01X14051Y1861D01*
G01X14051Y3118D01*
G01X14049Y3133D01*
G01X14046Y3147D01*
G01X14041Y3161D01*
G01X14034Y3173D01*
G01X14026Y3185D01*
G01X14015Y3195D01*
G01X14004Y3204D01*
G01X13991Y3211D01*
G01X13978Y3216D01*
G01X13963Y3219D01*
G01X13949Y3220D01*
G01X13320Y3220D01*
G01X13320Y4167D01*
G01X13362Y4149D01*
G01X13404Y4128D01*
G01X13445Y4106D01*
G01X13485Y4082D01*
G01X13524Y4056D01*
G01X13562Y4029D01*
G01X13598Y3999D01*
G01X13633Y3969D01*
G01X13667Y3937D01*
G01X13699Y3903D01*
G01X13730Y3868D01*
G01X13759Y3831D01*
G01X13786Y3794D01*
G01X13812Y3755D01*
G01X13836Y3715D01*
G01X13859Y3674D01*
G01X13867Y3660D01*
G01X13877Y3648D01*
G01X13889Y3638D01*
G01X13903Y3630D01*
G01X13918Y3624D01*
G01X13933Y3620D01*
G01X13949Y3619D01*
G01X13963Y3620D01*
G01X13978Y3623D01*
G01X13991Y3628D01*
G01X14004Y3635D01*
G01X14015Y3644D01*
G01X14026Y3654D01*
G01X14034Y3666D01*
G01X14041Y3678D01*
G01X14046Y3692D01*
G01X14049Y3706D01*
G01X14051Y3721D01*
G01X14051Y5529D01*
G01X14049Y5544D01*
G01X14046Y5558D01*
G01X14041Y5571D01*
G01X14034Y5584D01*
G01X14026Y5596D01*
G01X14015Y5606D01*
G01X14004Y5615D01*
G01X13991Y5622D01*
G01X13978Y5627D01*
G01X13963Y5630D01*
G01X13949Y5631D01*
G01X12119Y5631D01*
G01X12104Y5630D01*
G01X12090Y5627D01*
G01X12077Y5622D01*
G01X12064Y5615D01*
G01X12052Y5606D01*
G01X12042Y5596D01*
G01X12033Y5584D01*
G01X12026Y5571D01*
G01X12021Y5558D01*
G01X12018Y5544D01*
G01X12017Y5529D01*
G01X12018Y5514D01*
G01X12022Y5500D01*
G01X12027Y5486D01*
G01X12034Y5473D01*
G01X12044Y5461D01*
G01X12054Y5451D01*
G01X12089Y5421D01*
G01X12122Y5389D01*
G01X12154Y5356D01*
G01X12183Y5321D01*
G01X12211Y5285D01*
G01X12238Y5247D01*
G01X12262Y5208D01*
G01X12284Y5168D01*
G01X12304Y5127D01*
G01X12322Y5085D01*
G01X12338Y5042D01*
G01X12352Y4998D01*
G01X12363Y4953D01*
G01X12372Y4908D01*
G01X11805Y4908D01*
G01X11805Y5529D01*
G01X11804Y5544D01*
G01X11801Y5558D01*
G01X11796Y5571D01*
G01X11789Y5584D01*
G01X11780Y5596D01*
G01X11770Y5606D01*
G01X11758Y5615D01*
G01X11745Y5622D01*
G01X11732Y5627D01*
G01X11718Y5630D01*
G01X11703Y5631D01*
G01X11256Y5631D01*
G01X11242Y5630D01*
G01X11228Y5627D01*
G01X11214Y5622D01*
G01X11201Y5615D01*
G01X11190Y5606D01*
G01X11180Y5596D01*
G01X11171Y5584D01*
G01X11164Y5571D01*
G01X11159Y5558D01*
G01X11156Y5544D01*
G01X11155Y5529D01*
G01X11155Y4908D01*
G01X10587Y4908D01*
G01X10596Y4953D01*
G01X10608Y4998D01*
G01X10622Y5042D01*
G01X10637Y5085D01*
G01X10655Y5127D01*
G01X10676Y5168D01*
G01X10698Y5208D01*
G01X10722Y5247D01*
G01X10748Y5285D01*
G01X10776Y5321D01*
G01X10806Y5356D01*
G01X10837Y5389D01*
G01X10870Y5421D01*
G01X10905Y5451D01*
G01X10916Y5461D01*
G01X10925Y5473D01*
G01X10933Y5486D01*
G01X10938Y5500D01*
G01X10941Y5514D01*
G01X10942Y5529D01*
G01X10941Y5544D01*
G01X10938Y5558D01*
G01X10933Y5571D01*
G01X10926Y5584D01*
G01X10918Y5596D01*
G01X10907Y5606D01*
G01X10896Y5615D01*
G01X10883Y5622D01*
G01X10869Y5627D01*
G01X10855Y5630D01*
G01X10841Y5631D01*
G01X6145Y5631D01*
G01X6131Y5630D01*
G01X6116Y5627D01*
G01X6103Y5622D01*
G01X6090Y5615D01*
G01X6078Y5606D01*
G01X6068Y5596D01*
G01X6060Y5584D01*
G01X6053Y5571D01*
G01X6048Y5558D01*
G01X6044Y5544D01*
G01X6043Y5529D01*
G01X6043Y3951D01*
G01X6045Y3936D01*
G01X6048Y3921D01*
G01X6054Y3907D01*
G01X6061Y3894D01*
G01X6071Y3882D01*
G01X6094Y3856D01*
G01X6115Y3828D01*
G01X6135Y3799D01*
G01X6152Y3768D01*
G01X6168Y3737D01*
G01X6182Y3705D01*
G01X6194Y3672D01*
G01X6204Y3638D01*
G01X6211Y3604D01*
G01X6217Y3569D01*
G01X6220Y3535D01*
G01X6221Y3499D01*
G01X6220Y3466D01*
G01X6217Y3432D01*
G01X6212Y3398D01*
G01X6205Y3365D01*
G01X6196Y3332D01*
G01X6185Y3300D01*
G01X6172Y3269D01*
G01X6157Y3239D01*
G01X6140Y3209D01*
G01X6122Y3181D01*
G01X6102Y3153D01*
G01X6080Y3127D01*
G01X6057Y3103D01*
G01X6032Y3079D01*
G01X6006Y3058D01*
G01X5979Y3038D01*
G01X5950Y3019D01*
G01X5921Y3002D01*
G01X5890Y2988D01*
G01X5859Y2975D01*
G01X5827Y2964D01*
G01X5794Y2954D01*
G01X5761Y2947D01*
G01X5727Y2942D01*
G01X5694Y2939D01*
G01X5660Y2938D01*
G01X5626Y2939D01*
G01X5592Y2942D01*
G01X5559Y2947D01*
G01X5525Y2954D01*
G01X5493Y2964D01*
G01X5461Y2975D01*
G01X5429Y2988D01*
G01X5399Y3002D01*
G01X5369Y3019D01*
G01X5341Y3038D01*
G01X5314Y3058D01*
G01X5288Y3079D01*
G01X5263Y3103D01*
G01X5240Y3127D01*
G01X5218Y3153D01*
G01X5198Y3181D01*
G01X5179Y3209D01*
G01X5163Y3239D01*
G01X5148Y3269D01*
G01X5135Y3300D01*
G01X5124Y3332D01*
G01X5115Y3365D01*
G01X5108Y3398D01*
G01X5102Y3432D01*
G01X5099Y3466D01*
G01X5098Y3499D01*
G01X5099Y3535D01*
G01X5103Y3569D01*
G01X5108Y3604D01*
G01X5116Y3638D01*
G01X5126Y3672D01*
G01X5137Y3705D01*
G01X5151Y3737D01*
G01X5167Y3769D01*
G01X5185Y3799D01*
G01X5205Y3828D01*
G01X5226Y3856D01*
G01X5249Y3882D01*
G01X5259Y3894D01*
G01X5266Y3907D01*
G01X5272Y3921D01*
G01X5275Y3936D01*
G01X5276Y3951D01*
G01X5276Y5598D01*
G01X5275Y5614D01*
G01X5271Y5630D01*
G01X5265Y5645D01*
G01X5257Y5658D01*
G01X5247Y5670D01*
G01X5086Y5831D01*
G01X5073Y5842D01*
G01X5060Y5850D01*
G01X5045Y5856D01*
G01X5030Y5860D01*
G37*

%LPC*%
G36*
G01X12520Y3220D02*
G01X12520Y3996D01*
G01X12503Y3992D01*
G01X12486Y3990D01*
G01X11805Y3990D01*
G01X11805Y3273D01*
G01X11818Y3266D01*
G01X11830Y3257D01*
G01X11840Y3246D01*
G01X11849Y3233D01*
G01X11856Y3220D01*
G01X12520Y3220D01*
G37*
G36*
G01X1816Y3992D02*
G01X1800Y3996D01*
G01X1800Y3220D01*
G01X2464Y3220D01*
G01X2471Y3233D01*
G01X2479Y3246D01*
G01X2490Y3257D01*
G01X2502Y3266D01*
G01X2515Y3273D01*
G01X2515Y3990D01*
G01X1833Y3990D01*
G01X1816Y3992D01*
G37*
G36*
G01X12520Y1759D02*
G01X11805Y1759D01*
G01X11805Y1109D01*
G01X12486Y1109D01*
G01X12503Y1107D01*
G01X12520Y1103D01*
G01X12520Y1759D01*
G37*
G36*
G01X2515Y1759D02*
G01X1800Y1759D01*
G01X1800Y1103D01*
G01X1816Y1107D01*
G01X1833Y1109D01*
G01X2515Y1109D01*
G01X2515Y1759D01*
G37*
G36*
G01X11155Y3990D02*
G01X10587Y3990D01*
G01X10596Y3947D01*
G01X10607Y3904D01*
G01X10620Y3861D01*
G01X10635Y3820D01*
G01X10652Y3779D01*
G01X10672Y3739D01*
G01X10693Y3700D01*
G01X10716Y3662D01*
G01X10740Y3625D01*
G01X10767Y3589D01*
G01X10795Y3555D01*
G01X10825Y3522D01*
G01X10856Y3491D01*
G01X10889Y3461D01*
G01X10924Y3433D01*
G01X10959Y3407D01*
G01X10996Y3382D01*
G01X11034Y3360D01*
G01X11074Y3339D01*
G01X11114Y3320D01*
G01X11155Y3303D01*
G01X11155Y3990D01*
G37*
G36*
G01X3732Y3990D02*
G01X3165Y3990D01*
G01X3165Y3303D01*
G01X3206Y3320D01*
G01X3246Y3339D01*
G01X3285Y3360D01*
G01X3323Y3382D01*
G01X3360Y3407D01*
G01X3396Y3433D01*
G01X3430Y3461D01*
G01X3463Y3491D01*
G01X3494Y3522D01*
G01X3524Y3555D01*
G01X3553Y3589D01*
G01X3579Y3625D01*
G01X3604Y3662D01*
G01X3627Y3700D01*
G01X3648Y3739D01*
G01X3667Y3779D01*
G01X3684Y3820D01*
G01X3699Y3861D01*
G01X3712Y3904D01*
G01X3723Y3947D01*
G01X3732Y3990D01*
G37*
G36*
G01X11155Y1109D02*
G01X11155Y1796D01*
G01X11114Y1779D01*
G01X11074Y1760D01*
G01X11034Y1739D01*
G01X10996Y1716D01*
G01X10959Y1692D01*
G01X10924Y1666D01*
G01X10889Y1637D01*
G01X10856Y1608D01*
G01X10825Y1576D01*
G01X10795Y1544D01*
G01X10767Y1509D01*
G01X10740Y1474D01*
G01X10716Y1437D01*
G01X10693Y1399D01*
G01X10672Y1360D01*
G01X10652Y1320D01*
G01X10635Y1279D01*
G01X10620Y1237D01*
G01X10607Y1195D01*
G01X10596Y1152D01*
G01X10587Y1109D01*
G01X11155Y1109D01*
G37*
G36*
G01X3206Y1779D02*
G01X3165Y1796D01*
G01X3165Y1109D01*
G01X3732Y1109D01*
G01X3723Y1152D01*
G01X3712Y1195D01*
G01X3699Y1237D01*
G01X3684Y1279D01*
G01X3667Y1320D01*
G01X3648Y1360D01*
G01X3627Y1399D01*
G01X3604Y1437D01*
G01X3579Y1474D01*
G01X3553Y1509D01*
G01X3524Y1544D01*
G01X3494Y1576D01*
G01X3463Y1608D01*
G01X3430Y1637D01*
G01X3396Y1666D01*
G01X3360Y1692D01*
G01X3323Y1716D01*
G01X3285Y1739D01*
G01X3246Y1760D01*
G01X3206Y1779D01*
G37*

%LPD*%
G54D10*
G01X5660Y3499D02*
G01X5660Y5799D01*
G01X4760Y6700D01*
G54D15*
G01X4760Y6700D03*
G54D11*
G01X5660Y3499D03*
G54D16*
G01X11480Y4749D02*
G01X11480Y4149D01*
G01X2840Y4749D02*
G01X2840Y4149D01*
G01X11480Y950D02*
G01X11480Y350D01*
G01X2840Y950D02*
G01X2840Y350D01*
G54D17*
G01X1400Y3190D02*
G01X1400Y1790D01*
G01X12920Y3190D02*
G01X12920Y1790D01*
M00*
M02*
