G04 Layer: BottomSilkLayer*
G04 EasyEDA v6.1.33, Mon, 29 Apr 2019 07:59:25 GMT*
G04 5d36fc25ff834208b66237403f2d6b39,84eed202dea0450dba7707278aa16868,10*
G04 Gerber Generator version 0.2*
G04 Scale: 100 percent, Rotated: No, Reflected: No *
G04 Dimensions in millimeters *
G04 leading zeros omitted , absolute positions ,3 integer and 3 decimal *
%FSLAX33Y33*%
%MOMM*%
G90*
G71D02*

%ADD20C,0.100000*%

%LPD*%

%LPD*%
G36*
G01X9316Y-5205D02*
G01X9246Y-5197D01*
G01X9181Y-5201D01*
G01X9120Y-5215D01*
G01X9066Y-5242D01*
G01X9034Y-5270D01*
G01X9000Y-5317D01*
G01X8967Y-5374D01*
G01X8939Y-5436D01*
G01X8926Y-5468D01*
G01X8911Y-5496D01*
G01X8894Y-5519D01*
G01X8872Y-5540D01*
G01X8845Y-5558D01*
G01X8811Y-5574D01*
G01X8769Y-5588D01*
G01X8717Y-5601D01*
G01X8654Y-5614D01*
G01X8579Y-5628D01*
G01X8489Y-5641D01*
G01X8385Y-5656D01*
G01X8291Y-5670D01*
G01X8200Y-5684D01*
G01X8115Y-5699D01*
G01X8033Y-5714D01*
G01X7956Y-5730D01*
G01X7882Y-5747D01*
G01X7812Y-5764D01*
G01X7745Y-5783D01*
G01X7682Y-5802D01*
G01X7622Y-5822D01*
G01X7564Y-5843D01*
G01X7508Y-5866D01*
G01X7455Y-5890D01*
G01X7405Y-5915D01*
G01X7356Y-5942D01*
G01X7309Y-5969D01*
G01X7263Y-5999D01*
G01X7219Y-6030D01*
G01X7176Y-6063D01*
G01X7134Y-6097D01*
G01X7086Y-6137D01*
G01X7036Y-6176D01*
G01X6987Y-6213D01*
G01X6939Y-6248D01*
G01X6894Y-6279D01*
G01X6853Y-6306D01*
G01X6818Y-6327D01*
G01X6789Y-6341D01*
G01X6759Y-6356D01*
G01X6739Y-6369D01*
G01X6727Y-6381D01*
G01X6724Y-6391D01*
G01X6730Y-6399D01*
G01X6743Y-6406D01*
G01X6764Y-6410D01*
G01X6791Y-6414D01*
G01X6825Y-6416D01*
G01X6865Y-6417D01*
G01X6910Y-6415D01*
G01X6960Y-6413D01*
G01X7014Y-6409D01*
G01X7072Y-6404D01*
G01X7134Y-6398D01*
G01X7199Y-6390D01*
G01X7266Y-6381D01*
G01X7335Y-6371D01*
G01X7406Y-6359D01*
G01X7478Y-6346D01*
G01X7550Y-6332D01*
G01X7623Y-6317D01*
G01X7695Y-6301D01*
G01X7766Y-6284D01*
G01X7861Y-6260D01*
G01X7952Y-6239D01*
G01X8039Y-6219D01*
G01X8122Y-6202D01*
G01X8202Y-6187D01*
G01X8278Y-6174D01*
G01X8351Y-6162D01*
G01X8421Y-6153D01*
G01X8488Y-6146D01*
G01X8552Y-6141D01*
G01X8613Y-6138D01*
G01X8671Y-6136D01*
G01X8727Y-6137D01*
G01X8781Y-6140D01*
G01X8833Y-6145D01*
G01X8882Y-6152D01*
G01X8930Y-6161D01*
G01X8976Y-6172D01*
G01X9020Y-6185D01*
G01X9063Y-6200D01*
G01X9105Y-6217D01*
G01X9146Y-6236D01*
G01X9185Y-6257D01*
G01X9224Y-6280D01*
G01X9270Y-6307D01*
G01X9322Y-6331D01*
G01X9379Y-6353D01*
G01X9440Y-6373D01*
G01X9503Y-6391D01*
G01X9566Y-6405D01*
G01X9629Y-6417D01*
G01X9691Y-6426D01*
G01X9751Y-6432D01*
G01X9805Y-6435D01*
G01X9856Y-6434D01*
G01X9899Y-6430D01*
G01X9935Y-6423D01*
G01X9963Y-6411D01*
G01X9980Y-6395D01*
G01X9986Y-6375D01*
G01X9984Y-6357D01*
G01X9979Y-6323D01*
G01X9969Y-6275D01*
G01X9958Y-6216D01*
G01X9944Y-6147D01*
G01X9928Y-6071D01*
G01X9910Y-5989D01*
G01X9891Y-5904D01*
G01X9872Y-5822D01*
G01X9854Y-5750D01*
G01X9835Y-5686D01*
G01X9818Y-5630D01*
G01X9798Y-5580D01*
G01X9778Y-5536D01*
G01X9757Y-5497D01*
G01X9733Y-5462D01*
G01X9706Y-5429D01*
G01X9677Y-5399D01*
G01X9644Y-5369D01*
G01X9607Y-5340D01*
G01X9535Y-5291D01*
G01X9462Y-5252D01*
G01X9388Y-5223D01*
G01X9316Y-5205D01*
G37*

%LPD*%
G36*
G01X11139Y-5492D02*
G01X11078Y-5492D01*
G01X11018Y-5496D01*
G01X10959Y-5504D01*
G01X10900Y-5516D01*
G01X10842Y-5534D01*
G01X10785Y-5555D01*
G01X10731Y-5582D01*
G01X10685Y-5610D01*
G01X10644Y-5641D01*
G01X10607Y-5676D01*
G01X10575Y-5716D01*
G01X10546Y-5759D01*
G01X10521Y-5807D01*
G01X10501Y-5860D01*
G01X10484Y-5917D01*
G01X10471Y-5979D01*
G01X10462Y-6046D01*
G01X10457Y-6118D01*
G01X10455Y-6196D01*
G01X10460Y-6318D01*
G01X10478Y-6388D01*
G01X10521Y-6420D01*
G01X10595Y-6427D01*
G01X10654Y-6420D01*
G01X10715Y-6401D01*
G01X10768Y-6373D01*
G01X10846Y-6305D01*
G01X10898Y-6277D01*
G01X10955Y-6258D01*
G01X11012Y-6251D01*
G01X11069Y-6258D01*
G01X11127Y-6277D01*
G01X11179Y-6305D01*
G01X11218Y-6339D01*
G01X11249Y-6367D01*
G01X11290Y-6390D01*
G01X11340Y-6407D01*
G01X11394Y-6419D01*
G01X11454Y-6425D01*
G01X11515Y-6426D01*
G01X11577Y-6421D01*
G01X11637Y-6411D01*
G01X11694Y-6396D01*
G01X11745Y-6376D01*
G01X11789Y-6350D01*
G01X11824Y-6319D01*
G01X11866Y-6269D01*
G01X11895Y-6222D01*
G01X11911Y-6176D01*
G01X11915Y-6127D01*
G01X11904Y-6073D01*
G01X11882Y-6012D01*
G01X11845Y-5940D01*
G01X11795Y-5855D01*
G01X11762Y-5806D01*
G01X11724Y-5760D01*
G01X11683Y-5717D01*
G01X11638Y-5678D01*
G01X11591Y-5643D01*
G01X11541Y-5611D01*
G01X11488Y-5582D01*
G01X11433Y-5557D01*
G01X11376Y-5537D01*
G01X11318Y-5519D01*
G01X11259Y-5506D01*
G01X11199Y-5498D01*
G01X11139Y-5492D01*
G37*

%LPD*%
G36*
G01X1988Y9056D02*
G01X1752Y9056D01*
G01X1650Y9054D01*
G01X1553Y9053D01*
G01X1462Y9050D01*
G01X1378Y9047D01*
G01X1302Y9043D01*
G01X1236Y9039D01*
G01X1179Y9034D01*
G01X1133Y9029D01*
G01X1099Y9024D01*
G01X1078Y9018D01*
G01X1071Y9012D01*
G01X1076Y8980D01*
G01X1091Y8940D01*
G01X1113Y8895D01*
G01X1142Y8846D01*
G01X1178Y8793D01*
G01X1217Y8740D01*
G01X1259Y8686D01*
G01X1304Y8635D01*
G01X1350Y8587D01*
G01X1395Y8544D01*
G01X1440Y8507D01*
G01X1481Y8478D01*
G01X1523Y8455D01*
G01X1575Y8431D01*
G01X1635Y8406D01*
G01X1701Y8381D01*
G01X1771Y8357D01*
G01X1842Y8335D01*
G01X1913Y8315D01*
G01X1982Y8298D01*
G01X2060Y8279D01*
G01X2130Y8259D01*
G01X2193Y8238D01*
G01X2247Y8214D01*
G01X2295Y8189D01*
G01X2336Y8162D01*
G01X2370Y8132D01*
G01X2397Y8099D01*
G01X2417Y8063D01*
G01X2431Y8024D01*
G01X2439Y7982D01*
G01X2441Y7936D01*
G01X2437Y7885D01*
G01X2427Y7831D01*
G01X2412Y7772D01*
G01X2391Y7709D01*
G01X2367Y7635D01*
G01X2346Y7563D01*
G01X2330Y7494D01*
G01X2317Y7428D01*
G01X2308Y7363D01*
G01X2304Y7301D01*
G01X2304Y7240D01*
G01X2308Y7182D01*
G01X2316Y7125D01*
G01X2329Y7069D01*
G01X2346Y7016D01*
G01X2368Y6963D01*
G01X2393Y6912D01*
G01X2423Y6862D01*
G01X2458Y6813D01*
G01X2497Y6765D01*
G01X2540Y6717D01*
G01X2589Y6671D01*
G01X2641Y6624D01*
G01X2698Y6578D01*
G01X2742Y6547D01*
G01X2787Y6520D01*
G01X2834Y6495D01*
G01X2881Y6475D01*
G01X2930Y6458D01*
G01X2980Y6445D01*
G01X3030Y6435D01*
G01X3082Y6428D01*
G01X3134Y6425D01*
G01X3186Y6426D01*
G01X3239Y6429D01*
G01X3292Y6436D01*
G01X3345Y6447D01*
G01X3397Y6460D01*
G01X3450Y6477D01*
G01X3502Y6497D01*
G01X3554Y6520D01*
G01X3605Y6547D01*
G01X3655Y6577D01*
G01X3704Y6610D01*
G01X3753Y6646D01*
G01X3799Y6685D01*
G01X3845Y6727D01*
G01X3889Y6772D01*
G01X3956Y6841D01*
G01X4020Y6902D01*
G01X4081Y6953D01*
G01X4140Y6995D01*
G01X4198Y7029D01*
G01X4255Y7054D01*
G01X4313Y7071D01*
G01X4371Y7081D01*
G01X4430Y7082D01*
G01X4491Y7076D01*
G01X4554Y7063D01*
G01X4620Y7043D01*
G01X4662Y7026D01*
G01X4708Y7004D01*
G01X4759Y6977D01*
G01X4814Y6945D01*
G01X4871Y6909D01*
G01X4930Y6870D01*
G01X4991Y6828D01*
G01X5052Y6784D01*
G01X5112Y6738D01*
G01X5171Y6692D01*
G01X5228Y6646D01*
G01X5283Y6599D01*
G01X5334Y6555D01*
G01X5381Y6512D01*
G01X5423Y6470D01*
G01X5459Y6432D01*
G01X5488Y6398D01*
G01X5510Y6367D01*
G01X5524Y6342D01*
G01X5529Y6322D01*
G01X5522Y6291D01*
G01X5506Y6263D01*
G01X5479Y6237D01*
G01X5443Y6213D01*
G01X5400Y6192D01*
G01X5350Y6173D01*
G01X5293Y6159D01*
G01X5232Y6147D01*
G01X5167Y6140D01*
G01X5100Y6137D01*
G01X5031Y6139D01*
G01X4961Y6146D01*
G01X4888Y6152D01*
G01X4820Y6152D01*
G01X4758Y6146D01*
G01X4701Y6132D01*
G01X4649Y6112D01*
G01X4602Y6084D01*
G01X4560Y6050D01*
G01X4523Y6008D01*
G01X4492Y5960D01*
G01X4464Y5904D01*
G01X4442Y5842D01*
G01X4425Y5771D01*
G01X4410Y5698D01*
G01X4400Y5631D01*
G01X4393Y5570D01*
G01X4390Y5514D01*
G01X4392Y5463D01*
G01X4398Y5416D01*
G01X4410Y5373D01*
G01X4427Y5332D01*
G01X4450Y5293D01*
G01X4479Y5256D01*
G01X4514Y5219D01*
G01X4556Y5183D01*
G01X4606Y5146D01*
G01X4662Y5108D01*
G01X4727Y5068D01*
G01X4800Y5025D01*
G01X4870Y4983D01*
G01X4934Y4942D01*
G01X4991Y4903D01*
G01X5039Y4865D01*
G01X5081Y4829D01*
G01X5116Y4793D01*
G01X5143Y4758D01*
G01X5164Y4725D01*
G01X5177Y4692D01*
G01X5184Y4660D01*
G01X5183Y4628D01*
G01X5175Y4597D01*
G01X5162Y4566D01*
G01X5141Y4535D01*
G01X5114Y4504D01*
G01X5079Y4474D01*
G01X5043Y4451D01*
G01X4995Y4432D01*
G01X4937Y4418D01*
G01X4873Y4408D01*
G01X4805Y4402D01*
G01X4734Y4401D01*
G01X4662Y4404D01*
G01X4593Y4411D01*
G01X4529Y4422D01*
G01X4471Y4438D01*
G01X4422Y4457D01*
G01X4385Y4481D01*
G01X4359Y4499D01*
G01X4320Y4521D01*
G01X4271Y4546D01*
G01X4212Y4573D01*
G01X4147Y4601D01*
G01X4077Y4629D01*
G01X4003Y4657D01*
G01X3928Y4683D01*
G01X3852Y4710D01*
G01X3785Y4736D01*
G01X3726Y4761D01*
G01X3675Y4786D01*
G01X3629Y4813D01*
G01X3587Y4843D01*
G01X3548Y4876D01*
G01X3510Y4915D01*
G01X3472Y4960D01*
G01X3433Y5012D01*
G01X3390Y5072D01*
G01X3343Y5143D01*
G01X3303Y5200D01*
G01X3263Y5255D01*
G01X3223Y5306D01*
G01X3183Y5353D01*
G01X3141Y5397D01*
G01X3100Y5438D01*
G01X3059Y5475D01*
G01X3017Y5508D01*
G01X2975Y5538D01*
G01X2933Y5565D01*
G01X2891Y5589D01*
G01X2847Y5608D01*
G01X2805Y5625D01*
G01X2761Y5637D01*
G01X2718Y5646D01*
G01X2675Y5653D01*
G01X2630Y5655D01*
G01X2587Y5654D01*
G01X2543Y5650D01*
G01X2498Y5641D01*
G01X2454Y5630D01*
G01X2409Y5615D01*
G01X2365Y5596D01*
G01X2320Y5574D01*
G01X2275Y5549D01*
G01X2230Y5520D01*
G01X2185Y5488D01*
G01X2140Y5452D01*
G01X2095Y5413D01*
G01X2050Y5370D01*
G01X2005Y5324D01*
G01X1959Y5274D01*
G01X1921Y5228D01*
G01X1887Y5183D01*
G01X1858Y5139D01*
G01X1834Y5095D01*
G01X1814Y5052D01*
G01X1799Y5007D01*
G01X1788Y4963D01*
G01X1782Y4917D01*
G01X1780Y4870D01*
G01X1783Y4821D01*
G01X1790Y4770D01*
G01X1801Y4717D01*
G01X1817Y4660D01*
G01X1837Y4602D01*
G01X1862Y4539D01*
G01X1891Y4473D01*
G01X1936Y4370D01*
G01X1969Y4288D01*
G01X1991Y4222D01*
G01X2001Y4168D01*
G01X2000Y4122D01*
G01X1988Y4080D01*
G01X1966Y4037D01*
G01X1934Y3990D01*
G01X1908Y3961D01*
G01X1877Y3942D01*
G01X1841Y3929D01*
G01X1800Y3926D01*
G01X1754Y3932D01*
G01X1703Y3946D01*
G01X1647Y3969D01*
G01X1585Y4000D01*
G01X1519Y4040D01*
G01X1446Y4089D01*
G01X1369Y4147D01*
G01X1285Y4213D01*
G01X1230Y4255D01*
G01X1168Y4297D01*
G01X1101Y4337D01*
G01X1030Y4375D01*
G01X959Y4411D01*
G01X889Y4441D01*
G01X823Y4465D01*
G01X762Y4484D01*
G01X688Y4504D01*
G01X626Y4525D01*
G01X577Y4547D01*
G01X538Y4572D01*
G01X512Y4598D01*
G01X496Y4627D01*
G01X492Y4661D01*
G01X498Y4698D01*
G01X516Y4741D01*
G01X544Y4788D01*
G01X583Y4842D01*
G01X631Y4902D01*
G01X688Y4974D01*
G01X730Y5037D01*
G01X757Y5095D01*
G01X770Y5152D01*
G01X768Y5211D01*
G01X752Y5276D01*
G01X723Y5350D01*
G01X681Y5437D01*
G01X643Y5508D01*
G01X605Y5575D01*
G01X565Y5638D01*
G01X525Y5697D01*
G01X485Y5753D01*
G01X443Y5804D01*
G01X402Y5852D01*
G01X360Y5896D01*
G01X317Y5936D01*
G01X275Y5971D01*
G01X232Y6002D01*
G01X189Y6029D01*
G01X146Y6052D01*
G01X103Y6070D01*
G01X59Y6084D01*
G01X16Y6094D01*
G01X-50Y6101D01*
G01X-120Y6102D01*
G01X-192Y6096D01*
G01X-264Y6085D01*
G01X-334Y6068D01*
G01X-402Y6046D01*
G01X-466Y6021D01*
G01X-523Y5991D01*
G01X-574Y5959D01*
G01X-616Y5924D01*
G01X-647Y5886D01*
G01X-668Y5848D01*
G01X-689Y5798D01*
G01X-716Y5752D01*
G01X-748Y5710D01*
G01X-785Y5673D01*
G01X-826Y5640D01*
G01X-870Y5611D01*
G01X-916Y5588D01*
G01X-964Y5569D01*
G01X-1014Y5556D01*
G01X-1064Y5548D01*
G01X-1114Y5545D01*
G01X-1163Y5549D01*
G01X-1210Y5559D01*
G01X-1255Y5575D01*
G01X-1297Y5598D01*
G01X-1336Y5628D01*
G01X-1367Y5658D01*
G01X-1389Y5686D01*
G01X-1403Y5715D01*
G01X-1408Y5749D01*
G01X-1405Y5792D01*
G01X-1393Y5847D01*
G01X-1373Y5917D01*
G01X-1345Y6006D01*
G01X-1320Y6089D01*
G01X-1302Y6162D01*
G01X-1289Y6226D01*
G01X-1284Y6285D01*
G01X-1285Y6343D01*
G01X-1293Y6402D01*
G01X-1307Y6465D01*
G01X-1327Y6537D01*
G01X-1342Y6580D01*
G01X-1360Y6625D01*
G01X-1384Y6671D01*
G01X-1411Y6718D01*
G01X-1441Y6766D01*
G01X-1475Y6814D01*
G01X-1511Y6862D01*
G01X-1550Y6911D01*
G01X-1592Y6959D01*
G01X-1636Y7006D01*
G01X-1682Y7053D01*
G01X-1729Y7099D01*
G01X-1778Y7143D01*
G01X-1828Y7185D01*
G01X-1879Y7225D01*
G01X-1930Y7263D01*
G01X-1982Y7299D01*
G01X-2034Y7332D01*
G01X-2085Y7361D01*
G01X-2136Y7388D01*
G01X-2176Y7406D01*
G01X-2217Y7422D01*
G01X-2262Y7437D01*
G01X-2308Y7451D01*
G01X-2356Y7464D01*
G01X-2406Y7475D01*
G01X-2458Y7485D01*
G01X-2512Y7494D01*
G01X-2567Y7502D01*
G01X-2624Y7508D01*
G01X-2682Y7512D01*
G01X-2741Y7516D01*
G01X-2802Y7518D01*
G01X-2863Y7519D01*
G01X-2925Y7519D01*
G01X-2989Y7517D01*
G01X-3052Y7514D01*
G01X-3117Y7509D01*
G01X-3181Y7503D01*
G01X-3246Y7496D01*
G01X-3312Y7487D01*
G01X-3377Y7478D01*
G01X-3442Y7466D01*
G01X-3508Y7453D01*
G01X-3570Y7441D01*
G01X-3636Y7427D01*
G01X-3705Y7413D01*
G01X-3777Y7399D01*
G01X-3922Y7369D01*
G01X-3994Y7355D01*
G01X-4065Y7341D01*
G01X-4133Y7327D01*
G01X-4197Y7315D01*
G01X-4256Y7303D01*
G01X-4309Y7292D01*
G01X-4381Y7278D01*
G01X-4449Y7260D01*
G01X-4512Y7242D01*
G01X-4571Y7221D01*
G01X-4626Y7198D01*
G01X-4678Y7173D01*
G01X-4725Y7145D01*
G01X-4770Y7115D01*
G01X-4812Y7082D01*
G01X-4850Y7046D01*
G01X-4886Y7007D01*
G01X-4919Y6966D01*
G01X-4950Y6921D01*
G01X-4978Y6872D01*
G01X-5005Y6820D01*
G01X-5030Y6764D01*
G01X-5050Y6705D01*
G01X-5062Y6643D01*
G01X-5068Y6579D01*
G01X-5068Y6516D01*
G01X-5062Y6453D01*
G01X-5051Y6392D01*
G01X-5035Y6335D01*
G01X-5015Y6282D01*
G01X-4992Y6235D01*
G01X-4965Y6195D01*
G01X-4935Y6163D01*
G01X-4904Y6141D01*
G01X-4871Y6129D01*
G01X-4837Y6128D01*
G01X-4803Y6141D01*
G01X-4769Y6167D01*
G01X-4750Y6179D01*
G01X-4718Y6192D01*
G01X-4675Y6206D01*
G01X-4620Y6220D01*
G01X-4556Y6235D01*
G01X-4485Y6250D01*
G01X-4407Y6265D01*
G01X-4326Y6280D01*
G01X-4240Y6294D01*
G01X-4153Y6308D01*
G01X-4066Y6320D01*
G01X-3980Y6331D01*
G01X-3897Y6340D01*
G01X-3818Y6348D01*
G01X-3745Y6353D01*
G01X-3679Y6356D01*
G01X-3623Y6359D01*
G01X-3565Y6365D01*
G01X-3506Y6373D01*
G01X-3449Y6385D01*
G01X-3395Y6398D01*
G01X-3346Y6413D01*
G01X-3303Y6429D01*
G01X-3268Y6446D01*
G01X-3218Y6472D01*
G01X-3168Y6493D01*
G01X-3118Y6509D01*
G01X-3067Y6519D01*
G01X-3015Y6525D01*
G01X-2961Y6525D01*
G01X-2904Y6521D01*
G01X-2846Y6511D01*
G01X-2785Y6496D01*
G01X-2722Y6476D01*
G01X-2654Y6451D01*
G01X-2584Y6420D01*
G01X-2521Y6391D01*
G01X-2466Y6362D01*
G01X-2418Y6334D01*
G01X-2377Y6306D01*
G01X-2342Y6276D01*
G01X-2314Y6246D01*
G01X-2293Y6214D01*
G01X-2278Y6180D01*
G01X-2269Y6144D01*
G01X-2266Y6104D01*
G01X-2268Y6060D01*
G01X-2276Y6013D01*
G01X-2290Y5960D01*
G01X-2308Y5903D01*
G01X-2332Y5840D01*
G01X-2361Y5771D01*
G01X-2388Y5705D01*
G01X-2411Y5643D01*
G01X-2430Y5586D01*
G01X-2445Y5532D01*
G01X-2456Y5480D01*
G01X-2462Y5431D01*
G01X-2465Y5384D01*
G01X-2463Y5339D01*
G01X-2457Y5294D01*
G01X-2447Y5249D01*
G01X-2431Y5205D01*
G01X-2412Y5160D01*
G01X-2388Y5114D01*
G01X-2360Y5066D01*
G01X-2327Y5017D01*
G01X-2290Y4965D01*
G01X-2246Y4911D01*
G01X-2201Y4861D01*
G01X-2153Y4814D01*
G01X-2103Y4772D01*
G01X-2049Y4734D01*
G01X-1993Y4700D01*
G01X-1933Y4669D01*
G01X-1869Y4641D01*
G01X-1803Y4617D01*
G01X-1732Y4596D01*
G01X-1658Y4579D01*
G01X-1578Y4564D01*
G01X-1512Y4556D01*
G01X-1448Y4553D01*
G01X-1386Y4556D01*
G01X-1322Y4566D01*
G01X-1255Y4583D01*
G01X-1182Y4607D01*
G01X-1100Y4639D01*
G01X-1008Y4680D01*
G01X-940Y4711D01*
G01X-874Y4739D01*
G01X-812Y4765D01*
G01X-756Y4788D01*
G01X-708Y4807D01*
G01X-668Y4821D01*
G01X-639Y4830D01*
G01X-622Y4833D01*
G01X-598Y4828D01*
G01X-581Y4814D01*
G01X-572Y4792D01*
G01X-569Y4761D01*
G01X-573Y4723D01*
G01X-584Y4678D01*
G01X-600Y4628D01*
G01X-624Y4572D01*
G01X-653Y4511D01*
G01X-688Y4446D01*
G01X-729Y4377D01*
G01X-775Y4306D01*
G01X-839Y4210D01*
G01X-886Y4133D01*
G01X-919Y4073D01*
G01X-937Y4022D01*
G01X-943Y3978D01*
G01X-936Y3936D01*
G01X-920Y3890D01*
G01X-893Y3836D01*
G01X-871Y3797D01*
G01X-847Y3760D01*
G01X-819Y3723D01*
G01X-789Y3688D01*
G01X-755Y3653D01*
G01X-717Y3618D01*
G01X-676Y3583D01*
G01X-630Y3548D01*
G01X-579Y3514D01*
G01X-524Y3479D01*
G01X-464Y3444D01*
G01X-399Y3408D01*
G01X-328Y3371D01*
G01X-251Y3333D01*
G01X-169Y3294D01*
G01X-80Y3253D01*
G01X-26Y3228D01*
G01X30Y3199D01*
G01X88Y3167D01*
G01X148Y3134D01*
G01X207Y3098D01*
G01X266Y3061D01*
G01X324Y3024D01*
G01X379Y2986D01*
G01X431Y2948D01*
G01X480Y2912D01*
G01X523Y2876D01*
G01X562Y2843D01*
G01X617Y2789D01*
G01X670Y2734D01*
G01X722Y2675D01*
G01X771Y2615D01*
G01X818Y2554D01*
G01X862Y2493D01*
G01X903Y2431D01*
G01X939Y2371D01*
G01X972Y2312D01*
G01X1000Y2256D01*
G01X1023Y2202D01*
G01X1041Y2151D01*
G01X1054Y2105D01*
G01X1060Y2064D01*
G01X1060Y2027D01*
G01X1053Y1998D01*
G01X1039Y1972D01*
G01X1018Y1950D01*
G01X989Y1932D01*
G01X955Y1918D01*
G01X913Y1909D01*
G01X867Y1904D01*
G01X815Y1903D01*
G01X757Y1906D01*
G01X695Y1913D01*
G01X629Y1924D01*
G01X558Y1940D01*
G01X484Y1960D01*
G01X427Y1974D01*
G01X368Y1984D01*
G01X307Y1989D01*
G01X245Y1989D01*
G01X181Y1985D01*
G01X117Y1978D01*
G01X51Y1966D01*
G01X-13Y1949D01*
G01X-78Y1929D01*
G01X-143Y1906D01*
G01X-207Y1878D01*
G01X-270Y1846D01*
G01X-332Y1811D01*
G01X-393Y1772D01*
G01X-451Y1731D01*
G01X-507Y1685D01*
G01X-748Y1479D01*
G01X-842Y1704D01*
G01X-855Y1740D01*
G01X-869Y1783D01*
G01X-882Y1832D01*
G01X-895Y1888D01*
G01X-908Y1949D01*
G01X-921Y2014D01*
G01X-933Y2083D01*
G01X-944Y2153D01*
G01X-955Y2226D01*
G01X-964Y2299D01*
G01X-972Y2372D01*
G01X-979Y2443D01*
G01X-989Y2550D01*
G01X-1000Y2647D01*
G01X-1012Y2734D01*
G01X-1027Y2812D01*
G01X-1043Y2881D01*
G01X-1062Y2942D01*
G01X-1083Y2996D01*
G01X-1107Y3041D01*
G01X-1134Y3080D01*
G01X-1165Y3112D01*
G01X-1199Y3138D01*
G01X-1238Y3158D01*
G01X-1280Y3173D01*
G01X-1326Y3183D01*
G01X-1378Y3189D01*
G01X-1434Y3191D01*
G01X-1485Y3189D01*
G01X-1534Y3184D01*
G01X-1579Y3175D01*
G01X-1623Y3162D01*
G01X-1664Y3145D01*
G01X-1702Y3123D01*
G01X-1739Y3098D01*
G01X-1773Y3067D01*
G01X-1805Y3033D01*
G01X-1836Y2993D01*
G01X-1865Y2948D01*
G01X-1892Y2898D01*
G01X-1918Y2843D01*
G01X-1942Y2782D01*
G01X-1965Y2715D01*
G01X-1987Y2643D01*
G01X-2008Y2564D01*
G01X-2028Y2480D01*
G01X-2047Y2389D01*
G01X-2066Y2292D01*
G01X-2088Y2154D01*
G01X-2098Y2087D01*
G01X-2105Y2020D01*
G01X-2112Y1954D01*
G01X-2117Y1889D01*
G01X-2121Y1825D01*
G01X-2124Y1761D01*
G01X-2126Y1698D01*
G01X-2126Y1636D01*
G01X-2125Y1575D01*
G01X-2123Y1514D01*
G01X-2119Y1454D01*
G01X-2114Y1395D01*
G01X-2108Y1336D01*
G01X-2100Y1278D01*
G01X-2091Y1221D01*
G01X-2081Y1164D01*
G01X-2070Y1109D01*
G01X-2057Y1053D01*
G01X-2043Y999D01*
G01X-2027Y944D01*
G01X-2010Y891D01*
G01X-1992Y838D01*
G01X-1973Y786D01*
G01X-1952Y735D01*
G01X-1929Y683D01*
G01X-1906Y633D01*
G01X-1881Y583D01*
G01X-1855Y534D01*
G01X-1827Y485D01*
G01X-1798Y437D01*
G01X-1768Y389D01*
G01X-1736Y342D01*
G01X-1703Y295D01*
G01X-1669Y249D01*
G01X-1634Y203D01*
G01X-1597Y158D01*
G01X-1558Y113D01*
G01X-1518Y69D01*
G01X-1437Y-23D01*
G01X-1406Y-85D01*
G01X-1420Y-139D01*
G01X-1478Y-209D01*
G01X-1528Y-254D01*
G01X-1581Y-292D01*
G01X-1634Y-316D01*
G01X-1679Y-325D01*
G01X-1696Y-322D01*
G01X-1722Y-312D01*
G01X-1755Y-297D01*
G01X-1794Y-277D01*
G01X-1841Y-252D01*
G01X-1891Y-222D01*
G01X-1947Y-189D01*
G01X-2007Y-153D01*
G01X-2070Y-113D01*
G01X-2136Y-71D01*
G01X-2203Y-27D01*
G01X-2271Y18D01*
G01X-2770Y360D01*
G01X-2754Y691D01*
G01X-2753Y763D01*
G01X-2754Y831D01*
G01X-2759Y898D01*
G01X-2768Y963D01*
G01X-2780Y1026D01*
G01X-2795Y1086D01*
G01X-2812Y1144D01*
G01X-2833Y1199D01*
G01X-2857Y1252D01*
G01X-2883Y1302D01*
G01X-2912Y1350D01*
G01X-2943Y1394D01*
G01X-2978Y1436D01*
G01X-3015Y1474D01*
G01X-3054Y1509D01*
G01X-3095Y1541D01*
G01X-3139Y1569D01*
G01X-3185Y1594D01*
G01X-3233Y1616D01*
G01X-3284Y1634D01*
G01X-3336Y1648D01*
G01X-3390Y1658D01*
G01X-3446Y1664D01*
G01X-3504Y1666D01*
G01X-3535Y1665D01*
G01X-3566Y1662D01*
G01X-3595Y1656D01*
G01X-3625Y1648D01*
G01X-3654Y1637D01*
G01X-3684Y1622D01*
G01X-3714Y1604D01*
G01X-3744Y1582D01*
G01X-3776Y1556D01*
G01X-3809Y1525D01*
G01X-3844Y1490D01*
G01X-3881Y1449D01*
G01X-3920Y1403D01*
G01X-3962Y1352D01*
G01X-4007Y1294D01*
G01X-4055Y1231D01*
G01X-4107Y1161D01*
G01X-4222Y1000D01*
G01X-4286Y908D01*
G01X-4347Y820D01*
G01X-4404Y741D01*
G01X-4455Y671D01*
G01X-4502Y611D01*
G01X-4545Y558D01*
G01X-4585Y513D01*
G01X-4622Y476D01*
G01X-4657Y446D01*
G01X-4691Y422D01*
G01X-4723Y404D01*
G01X-4755Y391D01*
G01X-4787Y384D01*
G01X-4820Y382D01*
G01X-4854Y383D01*
G01X-4891Y389D01*
G01X-4930Y397D01*
G01X-4972Y412D01*
G01X-5013Y434D01*
G01X-5051Y463D01*
G01X-5087Y497D01*
G01X-5119Y538D01*
G01X-5149Y583D01*
G01X-5176Y632D01*
G01X-5199Y684D01*
G01X-5220Y739D01*
G01X-5236Y797D01*
G01X-5249Y856D01*
G01X-5258Y916D01*
G01X-5263Y977D01*
G01X-5264Y1037D01*
G01X-5261Y1096D01*
G01X-5253Y1154D01*
G01X-5240Y1210D01*
G01X-5222Y1263D01*
G01X-5200Y1312D01*
G01X-5172Y1357D01*
G01X-5155Y1385D01*
G01X-5140Y1415D01*
G01X-5128Y1447D01*
G01X-5119Y1485D01*
G01X-5113Y1529D01*
G01X-5109Y1581D01*
G01X-5109Y1642D01*
G01X-5111Y1715D01*
G01X-5116Y1800D01*
G01X-5123Y1899D01*
G01X-5132Y2015D01*
G01X-5144Y2148D01*
G01X-5158Y2291D01*
G01X-5170Y2421D01*
G01X-5181Y2538D01*
G01X-5192Y2641D01*
G01X-5202Y2734D01*
G01X-5213Y2815D01*
G01X-5223Y2888D01*
G01X-5233Y2951D01*
G01X-5244Y3005D01*
G01X-5255Y3053D01*
G01X-5268Y3093D01*
G01X-5282Y3128D01*
G01X-5297Y3159D01*
G01X-5314Y3185D01*
G01X-5333Y3208D01*
G01X-5353Y3228D01*
G01X-5376Y3248D01*
G01X-5402Y3266D01*
G01X-5431Y3285D01*
G01X-5462Y3305D01*
G01X-5543Y3351D01*
G01X-5620Y3390D01*
G01X-5683Y3416D01*
G01X-5724Y3426D01*
G01X-5735Y3420D01*
G01X-5744Y3405D01*
G01X-5754Y3378D01*
G01X-5762Y3340D01*
G01X-5768Y3291D01*
G01X-5774Y3231D01*
G01X-5779Y3158D01*
G01X-5783Y3074D01*
G01X-5786Y2977D01*
G01X-5789Y2868D01*
G01X-5790Y2746D01*
G01X-5790Y2488D01*
G01X-5789Y2376D01*
G01X-5788Y2275D01*
G01X-5786Y2184D01*
G01X-5783Y2102D01*
G01X-5779Y2027D01*
G01X-5774Y1960D01*
G01X-5769Y1899D01*
G01X-5762Y1844D01*
G01X-5754Y1793D01*
G01X-5744Y1746D01*
G01X-5733Y1702D01*
G01X-5721Y1660D01*
G01X-5707Y1620D01*
G01X-5692Y1580D01*
G01X-5674Y1540D01*
G01X-5638Y1456D01*
G01X-5609Y1378D01*
G01X-5587Y1305D01*
G01X-5570Y1238D01*
G01X-5560Y1177D01*
G01X-5557Y1122D01*
G01X-5560Y1075D01*
G01X-5570Y1035D01*
G01X-5585Y1004D01*
G01X-5608Y981D01*
G01X-5637Y967D01*
G01X-5673Y962D01*
G01X-5731Y954D01*
G01X-5767Y922D01*
G01X-5785Y860D01*
G01X-5790Y758D01*
G01X-5788Y700D01*
G01X-5779Y645D01*
G01X-5762Y593D01*
G01X-5737Y540D01*
G01X-5702Y484D01*
G01X-5657Y423D01*
G01X-5599Y356D01*
G01X-5528Y280D01*
G01X-5266Y6D01*
G01X-4871Y43D01*
G01X-4789Y50D01*
G01X-4716Y55D01*
G01X-4653Y58D01*
G01X-4597Y58D01*
G01X-4547Y55D01*
G01X-4500Y50D01*
G01X-4457Y40D01*
G01X-4414Y27D01*
G01X-4371Y10D01*
G01X-4326Y-11D01*
G01X-4278Y-36D01*
G01X-4225Y-67D01*
G01X-4127Y-129D01*
G01X-4046Y-188D01*
G01X-3992Y-239D01*
G01X-3972Y-274D01*
G01X-3966Y-291D01*
G01X-3951Y-318D01*
G01X-3927Y-355D01*
G01X-3894Y-398D01*
G01X-3855Y-447D01*
G01X-3811Y-500D01*
G01X-3761Y-557D01*
G01X-3708Y-615D01*
G01X-3643Y-685D01*
G01X-3588Y-748D01*
G01X-3542Y-803D01*
G01X-3506Y-850D01*
G01X-3479Y-891D01*
G01X-3462Y-927D01*
G01X-3453Y-957D01*
G01X-3453Y-982D01*
G01X-3461Y-1004D01*
G01X-3477Y-1022D01*
G01X-3501Y-1038D01*
G01X-3532Y-1052D01*
G01X-3566Y-1076D01*
G01X-3594Y-1118D01*
G01X-3613Y-1169D01*
G01X-3620Y-1227D01*
G01X-3625Y-1285D01*
G01X-3637Y-1342D01*
G01X-3657Y-1396D01*
G01X-3684Y-1448D01*
G01X-3717Y-1496D01*
G01X-3756Y-1540D01*
G01X-3799Y-1579D01*
G01X-3847Y-1612D01*
G01X-3899Y-1639D01*
G01X-3953Y-1659D01*
G01X-4010Y-1672D01*
G01X-4068Y-1676D01*
G01X-4135Y-1675D01*
G01X-4203Y-1671D01*
G01X-4269Y-1664D01*
G01X-4335Y-1654D01*
G01X-4400Y-1641D01*
G01X-4463Y-1627D01*
G01X-4526Y-1609D01*
G01X-4586Y-1588D01*
G01X-4646Y-1566D01*
G01X-4704Y-1541D01*
G01X-4759Y-1514D01*
G01X-4813Y-1484D01*
G01X-4865Y-1452D01*
G01X-4914Y-1418D01*
G01X-4961Y-1382D01*
G01X-5005Y-1344D01*
G01X-5073Y-1283D01*
G01X-5134Y-1230D01*
G01X-5189Y-1185D01*
G01X-5240Y-1147D01*
G01X-5287Y-1115D01*
G01X-5332Y-1089D01*
G01X-5376Y-1069D01*
G01X-5419Y-1054D01*
G01X-5463Y-1043D01*
G01X-5509Y-1036D01*
G01X-5558Y-1032D01*
G01X-5610Y-1031D01*
G01X-5702Y-1036D01*
G01X-5757Y-1057D01*
G01X-5783Y-1100D01*
G01X-5790Y-1172D01*
G01X-5778Y-1243D01*
G01X-5741Y-1309D01*
G01X-5676Y-1372D01*
G01X-5581Y-1436D01*
G01X-5494Y-1484D01*
G01X-5409Y-1523D01*
G01X-5338Y-1549D01*
G01X-5289Y-1559D01*
G01X-5269Y-1561D01*
G01X-5247Y-1568D01*
G01X-5223Y-1579D01*
G01X-5198Y-1595D01*
G01X-5171Y-1615D01*
G01X-5143Y-1640D01*
G01X-5112Y-1670D01*
G01X-5080Y-1703D01*
G01X-5045Y-1741D01*
G01X-5010Y-1785D01*
G01X-4972Y-1832D01*
G01X-4933Y-1883D01*
G01X-4893Y-1940D01*
G01X-4850Y-2000D01*
G01X-4806Y-2065D01*
G01X-4759Y-2135D01*
G01X-4712Y-2209D01*
G01X-4662Y-2287D01*
G01X-4611Y-2370D01*
G01X-4558Y-2458D01*
G01X-4513Y-2532D01*
G01X-4469Y-2602D01*
G01X-4427Y-2667D01*
G01X-4386Y-2727D01*
G01X-4345Y-2784D01*
G01X-4306Y-2836D01*
G01X-4267Y-2884D01*
G01X-4228Y-2928D01*
G01X-4188Y-2969D01*
G01X-4149Y-3005D01*
G01X-4109Y-3039D01*
G01X-4068Y-3069D01*
G01X-4026Y-3097D01*
G01X-3982Y-3122D01*
G01X-3938Y-3143D01*
G01X-3891Y-3163D01*
G01X-3843Y-3180D01*
G01X-3792Y-3195D01*
G01X-3738Y-3208D01*
G01X-3682Y-3220D01*
G01X-3623Y-3229D01*
G01X-3560Y-3237D01*
G01X-3494Y-3244D01*
G01X-3424Y-3250D01*
G01X-3327Y-3256D01*
G01X-3245Y-3257D01*
G01X-3175Y-3254D01*
G01X-3115Y-3246D01*
G01X-3061Y-3232D01*
G01X-3011Y-3211D01*
G01X-2963Y-3184D01*
G01X-2912Y-3149D01*
G01X-2854Y-3109D01*
G01X-2796Y-3075D01*
G01X-2736Y-3046D01*
G01X-2676Y-3022D01*
G01X-2617Y-3003D01*
G01X-2557Y-2990D01*
G01X-2499Y-2981D01*
G01X-2442Y-2979D01*
G01X-2388Y-2982D01*
G01X-2336Y-2991D01*
G01X-2287Y-3005D01*
G01X-2241Y-3026D01*
G01X-2185Y-3066D01*
G01X-2133Y-3124D01*
G01X-2085Y-3193D01*
G01X-2046Y-3267D01*
G01X-2018Y-3340D01*
G01X-2004Y-3406D01*
G01X-2006Y-3458D01*
G01X-2027Y-3490D01*
G01X-2055Y-3518D01*
G01X-2092Y-3569D01*
G01X-2134Y-3636D01*
G01X-2175Y-3711D01*
G01X-2210Y-3772D01*
G01X-2252Y-3832D01*
G01X-2300Y-3890D01*
G01X-2353Y-3946D01*
G01X-2410Y-3998D01*
G01X-2469Y-4046D01*
G01X-2530Y-4089D01*
G01X-2591Y-4126D01*
G01X-2652Y-4156D01*
G01X-2710Y-4179D01*
G01X-2766Y-4193D01*
G01X-2817Y-4198D01*
G01X-2853Y-4202D01*
G01X-2898Y-4212D01*
G01X-2949Y-4228D01*
G01X-3005Y-4249D01*
G01X-3065Y-4274D01*
G01X-3125Y-4304D01*
G01X-3185Y-4336D01*
G01X-3243Y-4371D01*
G01X-3295Y-4402D01*
G01X-3351Y-4432D01*
G01X-3409Y-4461D01*
G01X-3469Y-4489D01*
G01X-3530Y-4514D01*
G01X-3593Y-4538D01*
G01X-3656Y-4560D01*
G01X-3719Y-4581D01*
G01X-3783Y-4599D01*
G01X-3845Y-4615D01*
G01X-3906Y-4629D01*
G01X-3965Y-4641D01*
G01X-4023Y-4651D01*
G01X-4078Y-4658D01*
G01X-4130Y-4662D01*
G01X-4178Y-4664D01*
G01X-4222Y-4664D01*
G01X-4262Y-4661D01*
G01X-4297Y-4655D01*
G01X-4327Y-4646D01*
G01X-4350Y-4634D01*
G01X-4368Y-4619D01*
G01X-4379Y-4601D01*
G01X-4383Y-4580D01*
G01X-4396Y-4538D01*
G01X-4440Y-4511D01*
G01X-4521Y-4496D01*
G01X-4643Y-4492D01*
G01X-4746Y-4495D01*
G01X-4836Y-4505D01*
G01X-4901Y-4520D01*
G01X-4932Y-4538D01*
G01X-4941Y-4600D01*
G01X-4911Y-4664D01*
G01X-4860Y-4706D01*
G01X-4806Y-4705D01*
G01X-4780Y-4697D01*
G01X-4754Y-4705D01*
G01X-4731Y-4724D01*
G01X-4713Y-4755D01*
G01X-4700Y-4779D01*
G01X-4678Y-4798D01*
G01X-4645Y-4810D01*
G01X-4599Y-4818D01*
G01X-4537Y-4821D01*
G01X-4457Y-4820D01*
G01X-4355Y-4814D01*
G01X-4229Y-4804D01*
G01X-4113Y-4795D01*
G01X-4018Y-4789D01*
G01X-3943Y-4788D01*
G01X-3886Y-4789D01*
G01X-3847Y-4795D01*
G01X-3823Y-4804D01*
G01X-3815Y-4817D01*
G01X-3820Y-4835D01*
G01X-3833Y-4863D01*
G01X-3834Y-4887D01*
G01X-3826Y-4907D01*
G01X-3807Y-4922D01*
G01X-3779Y-4933D01*
G01X-3742Y-4939D01*
G01X-3698Y-4940D01*
G01X-3646Y-4937D01*
G01X-3588Y-4929D01*
G01X-3523Y-4916D01*
G01X-3453Y-4899D01*
G01X-3378Y-4876D01*
G01X-3312Y-4856D01*
G01X-3245Y-4839D01*
G01X-3179Y-4825D01*
G01X-3115Y-4816D01*
G01X-3055Y-4810D01*
G01X-3000Y-4808D01*
G01X-2950Y-4810D01*
G01X-2909Y-4816D01*
G01X-2862Y-4823D01*
G01X-2815Y-4825D01*
G01X-2768Y-4821D01*
G01X-2717Y-4811D01*
G01X-2664Y-4793D01*
G01X-2607Y-4769D01*
G01X-2545Y-4738D01*
G01X-2475Y-4699D01*
G01X-2373Y-4635D01*
G01X-2290Y-4574D01*
G01X-2233Y-4523D01*
G01X-2212Y-4489D01*
G01X-2202Y-4467D01*
G01X-2172Y-4450D01*
G01X-2129Y-4437D01*
G01X-2075Y-4433D01*
G01X-2019Y-4428D01*
G01X-1956Y-4413D01*
G01X-1887Y-4391D01*
G01X-1815Y-4362D01*
G01X-1742Y-4327D01*
G01X-1670Y-4288D01*
G01X-1602Y-4247D01*
G01X-1540Y-4205D01*
G01X-1487Y-4162D01*
G01X-1444Y-4120D01*
G01X-1414Y-4082D01*
G01X-1400Y-4047D01*
G01X-1386Y-3996D01*
G01X-1363Y-3942D01*
G01X-1335Y-3889D01*
G01X-1303Y-3847D01*
G01X-1279Y-3814D01*
G01X-1255Y-3770D01*
G01X-1231Y-3719D01*
G01X-1209Y-3660D01*
G01X-1186Y-3596D01*
G01X-1166Y-3528D01*
G01X-1147Y-3457D01*
G01X-1131Y-3385D01*
G01X-1118Y-3315D01*
G01X-1107Y-3246D01*
G01X-1101Y-3181D01*
G01X-1098Y-3122D01*
G01X-1102Y-3082D01*
G01X-1113Y-3034D01*
G01X-1130Y-2978D01*
G01X-1153Y-2918D01*
G01X-1181Y-2855D01*
G01X-1212Y-2791D01*
G01X-1247Y-2727D01*
G01X-1284Y-2666D01*
G01X-1337Y-2589D01*
G01X-1386Y-2523D01*
G01X-1433Y-2469D01*
G01X-1479Y-2425D01*
G01X-1528Y-2390D01*
G01X-1580Y-2360D01*
G01X-1637Y-2337D01*
G01X-1701Y-2317D01*
G01X-1759Y-2303D01*
G01X-1817Y-2293D01*
G01X-1876Y-2286D01*
G01X-1934Y-2282D01*
G01X-1993Y-2282D01*
G01X-2051Y-2284D01*
G01X-2109Y-2290D01*
G01X-2166Y-2299D01*
G01X-2222Y-2310D01*
G01X-2276Y-2325D01*
G01X-2329Y-2343D01*
G01X-2380Y-2363D01*
G01X-2429Y-2387D01*
G01X-2475Y-2412D01*
G01X-2518Y-2441D01*
G01X-2559Y-2472D01*
G01X-2616Y-2518D01*
G01X-2674Y-2561D01*
G01X-2732Y-2599D01*
G01X-2792Y-2635D01*
G01X-2852Y-2667D01*
G01X-2913Y-2696D01*
G01X-2975Y-2722D01*
G01X-3037Y-2744D01*
G01X-3099Y-2762D01*
G01X-3163Y-2777D01*
G01X-3226Y-2789D01*
G01X-3290Y-2796D01*
G01X-3354Y-2801D01*
G01X-3418Y-2802D01*
G01X-3483Y-2799D01*
G01X-3547Y-2792D01*
G01X-3620Y-2782D01*
G01X-3686Y-2768D01*
G01X-3746Y-2752D01*
G01X-3799Y-2734D01*
G01X-3845Y-2714D01*
G01X-3884Y-2691D01*
G01X-3916Y-2666D01*
G01X-3941Y-2640D01*
G01X-3967Y-2599D01*
G01X-3992Y-2550D01*
G01X-4016Y-2492D01*
G01X-4038Y-2430D01*
G01X-4058Y-2364D01*
G01X-4075Y-2298D01*
G01X-4088Y-2233D01*
G01X-4098Y-2172D01*
G01X-4104Y-2116D01*
G01X-4104Y-2070D01*
G01X-4099Y-2033D01*
G01X-4088Y-2010D01*
G01X-4051Y-1990D01*
G01X-3980Y-1970D01*
G01X-3886Y-1953D01*
G01X-3779Y-1941D01*
G01X-3722Y-1935D01*
G01X-3664Y-1927D01*
G01X-3607Y-1917D01*
G01X-3551Y-1905D01*
G01X-3500Y-1893D01*
G01X-3454Y-1879D01*
G01X-3415Y-1865D01*
G01X-3384Y-1852D01*
G01X-3355Y-1831D01*
G01X-3324Y-1802D01*
G01X-3292Y-1765D01*
G01X-3258Y-1720D01*
G01X-3224Y-1669D01*
G01X-3190Y-1613D01*
G01X-3157Y-1554D01*
G01X-3125Y-1491D01*
G01X-3094Y-1427D01*
G01X-3066Y-1362D01*
G01X-3041Y-1298D01*
G01X-3019Y-1236D01*
G01X-3001Y-1176D01*
G01X-2987Y-1120D01*
G01X-2978Y-1069D01*
G01X-2975Y-1025D01*
G01X-2977Y-993D01*
G01X-2984Y-959D01*
G01X-2994Y-921D01*
G01X-3008Y-880D01*
G01X-3026Y-837D01*
G01X-3049Y-790D01*
G01X-3074Y-742D01*
G01X-3103Y-690D01*
G01X-3135Y-637D01*
G01X-3171Y-583D01*
G01X-3211Y-526D01*
G01X-3253Y-468D01*
G01X-3298Y-408D01*
G01X-3347Y-347D01*
G01X-3398Y-285D01*
G01X-3452Y-222D01*
G01X-3517Y-139D01*
G01X-3571Y-54D01*
G01X-3607Y22D01*
G01X-3620Y80D01*
G01X-3632Y137D01*
G01X-3665Y211D01*
G01X-3714Y293D01*
G01X-3772Y372D01*
G01X-3820Y431D01*
G01X-3855Y485D01*
G01X-3880Y534D01*
G01X-3894Y577D01*
G01X-3897Y614D01*
G01X-3889Y646D01*
G01X-3869Y672D01*
G01X-3839Y692D01*
G01X-3799Y707D01*
G01X-3748Y716D01*
G01X-3685Y719D01*
G01X-3612Y716D01*
G01X-3535Y709D01*
G01X-3473Y698D01*
G01X-3420Y679D01*
G01X-3373Y650D01*
G01X-3327Y608D01*
G01X-3278Y548D01*
G01X-3223Y468D01*
G01X-3157Y365D01*
G01X-3133Y329D01*
G01X-3105Y289D01*
G01X-3075Y245D01*
G01X-3043Y200D01*
G01X-3008Y151D01*
G01X-2970Y101D01*
G01X-2931Y48D01*
G01X-2889Y-6D01*
G01X-2846Y-61D01*
G01X-2801Y-119D01*
G01X-2755Y-178D01*
G01X-2708Y-237D01*
G01X-2659Y-297D01*
G01X-2610Y-358D01*
G01X-2560Y-419D01*
G01X-2511Y-480D01*
G01X-2409Y-600D01*
G01X-2360Y-660D01*
G01X-2310Y-718D01*
G01X-2261Y-776D01*
G01X-2212Y-832D01*
G01X-2165Y-886D01*
G01X-2118Y-939D01*
G01X-2073Y-990D01*
G01X-2029Y-1038D01*
G01X-1987Y-1084D01*
G01X-1947Y-1127D01*
G01X-1910Y-1167D01*
G01X-1874Y-1203D01*
G01X-1841Y-1237D01*
G01X-1810Y-1267D01*
G01X-1783Y-1293D01*
G01X-1758Y-1315D01*
G01X-1736Y-1332D01*
G01X-1719Y-1345D01*
G01X-1664Y-1377D01*
G01X-1610Y-1403D01*
G01X-1555Y-1420D01*
G01X-1498Y-1432D01*
G01X-1440Y-1436D01*
G01X-1380Y-1433D01*
G01X-1317Y-1422D01*
G01X-1252Y-1405D01*
G01X-1183Y-1380D01*
G01X-1111Y-1348D01*
G01X-1034Y-1308D01*
G01X-953Y-1261D01*
G01X-893Y-1223D01*
G01X-837Y-1185D01*
G01X-785Y-1145D01*
G01X-736Y-1104D01*
G01X-691Y-1063D01*
G01X-650Y-1020D01*
G01X-613Y-977D01*
G01X-580Y-933D01*
G01X-550Y-888D01*
G01X-524Y-842D01*
G01X-503Y-796D01*
G01X-485Y-749D01*
G01X-471Y-702D01*
G01X-461Y-653D01*
G01X-455Y-604D01*
G01X-453Y-555D01*
G01X-455Y-509D01*
G01X-462Y-461D01*
G01X-472Y-410D01*
G01X-487Y-358D01*
G01X-505Y-304D01*
G01X-527Y-249D01*
G01X-552Y-195D01*
G01X-580Y-140D01*
G01X-611Y-85D01*
G01X-644Y-31D01*
G01X-679Y20D01*
G01X-716Y71D01*
G01X-755Y118D01*
G01X-795Y164D01*
G01X-837Y206D01*
G01X-879Y245D01*
G01X-978Y329D01*
G01X-1066Y406D01*
G01X-1145Y476D01*
G01X-1213Y539D01*
G01X-1273Y596D01*
G01X-1323Y650D01*
G01X-1367Y699D01*
G01X-1403Y745D01*
G01X-1433Y789D01*
G01X-1456Y832D01*
G01X-1475Y874D01*
G01X-1488Y916D01*
G01X-1498Y960D01*
G01X-1504Y1005D01*
G01X-1508Y1054D01*
G01X-1509Y1105D01*
G01X-1507Y1178D01*
G01X-1502Y1247D01*
G01X-1494Y1311D01*
G01X-1482Y1371D01*
G01X-1469Y1425D01*
G01X-1453Y1472D01*
G01X-1436Y1512D01*
G01X-1416Y1544D01*
G01X-1396Y1568D01*
G01X-1375Y1581D01*
G01X-1352Y1584D01*
G01X-1330Y1576D01*
G01X-1308Y1548D01*
G01X-1290Y1497D01*
G01X-1278Y1430D01*
G01X-1274Y1354D01*
G01X-1271Y1304D01*
G01X-1262Y1248D01*
G01X-1249Y1187D01*
G01X-1231Y1124D01*
G01X-1210Y1058D01*
G01X-1184Y991D01*
G01X-1156Y924D01*
G01X-1125Y857D01*
G01X-1092Y792D01*
G01X-1058Y730D01*
G01X-1022Y671D01*
G01X-986Y617D01*
G01X-949Y567D01*
G01X-912Y525D01*
G01X-877Y490D01*
G01X-842Y463D01*
G01X-780Y426D01*
G01X-722Y399D01*
G01X-669Y383D01*
G01X-618Y376D01*
G01X-571Y381D01*
G01X-527Y397D01*
G01X-485Y423D01*
G01X-445Y461D01*
G01X-406Y510D01*
G01X-369Y571D01*
G01X-332Y643D01*
G01X-296Y728D01*
G01X-268Y793D01*
G01X-240Y852D01*
G01X-211Y904D01*
G01X-181Y950D01*
G01X-152Y988D01*
G01X-123Y1020D01*
G01X-95Y1045D01*
G01X-67Y1063D01*
G01X-40Y1074D01*
G01X-14Y1079D01*
G01X10Y1077D01*
G01X32Y1067D01*
G01X54Y1051D01*
G01X73Y1028D01*
G01X89Y998D01*
G01X104Y961D01*
G01X115Y918D01*
G01X124Y867D01*
G01X130Y809D01*
G01X132Y745D01*
G01X133Y703D01*
G01X135Y663D01*
G01X140Y624D01*
G01X146Y587D01*
G01X155Y551D01*
G01X167Y515D01*
G01X181Y479D01*
G01X199Y443D01*
G01X220Y405D01*
G01X245Y367D01*
G01X273Y328D01*
G01X306Y287D01*
G01X344Y243D01*
G01X386Y198D01*
G01X433Y149D01*
G01X485Y97D01*
G01X543Y41D01*
G01X607Y-18D01*
G01X676Y-82D01*
G01X752Y-151D01*
G01X818Y-211D01*
G01X881Y-270D01*
G01X941Y-327D01*
G01X998Y-381D01*
G01X1050Y-433D01*
G01X1097Y-481D01*
G01X1138Y-524D01*
G01X1173Y-562D01*
G01X1202Y-595D01*
G01X1224Y-622D01*
G01X1237Y-642D01*
G01X1243Y-654D01*
G01X1261Y-697D01*
G01X1307Y-770D01*
G01X1374Y-861D01*
G01X1456Y-961D01*
G01X1500Y-1011D01*
G01X1545Y-1057D01*
G01X1588Y-1099D01*
G01X1633Y-1136D01*
G01X1676Y-1169D01*
G01X1721Y-1198D01*
G01X1765Y-1223D01*
G01X1809Y-1244D01*
G01X1855Y-1261D01*
G01X1901Y-1274D01*
G01X1948Y-1283D01*
G01X1996Y-1287D01*
G01X2045Y-1288D01*
G01X2095Y-1285D01*
G01X2147Y-1278D01*
G01X2200Y-1267D01*
G01X2254Y-1253D01*
G01X2311Y-1234D01*
G01X2370Y-1212D01*
G01X2430Y-1186D01*
G01X2475Y-1164D01*
G01X2522Y-1139D01*
G01X2572Y-1110D01*
G01X2623Y-1078D01*
G01X2675Y-1044D01*
G01X2726Y-1008D01*
G01X2778Y-970D01*
G01X2828Y-932D01*
G01X2875Y-893D01*
G01X2920Y-854D01*
G01X2962Y-816D01*
G01X3000Y-778D01*
G01X3053Y-723D01*
G01X3098Y-673D01*
G01X3136Y-627D01*
G01X3169Y-585D01*
G01X3196Y-544D01*
G01X3218Y-503D01*
G01X3235Y-462D01*
G01X3250Y-419D01*
G01X3261Y-372D01*
G01X3269Y-321D01*
G01X3277Y-264D01*
G01X3283Y-200D01*
G01X3289Y-147D01*
G01X3298Y-89D01*
G01X3311Y-29D01*
G01X3327Y34D01*
G01X3347Y101D01*
G01X3369Y170D01*
G01X3392Y239D01*
G01X3419Y310D01*
G01X3447Y382D01*
G01X3476Y452D01*
G01X3507Y522D01*
G01X3538Y590D01*
G01X3570Y657D01*
G01X3603Y720D01*
G01X3636Y781D01*
G01X3668Y837D01*
G01X3700Y889D01*
G01X3731Y936D01*
G01X3762Y977D01*
G01X3791Y1013D01*
G01X3818Y1041D01*
G01X3844Y1062D01*
G01X3867Y1075D01*
G01X3888Y1080D01*
G01X3934Y1074D01*
G01X3979Y1057D01*
G01X4022Y1031D01*
G01X4062Y995D01*
G01X4100Y952D01*
G01X4134Y900D01*
G01X4164Y842D01*
G01X4189Y778D01*
G01X4210Y710D01*
G01X4225Y637D01*
G01X4235Y560D01*
G01X4238Y481D01*
G01X4240Y398D01*
G01X4244Y323D01*
G01X4252Y256D01*
G01X4264Y195D01*
G01X4279Y141D01*
G01X4300Y92D01*
G01X4325Y48D01*
G01X4354Y8D01*
G01X4390Y-27D01*
G01X4430Y-60D01*
G01X4477Y-91D01*
G01X4530Y-121D01*
G01X4582Y-145D01*
G01X4636Y-165D01*
G01X4692Y-181D01*
G01X4750Y-193D01*
G01X4810Y-201D01*
G01X4871Y-206D01*
G01X4932Y-206D01*
G01X4993Y-203D01*
G01X5055Y-197D01*
G01X5116Y-186D01*
G01X5176Y-173D01*
G01X5235Y-156D01*
G01X5292Y-136D01*
G01X5348Y-113D01*
G01X5402Y-86D01*
G01X5452Y-56D01*
G01X5500Y-24D01*
G01X5544Y10D01*
G01X5585Y49D01*
G01X5622Y90D01*
G01X5659Y134D01*
G01X5698Y179D01*
G01X5740Y224D01*
G01X5784Y268D01*
G01X5829Y312D01*
G01X5877Y356D01*
G01X5926Y400D01*
G01X5977Y443D01*
G01X6028Y485D01*
G01X6081Y526D01*
G01X6135Y567D01*
G01X6189Y607D01*
G01X6244Y645D01*
G01X6300Y682D01*
G01X6356Y717D01*
G01X6411Y751D01*
G01X6466Y783D01*
G01X6521Y814D01*
G01X6576Y842D01*
G01X6630Y869D01*
G01X6683Y893D01*
G01X6735Y915D01*
G01X6785Y934D01*
G01X6835Y952D01*
G01X6951Y989D01*
G01X7050Y1019D01*
G01X7134Y1042D01*
G01X7204Y1058D01*
G01X7263Y1067D01*
G01X7311Y1069D01*
G01X7352Y1064D01*
G01X7387Y1052D01*
G01X7417Y1033D01*
G01X7445Y1005D01*
G01X7472Y971D01*
G01X7501Y929D01*
G01X7553Y842D01*
G01X7568Y778D01*
G01X7545Y713D01*
G01X7482Y621D01*
G01X7449Y585D01*
G01X7405Y545D01*
G01X7350Y504D01*
G01X7285Y462D01*
G01X7213Y420D01*
G01X7133Y378D01*
G01X7048Y337D01*
G01X6960Y299D01*
G01X6874Y264D01*
G01X6793Y228D01*
G01X6718Y191D01*
G01X6648Y154D01*
G01X6583Y117D01*
G01X6523Y79D01*
G01X6468Y41D01*
G01X6419Y3D01*
G01X6374Y-36D01*
G01X6334Y-77D01*
G01X6299Y-118D01*
G01X6268Y-160D01*
G01X6242Y-204D01*
G01X6221Y-248D01*
G01X6205Y-294D01*
G01X6194Y-340D01*
G01X6186Y-389D01*
G01X6183Y-438D01*
G01X6185Y-489D01*
G01X6191Y-541D01*
G01X6202Y-596D01*
G01X6216Y-652D01*
G01X6235Y-710D01*
G01X6259Y-769D01*
G01X6282Y-821D01*
G01X6307Y-866D01*
G01X6332Y-901D01*
G01X6359Y-929D01*
G01X6389Y-949D01*
G01X6423Y-961D01*
G01X6460Y-966D01*
G01X6502Y-963D01*
G01X6550Y-952D01*
G01X6603Y-935D01*
G01X6664Y-911D01*
G01X6732Y-880D01*
G01X6811Y-850D01*
G01X6889Y-834D01*
G01X6963Y-832D01*
G01X7030Y-842D01*
G01X7087Y-864D01*
G01X7132Y-898D01*
G01X7160Y-942D01*
G01X7171Y-995D01*
G01X7168Y-1022D01*
G01X7160Y-1053D01*
G01X7147Y-1086D01*
G01X7129Y-1122D01*
G01X7106Y-1160D01*
G01X7079Y-1201D01*
G01X7048Y-1244D01*
G01X7014Y-1288D01*
G01X6975Y-1333D01*
G01X6934Y-1380D01*
G01X6889Y-1427D01*
G01X6842Y-1475D01*
G01X6792Y-1523D01*
G01X6740Y-1571D01*
G01X6685Y-1619D01*
G01X6629Y-1666D01*
G01X6571Y-1712D01*
G01X6512Y-1758D01*
G01X6452Y-1802D01*
G01X6391Y-1844D01*
G01X6319Y-1892D01*
G01X6249Y-1936D01*
G01X6181Y-1978D01*
G01X6115Y-2017D01*
G01X6050Y-2052D01*
G01X5987Y-2084D01*
G01X5926Y-2114D01*
G01X5866Y-2140D01*
G01X5808Y-2164D01*
G01X5752Y-2184D01*
G01X5696Y-2202D01*
G01X5642Y-2216D01*
G01X5588Y-2228D01*
G01X5537Y-2237D01*
G01X5485Y-2243D01*
G01X5436Y-2246D01*
G01X5386Y-2246D01*
G01X5338Y-2243D01*
G01X5290Y-2237D01*
G01X5243Y-2228D01*
G01X5197Y-2217D01*
G01X5151Y-2202D01*
G01X5105Y-2185D01*
G01X5060Y-2165D01*
G01X5015Y-2142D01*
G01X4971Y-2116D01*
G01X4927Y-2088D01*
G01X4882Y-2057D01*
G01X4841Y-2027D01*
G01X4802Y-2002D01*
G01X4764Y-1981D01*
G01X4725Y-1963D01*
G01X4685Y-1949D01*
G01X4642Y-1937D01*
G01X4594Y-1929D01*
G01X4540Y-1923D01*
G01X4480Y-1919D01*
G01X4411Y-1917D01*
G01X4332Y-1916D01*
G01X4241Y-1917D01*
G01X4133Y-1919D01*
G01X4036Y-1922D01*
G01X3949Y-1926D01*
G01X3871Y-1932D01*
G01X3802Y-1941D01*
G01X3740Y-1952D01*
G01X3685Y-1965D01*
G01X3634Y-1983D01*
G01X3589Y-2005D01*
G01X3547Y-2030D01*
G01X3507Y-2060D01*
G01X3469Y-2095D01*
G01X3432Y-2136D01*
G01X3394Y-2182D01*
G01X3355Y-2235D01*
G01X3313Y-2294D01*
G01X3253Y-2382D01*
G01X3207Y-2457D01*
G01X3173Y-2522D01*
G01X3151Y-2582D01*
G01X3137Y-2642D01*
G01X3133Y-2705D01*
G01X3135Y-2776D01*
G01X3143Y-2859D01*
G01X3175Y-3132D01*
G01X2943Y-3225D01*
G01X2869Y-3253D01*
G01X2800Y-3276D01*
G01X2734Y-3293D01*
G01X2673Y-3305D01*
G01X2616Y-3312D01*
G01X2563Y-3313D01*
G01X2515Y-3310D01*
G01X2471Y-3301D01*
G01X2433Y-3287D01*
G01X2399Y-3268D01*
G01X2370Y-3245D01*
G01X2346Y-3216D01*
G01X2327Y-3183D01*
G01X2313Y-3143D01*
G01X2305Y-3100D01*
G01X2303Y-3052D01*
G01X2300Y-2986D01*
G01X2293Y-2923D01*
G01X2279Y-2864D01*
G01X2261Y-2806D01*
G01X2238Y-2750D01*
G01X2209Y-2696D01*
G01X2174Y-2645D01*
G01X2135Y-2596D01*
G01X2089Y-2549D01*
G01X2038Y-2503D01*
G01X1982Y-2460D01*
G01X1919Y-2418D01*
G01X1864Y-2384D01*
G01X1811Y-2356D01*
G01X1760Y-2331D01*
G01X1710Y-2312D01*
G01X1661Y-2297D01*
G01X1612Y-2287D01*
G01X1564Y-2282D01*
G01X1514Y-2282D01*
G01X1464Y-2286D01*
G01X1413Y-2296D01*
G01X1359Y-2310D01*
G01X1302Y-2329D01*
G01X1244Y-2353D01*
G01X1181Y-2382D01*
G01X1115Y-2416D01*
G01X1044Y-2455D01*
G01X991Y-2487D01*
G01X940Y-2520D01*
G01X891Y-2556D01*
G01X843Y-2594D01*
G01X798Y-2635D01*
G01X755Y-2677D01*
G01X713Y-2721D01*
G01X674Y-2768D01*
G01X637Y-2816D01*
G01X602Y-2866D01*
G01X569Y-2918D01*
G01X538Y-2972D01*
G01X510Y-3028D01*
G01X484Y-3085D01*
G01X459Y-3144D01*
G01X437Y-3206D01*
G01X417Y-3269D01*
G01X399Y-3333D01*
G01X384Y-3400D01*
G01X371Y-3468D01*
G01X357Y-3555D01*
G01X345Y-3635D01*
G01X337Y-3709D01*
G01X331Y-3778D01*
G01X329Y-3842D01*
G01X331Y-3902D01*
G01X336Y-3960D01*
G01X345Y-4015D01*
G01X358Y-4069D01*
G01X375Y-4121D01*
G01X397Y-4174D01*
G01X423Y-4228D01*
G01X453Y-4283D01*
G01X488Y-4341D01*
G01X528Y-4402D01*
G01X573Y-4467D01*
G01X638Y-4559D01*
G01X685Y-4630D01*
G01X717Y-4687D01*
G01X733Y-4733D01*
G01X736Y-4775D01*
G01X726Y-4816D01*
G01X704Y-4863D01*
G01X672Y-4920D01*
G01X635Y-4981D01*
G01X593Y-5042D01*
G01X549Y-5103D01*
G01X503Y-5161D01*
G01X456Y-5216D01*
G01X409Y-5266D01*
G01X363Y-5312D01*
G01X320Y-5352D01*
G01X278Y-5384D01*
G01X241Y-5409D01*
G01X209Y-5424D01*
G01X182Y-5429D01*
G01X164Y-5422D01*
G01X142Y-5402D01*
G01X119Y-5370D01*
G01X94Y-5327D01*
G01X68Y-5275D01*
G01X42Y-5214D01*
G01X17Y-5146D01*
G01X-7Y-5072D01*
G01X-37Y-4981D01*
G01X-65Y-4900D01*
G01X-94Y-4827D01*
G01X-123Y-4763D01*
G01X-153Y-4708D01*
G01X-185Y-4660D01*
G01X-219Y-4620D01*
G01X-256Y-4586D01*
G01X-296Y-4559D01*
G01X-339Y-4538D01*
G01X-387Y-4522D01*
G01X-439Y-4512D01*
G01X-496Y-4506D01*
G01X-559Y-4505D01*
G01X-629Y-4508D01*
G01X-705Y-4515D01*
G01X-805Y-4526D01*
G01X-894Y-4538D01*
G01X-971Y-4553D01*
G01X-1038Y-4569D01*
G01X-1096Y-4589D01*
G01X-1145Y-4611D01*
G01X-1188Y-4638D01*
G01X-1224Y-4668D01*
G01X-1255Y-4705D01*
G01X-1281Y-4746D01*
G01X-1304Y-4793D01*
G01X-1325Y-4846D01*
G01X-1341Y-4886D01*
G01X-1364Y-4930D01*
G01X-1391Y-4976D01*
G01X-1422Y-5024D01*
G01X-1456Y-5070D01*
G01X-1492Y-5115D01*
G01X-1529Y-5157D01*
G01X-1566Y-5194D01*
G01X-1620Y-5249D01*
G01X-1664Y-5303D01*
G01X-1698Y-5359D01*
G01X-1722Y-5414D01*
G01X-1737Y-5469D01*
G01X-1741Y-5525D01*
G01X-1736Y-5581D01*
G01X-1721Y-5639D01*
G01X-1696Y-5696D01*
G01X-1661Y-5755D01*
G01X-1616Y-5815D01*
G01X-1562Y-5876D01*
G01X-1380Y-6063D01*
G01X-1508Y-6192D01*
G01X-1577Y-6251D01*
G01X-1643Y-6284D01*
G01X-1714Y-6295D01*
G01X-1793Y-6284D01*
G01X-1860Y-6269D01*
G01X-1929Y-6253D01*
G01X-1990Y-6240D01*
G01X-2037Y-6231D01*
G01X-2083Y-6219D01*
G01X-2145Y-6197D01*
G01X-2214Y-6169D01*
G01X-2282Y-6138D01*
G01X-2329Y-6116D01*
G01X-2371Y-6101D01*
G01X-2411Y-6092D01*
G01X-2451Y-6090D01*
G01X-2494Y-6094D01*
G01X-2542Y-6106D01*
G01X-2596Y-6123D01*
G01X-2661Y-6148D01*
G01X-2748Y-6187D01*
G01X-2823Y-6229D01*
G01X-2877Y-6268D01*
G01X-2903Y-6300D01*
G01X-2906Y-6315D01*
G01X-2905Y-6330D01*
G01X-2899Y-6343D01*
G01X-2887Y-6355D01*
G01X-2870Y-6366D01*
G01X-2847Y-6375D01*
G01X-2817Y-6385D01*
G01X-2781Y-6392D01*
G01X-2739Y-6399D01*
G01X-2688Y-6404D01*
G01X-2630Y-6409D01*
G01X-2565Y-6413D01*
G01X-2491Y-6415D01*
G01X-2408Y-6418D01*
G01X-2317Y-6419D01*
G01X-2216Y-6420D01*
G01X-2106Y-6420D01*
G01X-1985Y-6419D01*
G01X-1855Y-6417D01*
G01X-1714Y-6414D01*
G01X-775Y-6398D01*
G01X-791Y-6255D01*
G01X-798Y-6222D01*
G01X-809Y-6184D01*
G01X-826Y-6142D01*
G01X-847Y-6096D01*
G01X-871Y-6050D01*
G01X-898Y-6003D01*
G01X-927Y-5958D01*
G01X-958Y-5915D01*
G01X-1004Y-5853D01*
G01X-1039Y-5802D01*
G01X-1061Y-5761D01*
G01X-1072Y-5726D01*
G01X-1073Y-5693D01*
G01X-1063Y-5659D01*
G01X-1043Y-5621D01*
G01X-1015Y-5576D01*
G01X-969Y-5516D01*
G01X-914Y-5457D01*
G01X-856Y-5406D01*
G01X-801Y-5369D01*
G01X-761Y-5351D01*
G01X-724Y-5340D01*
G01X-689Y-5337D01*
G01X-657Y-5342D01*
G01X-627Y-5355D01*
G01X-598Y-5376D01*
G01X-572Y-5406D01*
G01X-547Y-5445D01*
G01X-524Y-5492D01*
G01X-501Y-5549D01*
G01X-481Y-5615D01*
G01X-460Y-5691D01*
G01X-441Y-5753D01*
G01X-416Y-5815D01*
G01X-385Y-5875D01*
G01X-348Y-5935D01*
G01X-307Y-5994D01*
G01X-262Y-6050D01*
G01X-213Y-6103D01*
G01X-162Y-6153D01*
G01X-108Y-6199D01*
G01X-53Y-6241D01*
G01X3Y-6277D01*
G01X59Y-6309D01*
G01X117Y-6334D01*
G01X173Y-6352D01*
G01X228Y-6364D01*
G01X281Y-6368D01*
G01X323Y-6366D01*
G01X366Y-6361D01*
G01X409Y-6351D01*
G01X453Y-6338D01*
G01X496Y-6322D01*
G01X540Y-6302D01*
G01X584Y-6279D01*
G01X627Y-6252D01*
G01X671Y-6223D01*
G01X714Y-6191D01*
G01X757Y-6156D01*
G01X800Y-6118D01*
G01X842Y-6077D01*
G01X883Y-6034D01*
G01X924Y-5989D01*
G01X964Y-5941D01*
G01X1003Y-5891D01*
G01X1041Y-5838D01*
G01X1078Y-5784D01*
G01X1114Y-5728D01*
G01X1148Y-5670D01*
G01X1181Y-5610D01*
G01X1212Y-5548D01*
G01X1242Y-5485D01*
G01X1270Y-5421D01*
G01X1297Y-5355D01*
G01X1321Y-5289D01*
G01X1344Y-5221D01*
G01X1365Y-5151D01*
G01X1384Y-5090D01*
G01X1397Y-5036D01*
G01X1407Y-4988D01*
G01X1413Y-4943D01*
G01X1415Y-4901D01*
G01X1413Y-4858D01*
G01X1407Y-4813D01*
G01X1396Y-4764D01*
G01X1382Y-4710D01*
G01X1363Y-4647D01*
G01X1341Y-4575D01*
G01X1322Y-4509D01*
G01X1306Y-4443D01*
G01X1292Y-4379D01*
G01X1282Y-4315D01*
G01X1275Y-4252D01*
G01X1272Y-4189D01*
G01X1270Y-4127D01*
G01X1273Y-4064D01*
G01X1279Y-4002D01*
G01X1287Y-3941D01*
G01X1299Y-3879D01*
G01X1314Y-3818D01*
G01X1332Y-3756D01*
G01X1354Y-3693D01*
G01X1379Y-3631D01*
G01X1406Y-3568D01*
G01X1436Y-3511D01*
G01X1467Y-3465D01*
G01X1499Y-3428D01*
G01X1533Y-3404D01*
G01X1567Y-3389D01*
G01X1602Y-3385D01*
G01X1638Y-3391D01*
G01X1675Y-3409D01*
G01X1712Y-3437D01*
G01X1750Y-3475D01*
G01X1788Y-3524D01*
G01X1864Y-3642D01*
G01X1905Y-3694D01*
G01X1949Y-3740D01*
G01X1996Y-3779D01*
G01X2047Y-3813D01*
G01X2100Y-3840D01*
G01X2157Y-3861D01*
G01X2217Y-3876D01*
G01X2281Y-3884D01*
G01X2348Y-3887D01*
G01X2419Y-3883D01*
G01X2493Y-3873D01*
G01X2563Y-3864D01*
G01X2625Y-3860D01*
G01X2680Y-3863D01*
G01X2727Y-3872D01*
G01X2768Y-3889D01*
G01X2802Y-3913D01*
G01X2830Y-3945D01*
G01X2852Y-3984D01*
G01X2869Y-4031D01*
G01X2880Y-4087D01*
G01X2887Y-4152D01*
G01X2889Y-4226D01*
G01X2887Y-4288D01*
G01X2882Y-4345D01*
G01X2873Y-4397D01*
G01X2858Y-4443D01*
G01X2839Y-4486D01*
G01X2814Y-4525D01*
G01X2782Y-4562D01*
G01X2744Y-4597D01*
G01X2698Y-4631D01*
G01X2644Y-4664D01*
G01X2582Y-4698D01*
G01X2511Y-4733D01*
G01X2470Y-4755D01*
G01X2427Y-4784D01*
G01X2383Y-4819D01*
G01X2337Y-4859D01*
G01X2291Y-4905D01*
G01X2244Y-4954D01*
G01X2198Y-5006D01*
G01X2153Y-5060D01*
G01X2111Y-5116D01*
G01X2071Y-5172D01*
G01X2034Y-5228D01*
G01X2001Y-5283D01*
G01X1973Y-5336D01*
G01X1949Y-5388D01*
G01X1931Y-5435D01*
G01X1920Y-5479D01*
G01X1913Y-5516D01*
G01X1903Y-5561D01*
G01X1892Y-5613D01*
G01X1880Y-5670D01*
G01X1867Y-5730D01*
G01X1854Y-5792D01*
G01X1840Y-5853D01*
G01X1827Y-5911D01*
G01X1814Y-5973D01*
G01X1802Y-6029D01*
G01X1792Y-6080D01*
G01X1784Y-6127D01*
G01X1779Y-6170D01*
G01X1777Y-6208D01*
G01X1778Y-6242D01*
G01X1784Y-6272D01*
G01X1793Y-6299D01*
G01X1807Y-6323D01*
G01X1826Y-6343D01*
G01X1850Y-6361D01*
G01X1880Y-6376D01*
G01X1915Y-6389D01*
G01X1957Y-6399D01*
G01X2006Y-6407D01*
G01X2061Y-6413D01*
G01X2124Y-6419D01*
G01X2195Y-6422D01*
G01X2274Y-6424D01*
G01X2361Y-6426D01*
G01X2457Y-6427D01*
G01X3513Y-6427D01*
G01X3706Y-6255D01*
G01X3750Y-6219D01*
G01X3799Y-6185D01*
G01X3853Y-6152D01*
G01X3909Y-6122D01*
G01X3966Y-6095D01*
G01X4022Y-6073D01*
G01X4077Y-6056D01*
G01X4127Y-6045D01*
G01X4206Y-6027D01*
G01X4275Y-6001D01*
G01X4335Y-5968D01*
G01X4384Y-5929D01*
G01X4422Y-5883D01*
G01X4450Y-5830D01*
G01X4467Y-5771D01*
G01X4473Y-5706D01*
G01X4479Y-5683D01*
G01X4495Y-5650D01*
G01X4521Y-5610D01*
G01X4555Y-5562D01*
G01X4596Y-5508D01*
G01X4643Y-5451D01*
G01X4695Y-5391D01*
G01X4751Y-5331D01*
G01X4810Y-5269D01*
G01X4868Y-5206D01*
G01X4925Y-5141D01*
G01X4979Y-5079D01*
G01X5030Y-5020D01*
G01X5073Y-4966D01*
G01X5110Y-4918D01*
G01X5137Y-4881D01*
G01X5173Y-4830D01*
G01X5206Y-4792D01*
G01X5244Y-4764D01*
G01X5289Y-4746D01*
G01X5349Y-4736D01*
G01X5427Y-4732D01*
G01X5531Y-4734D01*
G01X5665Y-4738D01*
G01X5779Y-4744D01*
G01X5872Y-4751D01*
G01X5947Y-4760D01*
G01X6004Y-4772D01*
G01X6046Y-4786D01*
G01X6076Y-4804D01*
G01X6093Y-4826D01*
G01X6103Y-4853D01*
G01X6107Y-4890D01*
G01X6102Y-4926D01*
G01X6086Y-4961D01*
G01X6056Y-4998D01*
G01X6012Y-5039D01*
G01X5950Y-5087D01*
G01X5867Y-5144D01*
G01X5763Y-5213D01*
G01X5721Y-5242D01*
G01X5680Y-5277D01*
G01X5639Y-5315D01*
G01X5599Y-5357D01*
G01X5561Y-5403D01*
G01X5523Y-5452D01*
G01X5488Y-5503D01*
G01X5454Y-5555D01*
G01X5423Y-5609D01*
G01X5394Y-5664D01*
G01X5368Y-5720D01*
G01X5344Y-5775D01*
G01X5323Y-5830D01*
G01X5306Y-5884D01*
G01X5292Y-5937D01*
G01X5282Y-5988D01*
G01X5276Y-6037D01*
G01X5275Y-6082D01*
G01X5277Y-6124D01*
G01X5285Y-6163D01*
G01X5301Y-6217D01*
G01X5317Y-6259D01*
G01X5337Y-6288D01*
G01X5361Y-6309D01*
G01X5393Y-6321D01*
G01X5436Y-6326D01*
G01X5492Y-6326D01*
G01X5563Y-6322D01*
G01X5614Y-6318D01*
G01X5673Y-6313D01*
G01X5736Y-6309D01*
G01X5802Y-6304D01*
G01X5936Y-6294D01*
G01X5998Y-6290D01*
G01X6056Y-6285D01*
G01X6164Y-6277D01*
G01X6263Y-6270D01*
G01X6341Y-6264D01*
G01X6389Y-6259D01*
G01X6425Y-6240D01*
G01X6473Y-6195D01*
G01X6527Y-6130D01*
G01X6580Y-6052D01*
G01X6620Y-5980D01*
G01X6647Y-5910D01*
G01X6662Y-5844D01*
G01X6666Y-5786D01*
G01X6658Y-5737D01*
G01X6638Y-5697D01*
G01X6607Y-5670D01*
G01X6563Y-5658D01*
G01X6504Y-5655D01*
G01X6442Y-5656D01*
G01X6379Y-5661D01*
G01X6318Y-5669D01*
G01X6261Y-5680D01*
G01X6210Y-5694D01*
G01X6169Y-5710D01*
G01X6140Y-5728D01*
G01X6101Y-5746D01*
G01X6057Y-5745D01*
G01X6013Y-5729D01*
G01X5970Y-5700D01*
G01X5932Y-5661D01*
G01X5904Y-5615D01*
G01X5889Y-5565D01*
G01X5889Y-5514D01*
G01X5900Y-5485D01*
G01X5921Y-5455D01*
G01X5953Y-5426D01*
G01X5996Y-5396D01*
G01X6051Y-5366D01*
G01X6118Y-5334D01*
G01X6199Y-5302D01*
G01X6292Y-5267D01*
G01X6363Y-5242D01*
G01X6430Y-5215D01*
G01X6493Y-5187D01*
G01X6551Y-5158D01*
G01X6606Y-5128D01*
G01X6656Y-5098D01*
G01X6702Y-5067D01*
G01X6743Y-5034D01*
G01X6781Y-5001D01*
G01X6814Y-4967D01*
G01X6844Y-4932D01*
G01X6869Y-4895D01*
G01X6889Y-4858D01*
G01X6906Y-4820D01*
G01X6919Y-4780D01*
G01X6928Y-4740D01*
G01X6932Y-4698D01*
G01X6932Y-4656D01*
G01X6929Y-4612D01*
G01X6921Y-4567D01*
G01X6909Y-4522D01*
G01X6893Y-4474D01*
G01X6873Y-4426D01*
G01X6849Y-4376D01*
G01X6819Y-4323D01*
G01X6785Y-4273D01*
G01X6748Y-4227D01*
G01X6708Y-4183D01*
G01X6665Y-4144D01*
G01X6619Y-4108D01*
G01X6571Y-4075D01*
G01X6521Y-4046D01*
G01X6468Y-4021D01*
G01X6413Y-4000D01*
G01X6357Y-3983D01*
G01X6300Y-3969D01*
G01X6241Y-3960D01*
G01X6180Y-3955D01*
G01X6120Y-3954D01*
G01X6058Y-3958D01*
G01X5996Y-3965D01*
G01X5934Y-3978D01*
G01X5872Y-3994D01*
G01X5810Y-4016D01*
G01X5777Y-4027D01*
G01X5735Y-4039D01*
G01X5686Y-4051D01*
G01X5632Y-4063D01*
G01X5574Y-4075D01*
G01X5515Y-4086D01*
G01X5455Y-4096D01*
G01X5396Y-4105D01*
G01X5307Y-4118D01*
G01X5230Y-4130D01*
G01X5164Y-4143D01*
G01X5108Y-4156D01*
G01X5060Y-4173D01*
G01X5018Y-4192D01*
G01X4980Y-4216D01*
G01X4945Y-4245D01*
G01X4911Y-4279D01*
G01X4876Y-4320D01*
G01X4840Y-4370D01*
G01X4799Y-4427D01*
G01X4758Y-4486D01*
G01X4716Y-4541D01*
G01X4675Y-4593D01*
G01X4633Y-4643D01*
G01X4591Y-4689D01*
G01X4549Y-4733D01*
G01X4507Y-4774D01*
G01X4464Y-4811D01*
G01X4422Y-4846D01*
G01X4379Y-4879D01*
G01X4336Y-4908D01*
G01X4292Y-4935D01*
G01X4248Y-4959D01*
G01X4204Y-4980D01*
G01X4160Y-4998D01*
G01X4115Y-5014D01*
G01X4064Y-5033D01*
G01X4015Y-5057D01*
G01X3967Y-5086D01*
G01X3922Y-5120D01*
G01X3879Y-5158D01*
G01X3837Y-5200D01*
G01X3799Y-5247D01*
G01X3763Y-5297D01*
G01X3729Y-5346D01*
G01X3689Y-5394D01*
G01X3644Y-5442D01*
G01X3596Y-5490D01*
G01X3543Y-5536D01*
G01X3487Y-5581D01*
G01X3428Y-5625D01*
G01X3367Y-5666D01*
G01X3305Y-5705D01*
G01X3242Y-5741D01*
G01X3178Y-5774D01*
G01X3114Y-5804D01*
G01X3051Y-5830D01*
G01X2989Y-5851D01*
G01X2928Y-5868D01*
G01X2870Y-5880D01*
G01X2655Y-5915D01*
G01X2655Y-5649D01*
G01X2656Y-5569D01*
G01X2662Y-5502D01*
G01X2674Y-5445D01*
G01X2694Y-5393D01*
G01X2725Y-5343D01*
G01X2768Y-5291D01*
G01X2823Y-5234D01*
G01X2896Y-5167D01*
G01X2948Y-5122D01*
G01X3005Y-5076D01*
G01X3064Y-5032D01*
G01X3123Y-4990D01*
G01X3182Y-4951D01*
G01X3237Y-4917D01*
G01X3287Y-4889D01*
G01X3331Y-4868D01*
G01X3375Y-4849D01*
G01X3413Y-4828D01*
G01X3448Y-4806D01*
G01X3478Y-4781D01*
G01X3504Y-4752D01*
G01X3527Y-4719D01*
G01X3547Y-4680D01*
G01X3563Y-4635D01*
G01X3577Y-4583D01*
G01X3588Y-4522D01*
G01X3598Y-4452D01*
G01X3605Y-4372D01*
G01X3611Y-4281D01*
G01X3615Y-4179D01*
G01X3618Y-4063D01*
G01X3621Y-3934D01*
G01X3624Y-3831D01*
G01X3627Y-3736D01*
G01X3632Y-3649D01*
G01X3637Y-3570D01*
G01X3644Y-3499D01*
G01X3653Y-3433D01*
G01X3663Y-3373D01*
G01X3674Y-3319D01*
G01X3687Y-3269D01*
G01X3702Y-3224D01*
G01X3718Y-3182D01*
G01X3737Y-3142D01*
G01X3772Y-3075D01*
G01X3806Y-3015D01*
G01X3839Y-2961D01*
G01X3872Y-2913D01*
G01X3905Y-2871D01*
G01X3940Y-2835D01*
G01X3976Y-2805D01*
G01X4013Y-2780D01*
G01X4053Y-2761D01*
G01X4095Y-2748D01*
G01X4142Y-2740D01*
G01X4193Y-2737D01*
G01X4247Y-2739D01*
G01X4307Y-2746D01*
G01X4372Y-2758D01*
G01X4443Y-2775D01*
G01X4521Y-2796D01*
G01X4606Y-2821D01*
G01X4698Y-2851D01*
G01X4799Y-2885D01*
G01X4869Y-2909D01*
G01X4934Y-2931D01*
G01X4994Y-2949D01*
G01X5050Y-2965D01*
G01X5103Y-2979D01*
G01X5155Y-2991D01*
G01X5205Y-3000D01*
G01X5255Y-3007D01*
G01X5306Y-3013D01*
G01X5358Y-3017D01*
G01X5413Y-3019D01*
G01X5471Y-3020D01*
G01X5533Y-3018D01*
G01X5600Y-3016D01*
G01X5673Y-3013D01*
G01X5753Y-3009D01*
G01X5824Y-3004D01*
G01X5968Y-2992D01*
G01X6040Y-2984D01*
G01X6110Y-2976D01*
G01X6178Y-2967D01*
G01X6243Y-2958D01*
G01X6303Y-2948D01*
G01X6359Y-2939D01*
G01X6408Y-2929D01*
G01X6451Y-2919D01*
G01X6486Y-2910D01*
G01X6540Y-2891D01*
G01X6594Y-2871D01*
G01X6646Y-2847D01*
G01X6696Y-2820D01*
G01X6746Y-2791D01*
G01X6793Y-2759D01*
G01X6840Y-2724D01*
G01X6884Y-2687D01*
G01X6928Y-2648D01*
G01X6970Y-2605D01*
G01X7010Y-2561D01*
G01X7048Y-2514D01*
G01X7085Y-2464D01*
G01X7120Y-2412D01*
G01X7154Y-2359D01*
G01X7186Y-2302D01*
G01X7216Y-2243D01*
G01X7244Y-2182D01*
G01X7270Y-2119D01*
G01X7295Y-2054D01*
G01X7318Y-1987D01*
G01X7339Y-1918D01*
G01X7358Y-1846D01*
G01X7375Y-1772D01*
G01X7400Y-1683D01*
G01X7435Y-1638D01*
G01X7496Y-1628D01*
G01X7599Y-1644D01*
G01X7693Y-1663D01*
G01X7778Y-1680D01*
G01X7855Y-1694D01*
G01X7924Y-1704D01*
G01X7986Y-1712D01*
G01X8043Y-1718D01*
G01X8094Y-1720D01*
G01X8141Y-1719D01*
G01X8185Y-1715D01*
G01X8227Y-1708D01*
G01X8267Y-1698D01*
G01X8307Y-1684D01*
G01X8347Y-1668D01*
G01X8389Y-1648D01*
G01X8432Y-1625D01*
G01X8479Y-1598D01*
G01X8518Y-1574D01*
G01X8557Y-1546D01*
G01X8598Y-1514D01*
G01X8640Y-1479D01*
G01X8681Y-1441D01*
G01X8722Y-1401D01*
G01X8763Y-1358D01*
G01X8803Y-1314D01*
G01X8842Y-1268D01*
G01X8879Y-1221D01*
G01X8915Y-1173D01*
G01X8948Y-1124D01*
G01X9003Y-1046D01*
G01X9059Y-976D01*
G01X9114Y-915D01*
G01X9168Y-862D01*
G01X9221Y-818D01*
G01X9273Y-784D01*
G01X9323Y-758D01*
G01X9370Y-743D01*
G01X9415Y-738D01*
G01X9457Y-743D01*
G01X9495Y-758D01*
G01X9529Y-785D01*
G01X9546Y-808D01*
G01X9558Y-837D01*
G01X9565Y-871D01*
G01X9565Y-909D01*
G01X9561Y-951D01*
G01X9552Y-997D01*
G01X9538Y-1045D01*
G01X9520Y-1097D01*
G01X9498Y-1151D01*
G01X9472Y-1206D01*
G01X9442Y-1263D01*
G01X9409Y-1322D01*
G01X9372Y-1381D01*
G01X9333Y-1440D01*
G01X9291Y-1499D01*
G01X9247Y-1557D01*
G01X9200Y-1615D01*
G01X9152Y-1671D01*
G01X9102Y-1725D01*
G01X9051Y-1776D01*
G01X8998Y-1825D01*
G01X8945Y-1871D01*
G01X8890Y-1914D01*
G01X8836Y-1952D01*
G01X8780Y-1991D01*
G01X8726Y-2032D01*
G01X8675Y-2075D01*
G01X8626Y-2119D01*
G01X8580Y-2165D01*
G01X8536Y-2211D01*
G01X8495Y-2260D01*
G01X8456Y-2310D01*
G01X8421Y-2361D01*
G01X8388Y-2413D01*
G01X8358Y-2466D01*
G01X8331Y-2520D01*
G01X8307Y-2575D01*
G01X8286Y-2630D01*
G01X8268Y-2686D01*
G01X8253Y-2743D01*
G01X8242Y-2800D01*
G01X8233Y-2858D01*
G01X8228Y-2915D01*
G01X8227Y-2973D01*
G01X8227Y-3025D01*
G01X8230Y-3071D01*
G01X8236Y-3113D01*
G01X8245Y-3153D01*
G01X8259Y-3191D01*
G01X8278Y-3229D01*
G01X8302Y-3268D01*
G01X8333Y-3310D01*
G01X8371Y-3356D01*
G01X8417Y-3406D01*
G01X8471Y-3462D01*
G01X8534Y-3526D01*
G01X8589Y-3580D01*
G01X8644Y-3630D01*
G01X8697Y-3675D01*
G01X8749Y-3717D01*
G01X8802Y-3755D01*
G01X8854Y-3790D01*
G01X8907Y-3820D01*
G01X8960Y-3848D01*
G01X9014Y-3871D01*
G01X9069Y-3892D01*
G01X9126Y-3909D01*
G01X9184Y-3923D01*
G01X9244Y-3934D01*
G01X9306Y-3943D01*
G01X9370Y-3948D01*
G01X9437Y-3951D01*
G01X9507Y-3951D01*
G01X9580Y-3948D01*
G01X9657Y-3943D01*
G01X9737Y-3935D01*
G01X10109Y-3895D01*
G01X10403Y-4193D01*
G01X10466Y-4257D01*
G01X10522Y-4311D01*
G01X10570Y-4357D01*
G01X10615Y-4393D01*
G01X10655Y-4423D01*
G01X10694Y-4446D01*
G01X10733Y-4463D01*
G01X10773Y-4475D01*
G01X10816Y-4484D01*
G01X10864Y-4489D01*
G01X10917Y-4491D01*
G01X10977Y-4492D01*
G01X11047Y-4489D01*
G01X11117Y-4483D01*
G01X11186Y-4471D01*
G01X11256Y-4456D01*
G01X11324Y-4435D01*
G01X11393Y-4411D01*
G01X11460Y-4382D01*
G01X11527Y-4349D01*
G01X11795Y-4206D01*
G01X11968Y-4364D01*
G01X11994Y-4388D01*
G01X12026Y-4415D01*
G01X12063Y-4447D01*
G01X12105Y-4483D01*
G01X12149Y-4521D01*
G01X12197Y-4561D01*
G01X12247Y-4602D01*
G01X12298Y-4645D01*
G01X12350Y-4688D01*
G01X12455Y-4773D01*
G01X12506Y-4814D01*
G01X12560Y-4858D01*
G01X12614Y-4904D01*
G01X12665Y-4949D01*
G01X12715Y-4996D01*
G01X12763Y-5042D01*
G01X12811Y-5089D01*
G01X12856Y-5136D01*
G01X12899Y-5184D01*
G01X12940Y-5231D01*
G01X12979Y-5278D01*
G01X13016Y-5324D01*
G01X13052Y-5370D01*
G01X13084Y-5416D01*
G01X13114Y-5461D01*
G01X13141Y-5505D01*
G01X13166Y-5548D01*
G01X13188Y-5590D01*
G01X13207Y-5632D01*
G01X13224Y-5671D01*
G01X13237Y-5710D01*
G01X13248Y-5750D01*
G01X13251Y-5784D01*
G01X13244Y-5814D01*
G01X13226Y-5840D01*
G01X13196Y-5867D01*
G01X13151Y-5895D01*
G01X13091Y-5925D01*
G01X13013Y-5961D01*
G01X12953Y-5989D01*
G01X12897Y-6021D01*
G01X12842Y-6055D01*
G01X12790Y-6090D01*
G01X12743Y-6128D01*
G01X12699Y-6166D01*
G01X12661Y-6205D01*
G01X12629Y-6243D01*
G01X12602Y-6280D01*
G01X12583Y-6316D01*
G01X12571Y-6350D01*
G01X12566Y-6381D01*
G01X12575Y-6391D01*
G01X12597Y-6399D01*
G01X12633Y-6407D01*
G01X12680Y-6413D01*
G01X12738Y-6419D01*
G01X12803Y-6423D01*
G01X12876Y-6426D01*
G01X12953Y-6427D01*
G01X13029Y-6426D01*
G01X13101Y-6422D01*
G01X13170Y-6417D01*
G01X13237Y-6408D01*
G01X13301Y-6398D01*
G01X13362Y-6386D01*
G01X13420Y-6371D01*
G01X13475Y-6354D01*
G01X13527Y-6335D01*
G01X13576Y-6314D01*
G01X13621Y-6291D01*
G01X13664Y-6266D01*
G01X13703Y-6238D01*
G01X13739Y-6209D01*
G01X13772Y-6177D01*
G01X13802Y-6144D01*
G01X13828Y-6109D01*
G01X13851Y-6072D01*
G01X13871Y-6032D01*
G01X13887Y-5991D01*
G01X13899Y-5949D01*
G01X13909Y-5904D01*
G01X13914Y-5858D01*
G01X13916Y-5809D01*
G01X13909Y-5730D01*
G01X13890Y-5648D01*
G01X13863Y-5573D01*
G01X13829Y-5514D01*
G01X13796Y-5459D01*
G01X13768Y-5393D01*
G01X13749Y-5324D01*
G01X13741Y-5261D01*
G01X13746Y-5185D01*
G01X13776Y-5148D01*
G01X13846Y-5139D01*
G01X13974Y-5153D01*
G01X14209Y-5184D01*
G01X14209Y-4315D01*
G01X13889Y-4315D01*
G01X13843Y-4316D01*
G01X13792Y-4318D01*
G01X13739Y-4323D01*
G01X13682Y-4328D01*
G01X13625Y-4334D01*
G01X13566Y-4341D01*
G01X13506Y-4349D01*
G01X13448Y-4359D01*
G01X13391Y-4369D01*
G01X13336Y-4379D01*
G01X13284Y-4391D01*
G01X13236Y-4402D01*
G01X13171Y-4420D01*
G01X13113Y-4434D01*
G01X13062Y-4446D01*
G01X13017Y-4454D01*
G01X12976Y-4459D01*
G01X12938Y-4459D01*
G01X12903Y-4455D01*
G01X12868Y-4446D01*
G01X12832Y-4432D01*
G01X12794Y-4411D01*
G01X12754Y-4385D01*
G01X12709Y-4353D01*
G01X12659Y-4312D01*
G01X12602Y-4265D01*
G01X12538Y-4210D01*
G01X12464Y-4147D01*
G01X12396Y-4088D01*
G01X12338Y-4037D01*
G01X12291Y-3992D01*
G01X12252Y-3952D01*
G01X12222Y-3915D01*
G01X12199Y-3878D01*
G01X12182Y-3841D01*
G01X12170Y-3802D01*
G01X12163Y-3758D01*
G01X12158Y-3709D01*
G01X12156Y-3652D01*
G01X12155Y-3586D01*
G01X12153Y-3513D01*
G01X12146Y-3439D01*
G01X12134Y-3363D01*
G01X12118Y-3287D01*
G01X12097Y-3210D01*
G01X12073Y-3133D01*
G01X12045Y-3057D01*
G01X12012Y-2983D01*
G01X11992Y-2936D01*
G01X11972Y-2887D01*
G01X11954Y-2835D01*
G01X11936Y-2781D01*
G01X11920Y-2726D01*
G01X11904Y-2669D01*
G01X11891Y-2613D01*
G01X11880Y-2557D01*
G01X11869Y-2502D01*
G01X11861Y-2448D01*
G01X11855Y-2395D01*
G01X11852Y-2346D01*
G01X11847Y-2246D01*
G01X11847Y-2166D01*
G01X11851Y-2102D01*
G01X11861Y-2050D01*
G01X11878Y-2009D01*
G01X11904Y-1972D01*
G01X11938Y-1937D01*
G01X11983Y-1901D01*
G01X12067Y-1846D01*
G01X12137Y-1821D01*
G01X12212Y-1824D01*
G01X12306Y-1853D01*
G01X12354Y-1872D01*
G01X12398Y-1893D01*
G01X12440Y-1915D01*
G01X12479Y-1938D01*
G01X12516Y-1963D01*
G01X12551Y-1991D01*
G01X12585Y-2022D01*
G01X12617Y-2055D01*
G01X12648Y-2092D01*
G01X12678Y-2134D01*
G01X12709Y-2179D01*
G01X12739Y-2229D01*
G01X12769Y-2283D01*
G01X12800Y-2343D01*
G01X12831Y-2408D01*
G01X12864Y-2480D01*
G01X12895Y-2545D01*
G01X12929Y-2608D01*
G01X12963Y-2668D01*
G01X13000Y-2726D01*
G01X13038Y-2780D01*
G01X13078Y-2832D01*
G01X13120Y-2881D01*
G01X13162Y-2926D01*
G01X13206Y-2969D01*
G01X13251Y-3008D01*
G01X13297Y-3043D01*
G01X13345Y-3075D01*
G01X13392Y-3104D01*
G01X13441Y-3130D01*
G01X13491Y-3151D01*
G01X13541Y-3169D01*
G01X13592Y-3183D01*
G01X13642Y-3193D01*
G01X13694Y-3199D01*
G01X13745Y-3201D01*
G01X13834Y-3206D01*
G01X13913Y-3218D01*
G01X13972Y-3237D01*
G01X14004Y-3260D01*
G01X14024Y-3283D01*
G01X14054Y-3301D01*
G01X14089Y-3314D01*
G01X14124Y-3318D01*
G01X14137Y-3316D01*
G01X14148Y-3309D01*
G01X14158Y-3296D01*
G01X14167Y-3278D01*
G01X14175Y-3251D01*
G01X14182Y-3217D01*
G01X14188Y-3174D01*
G01X14193Y-3122D01*
G01X14197Y-3060D01*
G01X14201Y-2986D01*
G01X14204Y-2901D01*
G01X14206Y-2804D01*
G01X14207Y-2692D01*
G01X14208Y-2567D01*
G01X14209Y-2428D01*
G01X14209Y-1226D01*
G01X14064Y-1160D01*
G01X14016Y-1133D01*
G01X13974Y-1099D01*
G01X13939Y-1061D01*
G01X13910Y-1018D01*
G01X13888Y-972D01*
G01X13871Y-926D01*
G01X13862Y-878D01*
G01X13859Y-831D01*
G01X13862Y-787D01*
G01X13871Y-745D01*
G01X13887Y-709D01*
G01X13910Y-678D01*
G01X13938Y-653D01*
G01X13974Y-637D01*
G01X14015Y-631D01*
G01X14063Y-635D01*
G01X14209Y-663D01*
G01X14209Y1621D01*
G01X14024Y1594D01*
G01X13957Y1587D01*
G01X13886Y1586D01*
G01X13810Y1589D01*
G01X13734Y1597D01*
G01X13657Y1609D01*
G01X13581Y1625D01*
G01X13509Y1643D01*
G01X13441Y1666D01*
G01X13379Y1691D01*
G01X13325Y1718D01*
G01X13280Y1747D01*
G01X13246Y1778D01*
G01X13231Y1797D01*
G01X13217Y1824D01*
G01X13202Y1858D01*
G01X13188Y1897D01*
G01X13173Y1943D01*
G01X13159Y1995D01*
G01X13146Y2052D01*
G01X13133Y2114D01*
G01X13120Y2180D01*
G01X13108Y2251D01*
G01X13097Y2326D01*
G01X13087Y2405D01*
G01X13075Y2497D01*
G01X13062Y2582D01*
G01X13049Y2660D01*
G01X13035Y2732D01*
G01X13020Y2798D01*
G01X13004Y2859D01*
G01X12987Y2915D01*
G01X12968Y2967D01*
G01X12948Y3016D01*
G01X12926Y3061D01*
G01X12902Y3104D01*
G01X12876Y3145D01*
G01X12837Y3207D01*
G01X12807Y3267D01*
G01X12784Y3325D01*
G01X12769Y3381D01*
G01X12762Y3435D01*
G01X12763Y3486D01*
G01X12772Y3535D01*
G01X12789Y3582D01*
G01X12813Y3628D01*
G01X12846Y3670D01*
G01X12886Y3710D01*
G01X12934Y3748D01*
G01X13015Y3805D01*
G01X13093Y3858D01*
G01X13166Y3908D01*
G01X13236Y3953D01*
G01X13302Y3995D01*
G01X13365Y4034D01*
G01X13425Y4070D01*
G01X13483Y4102D01*
G01X13539Y4132D01*
G01X13594Y4160D01*
G01X13646Y4184D01*
G01X13698Y4207D01*
G01X13749Y4228D01*
G01X13800Y4247D01*
G01X13850Y4265D01*
G01X13901Y4280D01*
G01X14209Y4372D01*
G01X14209Y4668D01*
G01X14208Y4761D01*
G01X14206Y4832D01*
G01X14200Y4882D01*
G01X14190Y4915D01*
G01X14174Y4933D01*
G01X14150Y4938D01*
G01X14118Y4934D01*
G01X14077Y4921D01*
G01X14034Y4911D01*
G01X13981Y4902D01*
G01X13918Y4896D01*
G01X13849Y4892D01*
G01X13776Y4889D01*
G01X13703Y4889D01*
G01X13630Y4891D01*
G01X13562Y4894D01*
G01X13500Y4900D01*
G01X13446Y4907D01*
G01X13405Y4916D01*
G01X13377Y4928D01*
G01X13333Y4982D01*
G01X13334Y5049D01*
G01X13373Y5112D01*
G01X13446Y5156D01*
G01X13497Y5175D01*
G01X13532Y5198D01*
G01X13552Y5225D01*
G01X13556Y5256D01*
G01X13546Y5294D01*
G01X13519Y5339D01*
G01X13477Y5391D01*
G01X13420Y5451D01*
G01X13359Y5509D01*
G01X13308Y5550D01*
G01X13262Y5576D01*
G01X13220Y5588D01*
G01X13179Y5583D01*
G01X13137Y5564D01*
G01X13091Y5530D01*
G01X13039Y5482D01*
G01X13010Y5458D01*
G01X12970Y5433D01*
G01X12920Y5408D01*
G01X12863Y5384D01*
G01X12801Y5361D01*
G01X12735Y5340D01*
G01X12667Y5322D01*
G01X12599Y5308D01*
G01X12509Y5290D01*
G01X12427Y5272D01*
G01X12353Y5253D01*
G01X12286Y5233D01*
G01X12228Y5213D01*
G01X12178Y5191D01*
G01X12135Y5169D01*
G01X12100Y5147D01*
G01X12073Y5123D01*
G01X12054Y5099D01*
G01X12043Y5074D01*
G01X12039Y5048D01*
G01X12030Y5019D01*
G01X12007Y4979D01*
G01X11972Y4931D01*
G01X11927Y4876D01*
G01X11874Y4819D01*
G01X11818Y4761D01*
G01X11760Y4704D01*
G01X11702Y4652D01*
G01X11647Y4607D01*
G01X11599Y4571D01*
G01X11559Y4548D01*
G01X11530Y4540D01*
G01X11500Y4547D01*
G01X11464Y4565D01*
G01X11427Y4593D01*
G01X11393Y4628D01*
G01X11375Y4655D01*
G01X11362Y4688D01*
G01X11355Y4727D01*
G01X11354Y4775D01*
G01X11360Y4834D01*
G01X11373Y4906D01*
G01X11391Y4994D01*
G01X11417Y5100D01*
G01X11438Y5185D01*
G01X11455Y5257D01*
G01X11469Y5320D01*
G01X11478Y5374D01*
G01X11483Y5422D01*
G01X11484Y5465D01*
G01X11481Y5506D01*
G01X11474Y5545D01*
G01X11462Y5586D01*
G01X11447Y5630D01*
G01X11427Y5678D01*
G01X11403Y5734D01*
G01X11376Y5792D01*
G01X11346Y5849D01*
G01X11315Y5904D01*
G01X11281Y5958D01*
G01X11245Y6010D01*
G01X11206Y6060D01*
G01X11167Y6109D01*
G01X11126Y6157D01*
G01X11083Y6201D01*
G01X11039Y6244D01*
G01X10994Y6285D01*
G01X10947Y6323D01*
G01X10900Y6359D01*
G01X10852Y6393D01*
G01X10803Y6424D01*
G01X10754Y6453D01*
G01X10705Y6479D01*
G01X10654Y6502D01*
G01X10604Y6523D01*
G01X10554Y6540D01*
G01X10504Y6555D01*
G01X10455Y6566D01*
G01X10405Y6574D01*
G01X10356Y6579D01*
G01X10308Y6580D01*
G01X10261Y6578D01*
G01X10214Y6573D01*
G01X10169Y6563D01*
G01X10101Y6540D01*
G01X10029Y6504D01*
G01X9959Y6460D01*
G01X9894Y6409D01*
G01X9837Y6355D01*
G01X9792Y6302D01*
G01X9762Y6252D01*
G01X9752Y6207D01*
G01X9727Y6147D01*
G01X9663Y6105D01*
G01X9579Y6087D01*
G01X9490Y6101D01*
G01X9469Y6113D01*
G01X9440Y6135D01*
G01X9405Y6165D01*
G01X9366Y6202D01*
G01X9323Y6246D01*
G01X9279Y6294D01*
G01X9232Y6345D01*
G01X9187Y6400D01*
G01X9143Y6451D01*
G01X9098Y6499D01*
G01X9051Y6546D01*
G01X9003Y6589D01*
G01X8953Y6629D01*
G01X8903Y6667D01*
G01X8851Y6701D01*
G01X8800Y6733D01*
G01X8747Y6762D01*
G01X8694Y6788D01*
G01X8640Y6811D01*
G01X8587Y6831D01*
G01X8533Y6848D01*
G01X8479Y6862D01*
G01X8426Y6873D01*
G01X8372Y6881D01*
G01X8319Y6885D01*
G01X8267Y6887D01*
G01X8216Y6885D01*
G01X8165Y6880D01*
G01X8116Y6872D01*
G01X8067Y6860D01*
G01X8020Y6845D01*
G01X7974Y6827D01*
G01X7930Y6805D01*
G01X7887Y6780D01*
G01X7847Y6751D01*
G01X7807Y6719D01*
G01X7771Y6684D01*
G01X7737Y6645D01*
G01X7706Y6603D01*
G01X7677Y6558D01*
G01X7652Y6511D01*
G01X7630Y6462D01*
G01X7610Y6411D01*
G01X7594Y6357D01*
G01X7581Y6302D01*
G01X7570Y6246D01*
G01X7564Y6189D01*
G01X7560Y6131D01*
G01X7559Y6072D01*
G01X7561Y6013D01*
G01X7567Y5953D01*
G01X7576Y5894D01*
G01X7588Y5835D01*
G01X7604Y5777D01*
G01X7624Y5719D01*
G01X7646Y5661D01*
G01X7690Y5554D01*
G01X7725Y5450D01*
G01X7749Y5363D01*
G01X7757Y5304D01*
G01X7749Y5253D01*
G01X7726Y5201D01*
G01X7691Y5152D01*
G01X7646Y5106D01*
G01X7594Y5067D01*
G01X7537Y5036D01*
G01X7478Y5016D01*
G01X7419Y5009D01*
G01X7379Y5010D01*
G01X7342Y5016D01*
G01X7309Y5026D01*
G01X7279Y5040D01*
G01X7252Y5059D01*
G01X7227Y5084D01*
G01X7205Y5115D01*
G01X7186Y5153D01*
G01X7169Y5197D01*
G01X7153Y5249D01*
G01X7139Y5309D01*
G01X7128Y5377D01*
G01X7117Y5454D01*
G01X7107Y5541D01*
G01X7098Y5637D01*
G01X7090Y5744D01*
G01X7084Y5822D01*
G01X7076Y5900D01*
G01X7068Y5977D01*
G01X7058Y6052D01*
G01X7047Y6125D01*
G01X7036Y6194D01*
G01X7025Y6259D01*
G01X7012Y6318D01*
G01X7000Y6370D01*
G01X6988Y6415D01*
G01X6975Y6452D01*
G01X6963Y6480D01*
G01X6931Y6534D01*
G01X6894Y6584D01*
G01X6851Y6629D01*
G01X6803Y6670D01*
G01X6750Y6706D01*
G01X6692Y6738D01*
G01X6630Y6765D01*
G01X6562Y6787D01*
G01X6491Y6805D01*
G01X6414Y6817D01*
G01X6334Y6825D01*
G01X6250Y6828D01*
G01X6167Y6829D01*
G01X6096Y6832D01*
G01X6036Y6838D01*
G01X5985Y6848D01*
G01X5942Y6862D01*
G01X5905Y6882D01*
G01X5876Y6908D01*
G01X5850Y6941D01*
G01X5827Y6982D01*
G01X5807Y7031D01*
G01X5788Y7090D01*
G01X5768Y7159D01*
G01X5752Y7213D01*
G01X5730Y7266D01*
G01X5704Y7318D01*
G01X5673Y7371D01*
G01X5638Y7422D01*
G01X5599Y7472D01*
G01X5555Y7521D01*
G01X5508Y7569D01*
G01X5457Y7616D01*
G01X5403Y7661D01*
G01X5344Y7705D01*
G01X5283Y7747D01*
G01X5218Y7787D01*
G01X5151Y7825D01*
G01X5080Y7860D01*
G01X5007Y7894D01*
G01X4945Y7919D01*
G01X4885Y7941D01*
G01X4826Y7960D01*
G01X4768Y7976D01*
G01X4712Y7988D01*
G01X4657Y7997D01*
G01X4603Y8003D01*
G01X4551Y8005D01*
G01X4500Y8004D01*
G01X4450Y8000D01*
G01X4401Y7993D01*
G01X4354Y7982D01*
G01X4307Y7968D01*
G01X4262Y7951D01*
G01X4218Y7930D01*
G01X4175Y7906D01*
G01X4133Y7879D01*
G01X4092Y7848D01*
G01X4052Y7814D01*
G01X4013Y7777D01*
G01X3975Y7736D01*
G01X3938Y7692D01*
G01X3901Y7644D01*
G01X3866Y7594D01*
G01X3822Y7530D01*
G01X3782Y7477D01*
G01X3744Y7436D01*
G01X3706Y7404D01*
G01X3669Y7381D01*
G01X3630Y7366D01*
G01X3587Y7357D01*
G01X3541Y7355D01*
G01X3480Y7357D01*
G01X3426Y7366D01*
G01X3381Y7379D01*
G01X3343Y7399D01*
G01X3312Y7424D01*
G01X3289Y7456D01*
G01X3274Y7495D01*
G01X3265Y7540D01*
G01X3263Y7592D01*
G01X3268Y7652D01*
G01X3281Y7719D01*
G01X3299Y7793D01*
G01X3316Y7858D01*
G01X3329Y7919D01*
G01X3339Y7976D01*
G01X3344Y8030D01*
G01X3345Y8080D01*
G01X3341Y8128D01*
G01X3332Y8174D01*
G01X3319Y8218D01*
G01X3300Y8262D01*
G01X3276Y8305D01*
G01X3246Y8349D01*
G01X3211Y8392D01*
G01X3170Y8437D01*
G01X3123Y8484D01*
G01X3070Y8532D01*
G01X3010Y8584D01*
G01X2951Y8635D01*
G01X2894Y8687D01*
G01X2841Y8739D01*
G01X2794Y8789D01*
G01X2753Y8836D01*
G01X2720Y8878D01*
G01X2696Y8913D01*
G01X2683Y8941D01*
G01X2676Y8960D01*
G01X2668Y8977D01*
G01X2657Y8992D01*
G01X2643Y9004D01*
G01X2624Y9015D01*
G01X2600Y9024D01*
G01X2569Y9032D01*
G01X2532Y9038D01*
G01X2486Y9043D01*
G01X2431Y9048D01*
G01X2367Y9051D01*
G01X2291Y9053D01*
G01X2203Y9055D01*
G01X2103Y9055D01*
G01X1988Y9056D01*
G37*

%LPC*%
G36*
G01X8419Y6119D02*
G01X8378Y6123D01*
G01X8335Y6119D01*
G01X8293Y6109D01*
G01X8251Y6090D01*
G01X8211Y6066D01*
G01X8175Y6033D01*
G01X8142Y5993D01*
G01X8113Y5950D01*
G01X8091Y5910D01*
G01X8074Y5872D01*
G01X8063Y5833D01*
G01X8058Y5794D01*
G01X8059Y5752D01*
G01X8067Y5708D01*
G01X8081Y5659D01*
G01X8102Y5604D01*
G01X8128Y5543D01*
G01X8163Y5473D01*
G01X8204Y5395D01*
G01X8230Y5343D01*
G01X8252Y5291D01*
G01X8272Y5239D01*
G01X8289Y5188D01*
G01X8302Y5137D01*
G01X8311Y5087D01*
G01X8318Y5038D01*
G01X8322Y4989D01*
G01X8323Y4941D01*
G01X8321Y4894D01*
G01X8316Y4848D01*
G01X8308Y4803D01*
G01X8297Y4758D01*
G01X8283Y4715D01*
G01X8267Y4674D01*
G01X8248Y4633D01*
G01X8226Y4593D01*
G01X8202Y4556D01*
G01X8175Y4519D01*
G01X8146Y4484D01*
G01X8114Y4451D01*
G01X8080Y4419D01*
G01X8043Y4389D01*
G01X8005Y4361D01*
G01X7963Y4335D01*
G01X7920Y4310D01*
G01X7874Y4288D01*
G01X7827Y4268D01*
G01X7777Y4249D01*
G01X7725Y4234D01*
G01X7671Y4220D01*
G01X7615Y4208D01*
G01X7558Y4200D01*
G01X7499Y4193D01*
G01X7437Y4189D01*
G01X7374Y4188D01*
G01X7313Y4190D01*
G01X7253Y4195D01*
G01X7195Y4203D01*
G01X7139Y4215D01*
G01X7085Y4230D01*
G01X7032Y4248D01*
G01X6981Y4270D01*
G01X6933Y4295D01*
G01X6886Y4322D01*
G01X6841Y4353D01*
G01X6799Y4387D01*
G01X6758Y4424D01*
G01X6720Y4464D01*
G01X6685Y4508D01*
G01X6651Y4553D01*
G01X6620Y4602D01*
G01X6598Y4641D01*
G01X6580Y4679D01*
G01X6564Y4717D01*
G01X6552Y4757D01*
G01X6543Y4800D01*
G01X6536Y4846D01*
G01X6532Y4899D01*
G01X6531Y4959D01*
G01X6532Y5027D01*
G01X6535Y5104D01*
G01X6541Y5194D01*
G01X6548Y5295D01*
G01X6555Y5389D01*
G01X6559Y5475D01*
G01X6562Y5554D01*
G01X6562Y5626D01*
G01X6560Y5690D01*
G01X6555Y5749D01*
G01X6548Y5801D01*
G01X6537Y5848D01*
G01X6524Y5889D01*
G01X6507Y5924D01*
G01X6487Y5955D01*
G01X6463Y5981D01*
G01X6436Y6004D01*
G01X6404Y6022D01*
G01X6369Y6036D01*
G01X6329Y6047D01*
G01X6284Y6055D01*
G01X6235Y6061D01*
G01X6181Y6064D01*
G01X6122Y6065D01*
G01X6044Y6063D01*
G01X5978Y6058D01*
G01X5922Y6049D01*
G01X5873Y6036D01*
G01X5830Y6016D01*
G01X5791Y5991D01*
G01X5753Y5958D01*
G01X5715Y5918D01*
G01X5679Y5879D01*
G01X5642Y5848D01*
G01X5604Y5822D01*
G01X5562Y5802D01*
G01X5516Y5788D01*
G01X5465Y5778D01*
G01X5406Y5772D01*
G01X5338Y5770D01*
G01X5235Y5766D01*
G01X5138Y5755D01*
G01X5059Y5738D01*
G01X5007Y5718D01*
G01X4978Y5693D01*
G01X4959Y5663D01*
G01X4950Y5628D01*
G01X4951Y5589D01*
G01X4963Y5545D01*
G01X4983Y5498D01*
G01X5014Y5448D01*
G01X5053Y5396D01*
G01X5102Y5341D01*
G01X5159Y5284D01*
G01X5224Y5226D01*
G01X5298Y5167D01*
G01X5358Y5119D01*
G01X5417Y5068D01*
G01X5473Y5016D01*
G01X5524Y4964D01*
G01X5569Y4913D01*
G01X5606Y4865D01*
G01X5635Y4823D01*
G01X5654Y4786D01*
G01X5670Y4737D01*
G01X5683Y4684D01*
G01X5692Y4630D01*
G01X5697Y4575D01*
G01X5698Y4518D01*
G01X5696Y4460D01*
G01X5691Y4402D01*
G01X5681Y4344D01*
G01X5669Y4288D01*
G01X5654Y4233D01*
G01X5635Y4179D01*
G01X5614Y4127D01*
G01X5590Y4078D01*
G01X5562Y4033D01*
G01X5532Y3991D01*
G01X5499Y3953D01*
G01X5439Y3893D01*
G01X5380Y3842D01*
G01X5321Y3797D01*
G01X5263Y3760D01*
G01X5204Y3730D01*
G01X5144Y3707D01*
G01X5084Y3692D01*
G01X5021Y3683D01*
G01X4956Y3681D01*
G01X4887Y3685D01*
G01X4816Y3695D01*
G01X4740Y3712D01*
G01X4682Y3725D01*
G01X4617Y3737D01*
G01X4547Y3749D01*
G01X4473Y3758D01*
G01X4400Y3766D01*
G01X4328Y3772D01*
G01X4260Y3776D01*
G01X4198Y3778D01*
G01X4128Y3779D01*
G01X4059Y3782D01*
G01X3991Y3788D01*
G01X3925Y3795D01*
G01X3860Y3805D01*
G01X3796Y3817D01*
G01X3733Y3831D01*
G01X3672Y3848D01*
G01X3611Y3866D01*
G01X3552Y3887D01*
G01X3495Y3910D01*
G01X3438Y3935D01*
G01X3383Y3961D01*
G01X3329Y3990D01*
G01X3277Y4021D01*
G01X3225Y4055D01*
G01X3168Y4093D01*
G01X3118Y4123D01*
G01X3075Y4145D01*
G01X3039Y4159D01*
G01X3008Y4163D01*
G01X2981Y4158D01*
G01X2958Y4142D01*
G01X2936Y4117D01*
G01X2917Y4081D01*
G01X2898Y4034D01*
G01X2879Y3976D01*
G01X2858Y3906D01*
G01X2840Y3851D01*
G01X2817Y3799D01*
G01X2788Y3750D01*
G01X2754Y3703D01*
G01X2714Y3658D01*
G01X2666Y3613D01*
G01X2612Y3569D01*
G01X2550Y3525D01*
G01X2473Y3475D01*
G01X2407Y3437D01*
G01X2348Y3409D01*
G01X2290Y3391D01*
G01X2229Y3383D01*
G01X2161Y3382D01*
G01X2079Y3387D01*
G01X1981Y3399D01*
G01X1927Y3406D01*
G01X1875Y3416D01*
G01X1823Y3428D01*
G01X1772Y3441D01*
G01X1721Y3457D01*
G01X1671Y3475D01*
G01X1622Y3494D01*
G01X1573Y3516D01*
G01X1526Y3540D01*
G01X1478Y3565D01*
G01X1432Y3593D01*
G01X1385Y3623D01*
G01X1327Y3662D01*
G01X1266Y3702D01*
G01X1204Y3744D01*
G01X1087Y3822D01*
G01X1033Y3857D01*
G01X987Y3887D01*
G01X948Y3912D01*
G01X906Y3936D01*
G01X852Y3958D01*
G01X788Y3979D01*
G01X717Y3999D01*
G01X638Y4016D01*
G01X553Y4031D01*
G01X464Y4043D01*
G01X372Y4053D01*
G01X254Y4062D01*
G01X158Y4067D01*
G01X84Y4068D01*
G01X27Y4064D01*
G01X-13Y4054D01*
G01X-43Y4039D01*
G01X-63Y4018D01*
G01X-77Y3990D01*
G01X-87Y3955D01*
G01X-90Y3921D01*
G01X-85Y3888D01*
G01X-72Y3857D01*
G01X-50Y3826D01*
G01X-19Y3796D01*
G01X20Y3765D01*
G01X70Y3735D01*
G01X131Y3703D01*
G01X202Y3671D01*
G01X284Y3637D01*
G01X378Y3602D01*
G01X431Y3582D01*
G01X484Y3559D01*
G01X536Y3535D01*
G01X588Y3508D01*
G01X640Y3480D01*
G01X691Y3450D01*
G01X742Y3418D01*
G01X792Y3385D01*
G01X841Y3350D01*
G01X890Y3313D01*
G01X937Y3275D01*
G01X984Y3236D01*
G01X1029Y3195D01*
G01X1074Y3153D01*
G01X1117Y3110D01*
G01X1159Y3065D01*
G01X1199Y3020D01*
G01X1238Y2974D01*
G01X1276Y2927D01*
G01X1312Y2878D01*
G01X1346Y2830D01*
G01X1378Y2780D01*
G01X1409Y2730D01*
G01X1437Y2679D01*
G01X1472Y2611D01*
G01X1505Y2540D01*
G01X1535Y2467D01*
G01X1562Y2394D01*
G01X1587Y2320D01*
G01X1608Y2246D01*
G01X1627Y2173D01*
G01X1642Y2101D01*
G01X1654Y2031D01*
G01X1662Y1964D01*
G01X1667Y1900D01*
G01X1668Y1841D01*
G01X1666Y1785D01*
G01X1659Y1735D01*
G01X1648Y1691D01*
G01X1634Y1653D01*
G01X1614Y1619D01*
G01X1588Y1585D01*
G01X1559Y1553D01*
G01X1523Y1522D01*
G01X1485Y1492D01*
G01X1442Y1464D01*
G01X1396Y1438D01*
G01X1347Y1414D01*
G01X1295Y1391D01*
G01X1242Y1372D01*
G01X1186Y1355D01*
G01X1128Y1341D01*
G01X1070Y1329D01*
G01X1011Y1321D01*
G01X951Y1316D01*
G01X892Y1314D01*
G01X836Y1312D01*
G01X779Y1308D01*
G01X723Y1300D01*
G01X670Y1290D01*
G01X620Y1278D01*
G01X577Y1263D01*
G01X540Y1248D01*
G01X512Y1232D01*
G01X488Y1213D01*
G01X469Y1195D01*
G01X457Y1176D01*
G01X451Y1154D01*
G01X454Y1128D01*
G01X465Y1096D01*
G01X485Y1057D01*
G01X516Y1008D01*
G01X556Y950D01*
G01X609Y878D01*
G01X673Y793D01*
G01X750Y692D01*
G01X798Y630D01*
G01X845Y572D01*
G01X893Y516D01*
G01X939Y463D01*
G01X986Y414D01*
G01X1031Y366D01*
G01X1077Y322D01*
G01X1123Y279D01*
G01X1169Y240D01*
G01X1215Y203D01*
G01X1261Y169D01*
G01X1308Y137D01*
G01X1354Y107D01*
G01X1402Y80D01*
G01X1449Y55D01*
G01X1498Y32D01*
G01X1547Y11D01*
G01X1597Y-7D01*
G01X1647Y-23D01*
G01X1699Y-38D01*
G01X1752Y-50D01*
G01X1805Y-61D01*
G01X1860Y-70D01*
G01X1916Y-78D01*
G01X1992Y-85D01*
G01X2061Y-90D01*
G01X2123Y-92D01*
G01X2180Y-91D01*
G01X2233Y-86D01*
G01X2280Y-78D01*
G01X2323Y-66D01*
G01X2363Y-49D01*
G01X2400Y-28D01*
G01X2434Y-2D01*
G01X2467Y29D01*
G01X2498Y65D01*
G01X2528Y107D01*
G01X2558Y155D01*
G01X2589Y209D01*
G01X2620Y269D01*
G01X2650Y335D01*
G01X2679Y403D01*
G01X2705Y472D01*
G01X2727Y540D01*
G01X2746Y605D01*
G01X2760Y665D01*
G01X2769Y718D01*
G01X2772Y762D01*
G01X2780Y853D01*
G01X2806Y929D01*
G01X2853Y992D01*
G01X2924Y1048D01*
G01X2957Y1073D01*
G01X2992Y1106D01*
G01X3028Y1146D01*
G01X3063Y1191D01*
G01X3098Y1240D01*
G01X3131Y1290D01*
G01X3160Y1342D01*
G01X3210Y1446D01*
G01X3239Y1500D01*
G01X3271Y1555D01*
G01X3305Y1608D01*
G01X3340Y1659D01*
G01X3376Y1705D01*
G01X3409Y1746D01*
G01X3441Y1779D01*
G01X3489Y1821D01*
G01X3533Y1853D01*
G01X3577Y1876D01*
G01X3628Y1889D01*
G01X3689Y1895D01*
G01X3766Y1895D01*
G01X3864Y1888D01*
G01X3987Y1876D01*
G01X4070Y1867D01*
G01X4146Y1856D01*
G01X4216Y1843D01*
G01X4281Y1828D01*
G01X4340Y1812D01*
G01X4394Y1792D01*
G01X4442Y1770D01*
G01X4486Y1745D01*
G01X4525Y1716D01*
G01X4559Y1684D01*
G01X4590Y1648D01*
G01X4617Y1608D01*
G01X4640Y1564D01*
G01X4659Y1515D01*
G01X4676Y1462D01*
G01X4690Y1404D01*
G01X4701Y1340D01*
G01X4709Y1271D01*
G01X4715Y1196D01*
G01X4720Y1115D01*
G01X4725Y980D01*
G01X4733Y878D01*
G01X4742Y803D01*
G01X4756Y752D01*
G01X4777Y718D01*
G01X4806Y698D01*
G01X4846Y687D01*
G01X4898Y680D01*
G01X4922Y678D01*
G01X4947Y680D01*
G01X4975Y684D01*
G01X5004Y692D01*
G01X5036Y703D01*
G01X5070Y718D01*
G01X5108Y737D01*
G01X5150Y761D01*
G01X5195Y788D01*
G01X5246Y820D01*
G01X5300Y857D01*
G01X5360Y900D01*
G01X5426Y947D01*
G01X5498Y1000D01*
G01X5576Y1059D01*
G01X5661Y1124D01*
G01X5753Y1195D01*
G01X5836Y1259D01*
G01X5913Y1318D01*
G01X5982Y1372D01*
G01X6046Y1419D01*
G01X6103Y1463D01*
G01X6156Y1501D01*
G01X6204Y1535D01*
G01X6248Y1565D01*
G01X6289Y1591D01*
G01X6327Y1613D01*
G01X6363Y1633D01*
G01X6398Y1650D01*
G01X6431Y1664D01*
G01X6465Y1676D01*
G01X6498Y1687D01*
G01X6533Y1695D01*
G01X6568Y1702D01*
G01X6607Y1708D01*
G01X6647Y1715D01*
G01X6691Y1720D01*
G01X6739Y1725D01*
G01X6791Y1730D01*
G01X6848Y1736D01*
G01X7011Y1754D01*
G01X7159Y1769D01*
G01X7291Y1784D01*
G01X7411Y1796D01*
G01X7516Y1806D01*
G01X7611Y1815D01*
G01X7694Y1821D01*
G01X7767Y1826D01*
G01X7831Y1830D01*
G01X7887Y1832D01*
G01X7936Y1832D01*
G01X7979Y1830D01*
G01X8017Y1827D01*
G01X8050Y1822D01*
G01X8080Y1816D01*
G01X8107Y1808D01*
G01X8134Y1798D01*
G01X8159Y1788D01*
G01X8213Y1761D01*
G01X8269Y1730D01*
G01X8317Y1698D01*
G01X8360Y1664D01*
G01X8397Y1628D01*
G01X8428Y1590D01*
G01X8455Y1547D01*
G01X8476Y1500D01*
G01X8492Y1449D01*
G01X8505Y1392D01*
G01X8513Y1329D01*
G01X8518Y1260D01*
G01X8520Y1183D01*
G01X8517Y1115D01*
G01X8509Y1048D01*
G01X8496Y982D01*
G01X8476Y914D01*
G01X8450Y845D01*
G01X8417Y773D01*
G01X8377Y696D01*
G01X8329Y614D01*
G01X8289Y550D01*
G01X8247Y489D01*
G01X8205Y431D01*
G01X8162Y376D01*
G01X8118Y326D01*
G01X8073Y278D01*
G01X8026Y233D01*
G01X7978Y192D01*
G01X7929Y153D01*
G01X7879Y117D01*
G01X7826Y85D01*
G01X7772Y55D01*
G01X7716Y27D01*
G01X7658Y3D01*
G01X7598Y-18D01*
G01X7536Y-38D01*
G01X7471Y-55D01*
G01X7404Y-70D01*
G01X7334Y-82D01*
G01X7262Y-92D01*
G01X7164Y-106D01*
G01X7074Y-123D01*
G01X6993Y-143D01*
G01X6920Y-166D01*
G01X6855Y-192D01*
G01X6799Y-220D01*
G01X6751Y-251D01*
G01X6713Y-285D01*
G01X6682Y-322D01*
G01X6660Y-362D01*
G01X6647Y-404D01*
G01X6643Y-449D01*
G01X6647Y-495D01*
G01X6662Y-531D01*
G01X6689Y-559D01*
G01X6730Y-578D01*
G01X6786Y-588D01*
G01X6860Y-591D01*
G01X6953Y-587D01*
G01X7067Y-576D01*
G01X7149Y-569D01*
G01X7221Y-567D01*
G01X7284Y-571D01*
G01X7339Y-580D01*
G01X7385Y-594D01*
G01X7422Y-614D01*
G01X7452Y-640D01*
G01X7473Y-672D01*
G01X7487Y-709D01*
G01X7493Y-753D01*
G01X7492Y-803D01*
G01X7484Y-859D01*
G01X7476Y-912D01*
G01X7475Y-957D01*
G01X7482Y-994D01*
G01X7498Y-1025D01*
G01X7521Y-1049D01*
G01X7554Y-1066D01*
G01X7596Y-1076D01*
G01X7647Y-1080D01*
G01X7709Y-1078D01*
G01X7783Y-1070D01*
G01X7866Y-1056D01*
G01X7961Y-1036D01*
G01X8021Y-1023D01*
G01X8076Y-1007D01*
G01X8127Y-991D01*
G01X8175Y-973D01*
G01X8220Y-952D01*
G01X8264Y-929D01*
G01X8306Y-903D01*
G01X8347Y-872D01*
G01X8388Y-838D01*
G01X8429Y-800D01*
G01X8471Y-755D01*
G01X8515Y-706D01*
G01X8561Y-651D01*
G01X8609Y-589D01*
G01X8660Y-521D01*
G01X8716Y-445D01*
G01X8757Y-390D01*
G01X8802Y-338D01*
G01X8849Y-287D01*
G01X8899Y-238D01*
G01X8950Y-192D01*
G01X9003Y-149D01*
G01X9058Y-108D01*
G01X9112Y-71D01*
G01X9167Y-38D01*
G01X9223Y-7D01*
G01X9278Y18D01*
G01X9332Y40D01*
G01X9385Y57D01*
G01X9437Y70D01*
G01X9486Y78D01*
G01X9534Y81D01*
G01X9587Y78D01*
G01X9644Y69D01*
G01X9703Y54D01*
G01X9763Y34D01*
G01X9825Y8D01*
G01X9886Y-21D01*
G01X9948Y-54D01*
G01X10009Y-91D01*
G01X10068Y-132D01*
G01X10125Y-175D01*
G01X10180Y-219D01*
G01X10231Y-266D01*
G01X10279Y-313D01*
G01X10322Y-362D01*
G01X10360Y-410D01*
G01X10393Y-458D01*
G01X10419Y-506D01*
G01X10439Y-552D01*
G01X10451Y-596D01*
G01X10455Y-639D01*
G01X10449Y-667D01*
G01X10432Y-711D01*
G01X10405Y-769D01*
G01X10369Y-838D01*
G01X10326Y-916D01*
G01X10276Y-1001D01*
G01X10221Y-1091D01*
G01X10162Y-1184D01*
G01X10120Y-1249D01*
G01X10081Y-1313D01*
G01X10044Y-1376D01*
G01X10010Y-1437D01*
G01X9979Y-1496D01*
G01X9951Y-1551D01*
G01X9927Y-1604D01*
G01X9906Y-1651D01*
G01X9890Y-1695D01*
G01X9879Y-1734D01*
G01X9871Y-1766D01*
G01X9869Y-1793D01*
G01X9865Y-1849D01*
G01X9854Y-1904D01*
G01X9835Y-1958D01*
G01X9810Y-2010D01*
G01X9779Y-2059D01*
G01X9741Y-2106D01*
G01X9698Y-2150D01*
G01X9650Y-2191D01*
G01X9597Y-2228D01*
G01X9539Y-2260D01*
G01X9477Y-2288D01*
G01X9343Y-2334D01*
G01X9281Y-2359D01*
G01X9226Y-2386D01*
G01X9177Y-2416D01*
G01X9135Y-2448D01*
G01X9100Y-2481D01*
G01X9072Y-2516D01*
G01X9051Y-2553D01*
G01X9036Y-2592D01*
G01X9028Y-2631D01*
G01X9028Y-2673D01*
G01X9034Y-2715D01*
G01X9048Y-2758D01*
G01X9069Y-2802D01*
G01X9097Y-2847D01*
G01X9133Y-2893D01*
G01X9164Y-2928D01*
G01X9193Y-2958D01*
G01X9222Y-2982D01*
G01X9252Y-3002D01*
G01X9285Y-3018D01*
G01X9324Y-3031D01*
G01X9369Y-3040D01*
G01X9423Y-3047D01*
G01X9487Y-3052D01*
G01X9564Y-3055D01*
G01X9655Y-3057D01*
G01X9761Y-3058D01*
G01X9846Y-3059D01*
G01X9925Y-3062D01*
G01X10000Y-3066D01*
G01X10071Y-3072D01*
G01X10136Y-3080D01*
G01X10198Y-3090D01*
G01X10255Y-3102D01*
G01X10310Y-3116D01*
G01X10361Y-3132D01*
G01X10408Y-3151D01*
G01X10454Y-3172D01*
G01X10496Y-3197D01*
G01X10537Y-3223D01*
G01X10575Y-3253D01*
G01X10612Y-3286D01*
G01X10648Y-3322D01*
G01X10682Y-3361D01*
G01X10715Y-3404D01*
G01X10748Y-3449D01*
G01X10781Y-3499D01*
G01X10824Y-3566D01*
G01X10865Y-3623D01*
G01X10904Y-3670D01*
G01X10940Y-3708D01*
G01X10976Y-3737D01*
G01X11011Y-3757D01*
G01X11046Y-3768D01*
G01X11083Y-3771D01*
G01X11120Y-3766D01*
G01X11160Y-3753D01*
G01X11202Y-3732D01*
G01X11248Y-3705D01*
G01X11293Y-3670D01*
G01X11330Y-3632D01*
G01X11358Y-3591D01*
G01X11377Y-3545D01*
G01X11387Y-3494D01*
G01X11387Y-3440D01*
G01X11379Y-3380D01*
G01X11362Y-3316D01*
G01X11336Y-3246D01*
G01X11301Y-3171D01*
G01X11256Y-3090D01*
G01X11203Y-3002D01*
G01X11170Y-2951D01*
G01X11141Y-2905D01*
G01X11117Y-2862D01*
G01X11095Y-2822D01*
G01X11077Y-2784D01*
G01X11062Y-2747D01*
G01X11049Y-2709D01*
G01X11040Y-2668D01*
G01X11033Y-2624D01*
G01X11028Y-2577D01*
G01X11025Y-2523D01*
G01X11023Y-2463D01*
G01X11023Y-2395D01*
G01X11024Y-2318D01*
G01X11026Y-2231D01*
G01X11029Y-2132D01*
G01X11032Y-2039D01*
G01X11035Y-1952D01*
G01X11039Y-1872D01*
G01X11044Y-1797D01*
G01X11051Y-1728D01*
G01X11058Y-1664D01*
G01X11066Y-1605D01*
G01X11075Y-1549D01*
G01X11086Y-1498D01*
G01X11098Y-1450D01*
G01X11111Y-1405D01*
G01X11127Y-1362D01*
G01X11144Y-1322D01*
G01X11163Y-1284D01*
G01X11185Y-1247D01*
G01X11207Y-1211D01*
G01X11233Y-1175D01*
G01X11261Y-1140D01*
G01X11291Y-1105D01*
G01X11324Y-1070D01*
G01X11373Y-1019D01*
G01X11420Y-974D01*
G01X11466Y-933D01*
G01X11510Y-898D01*
G01X11554Y-867D01*
G01X11597Y-841D01*
G01X11640Y-819D01*
G01X11684Y-802D01*
G01X11728Y-788D01*
G01X11774Y-779D01*
G01X11821Y-774D01*
G01X11870Y-773D01*
G01X11922Y-775D01*
G01X11977Y-781D01*
G01X12036Y-790D01*
G01X12097Y-802D01*
G01X12155Y-815D01*
G01X12208Y-830D01*
G01X12259Y-847D01*
G01X12307Y-867D01*
G01X12354Y-889D01*
G01X12399Y-915D01*
G01X12446Y-945D01*
G01X12493Y-979D01*
G01X12543Y-1018D01*
G01X12594Y-1063D01*
G01X12650Y-1114D01*
G01X12710Y-1171D01*
G01X12754Y-1216D01*
G01X12800Y-1264D01*
G01X12848Y-1316D01*
G01X12896Y-1371D01*
G01X12945Y-1427D01*
G01X12993Y-1485D01*
G01X13040Y-1543D01*
G01X13085Y-1600D01*
G01X13128Y-1657D01*
G01X13167Y-1710D01*
G01X13203Y-1762D01*
G01X13235Y-1809D01*
G01X13292Y-1896D01*
G01X13344Y-1970D01*
G01X13393Y-2036D01*
G01X13441Y-2090D01*
G01X13486Y-2136D01*
G01X13532Y-2174D01*
G01X13578Y-2204D01*
G01X13626Y-2227D01*
G01X13676Y-2244D01*
G01X13730Y-2254D01*
G01X13788Y-2261D01*
G01X13851Y-2263D01*
G01X13918Y-2257D01*
G01X13978Y-2239D01*
G01X14029Y-2210D01*
G01X14072Y-2171D01*
G01X14106Y-2121D01*
G01X14130Y-2061D01*
G01X14145Y-1991D01*
G01X14150Y-1913D01*
G01X14137Y-1850D01*
G01X14093Y-1793D01*
G01X14016Y-1738D01*
G01X13900Y-1682D01*
G01X13856Y-1662D01*
G01X13811Y-1637D01*
G01X13766Y-1610D01*
G01X13720Y-1579D01*
G01X13674Y-1546D01*
G01X13629Y-1509D01*
G01X13583Y-1471D01*
G01X13539Y-1430D01*
G01X13494Y-1387D01*
G01X13451Y-1342D01*
G01X13408Y-1296D01*
G01X13366Y-1248D01*
G01X13326Y-1199D01*
G01X13287Y-1150D01*
G01X13249Y-1099D01*
G01X13214Y-1048D01*
G01X13180Y-997D01*
G01X13148Y-945D01*
G01X13118Y-894D01*
G01X13091Y-843D01*
G01X13066Y-792D01*
G01X13044Y-743D01*
G01X13025Y-694D01*
G01X13009Y-647D01*
G01X12996Y-600D01*
G01X12987Y-556D01*
G01X12981Y-514D01*
G01X12978Y-473D01*
G01X12982Y-426D01*
G01X12993Y-374D01*
G01X13010Y-318D01*
G01X13033Y-261D01*
G01X13061Y-203D01*
G01X13093Y-146D01*
G01X13127Y-91D01*
G01X13163Y-41D01*
G01X13200Y3D01*
G01X13238Y40D01*
G01X13275Y68D01*
G01X13310Y86D01*
G01X13340Y95D01*
G01X13376Y98D01*
G01X13417Y96D01*
G01X13461Y89D01*
G01X13510Y79D01*
G01X13562Y64D01*
G01X13616Y44D01*
G01X13673Y21D01*
G01X13733Y-4D01*
G01X13788Y-25D01*
G01X13838Y-42D01*
G01X13884Y-53D01*
G01X13924Y-60D01*
G01X13959Y-62D01*
G01X13989Y-58D01*
G01X14015Y-50D01*
G01X14036Y-36D01*
G01X14052Y-17D01*
G01X14064Y7D01*
G01X14071Y38D01*
G01X14074Y74D01*
G01X14073Y115D01*
G01X14067Y163D01*
G01X14056Y217D01*
G01X14042Y276D01*
G01X14023Y342D01*
G01X14001Y415D01*
G01X13974Y493D01*
G01X13947Y569D01*
G01X13922Y637D01*
G01X13897Y698D01*
G01X13873Y753D01*
G01X13849Y802D01*
G01X13824Y846D01*
G01X13798Y886D01*
G01X13771Y922D01*
G01X13741Y955D01*
G01X13708Y985D01*
G01X13672Y1014D01*
G01X13633Y1042D01*
G01X13588Y1069D01*
G01X13539Y1096D01*
G01X13484Y1125D01*
G01X13423Y1154D01*
G01X13328Y1198D01*
G01X13244Y1232D01*
G01X13169Y1258D01*
G01X13103Y1274D01*
G01X13045Y1280D01*
G01X12995Y1277D01*
G01X12951Y1263D01*
G01X12913Y1240D01*
G01X12879Y1207D01*
G01X12849Y1163D01*
G01X12823Y1109D01*
G01X12799Y1043D01*
G01X12778Y989D01*
G01X12753Y939D01*
G01X12724Y896D01*
G01X12691Y858D01*
G01X12653Y826D01*
G01X12609Y798D01*
G01X12559Y776D01*
G01X12502Y757D01*
G01X12439Y744D01*
G01X12369Y735D01*
G01X12291Y729D01*
G01X12205Y728D01*
G01X12138Y730D01*
G01X12079Y736D01*
G01X12025Y748D01*
G01X11976Y767D01*
G01X11927Y793D01*
G01X11878Y828D01*
G01X11826Y872D01*
G01X11769Y927D01*
G01X11725Y972D01*
G01X11687Y1012D01*
G01X11656Y1049D01*
G01X11631Y1085D01*
G01X11612Y1122D01*
G01X11597Y1162D01*
G01X11586Y1208D01*
G01X11578Y1261D01*
G01X11574Y1324D01*
G01X11571Y1399D01*
G01X11570Y1487D01*
G01X11570Y1655D01*
G01X11572Y1718D01*
G01X11575Y1781D01*
G01X11579Y1843D01*
G01X11584Y1905D01*
G01X11591Y1966D01*
G01X11598Y2026D01*
G01X11607Y2086D01*
G01X11617Y2145D01*
G01X11628Y2203D01*
G01X11640Y2261D01*
G01X11654Y2318D01*
G01X11668Y2373D01*
G01X11684Y2429D01*
G01X11701Y2484D01*
G01X11719Y2538D01*
G01X11738Y2591D01*
G01X11780Y2695D01*
G01X11802Y2746D01*
G01X11826Y2796D01*
G01X11851Y2845D01*
G01X11877Y2894D01*
G01X11904Y2941D01*
G01X11937Y3004D01*
G01X11968Y3073D01*
G01X11996Y3146D01*
G01X12020Y3222D01*
G01X12042Y3300D01*
G01X12060Y3379D01*
G01X12074Y3457D01*
G01X12085Y3533D01*
G01X12092Y3606D01*
G01X12095Y3675D01*
G01X12094Y3739D01*
G01X12088Y3795D01*
G01X12079Y3844D01*
G01X12064Y3883D01*
G01X12045Y3911D01*
G01X12021Y3927D01*
G01X11995Y3931D01*
G01X11957Y3929D01*
G01X11909Y3920D01*
G01X11852Y3906D01*
G01X11789Y3887D01*
G01X11720Y3863D01*
G01X11648Y3835D01*
G01X11575Y3804D01*
G01X11495Y3770D01*
G01X11419Y3741D01*
G01X11346Y3718D01*
G01X11278Y3699D01*
G01X11212Y3687D01*
G01X11150Y3680D01*
G01X11090Y3678D01*
G01X11032Y3683D01*
G01X10976Y3693D01*
G01X10921Y3709D01*
G01X10867Y3731D01*
G01X10814Y3758D01*
G01X10761Y3792D01*
G01X10709Y3831D01*
G01X10655Y3877D01*
G01X10601Y3929D01*
G01X10544Y3988D01*
G01X10498Y4042D01*
G01X10462Y4091D01*
G01X10436Y4141D01*
G01X10417Y4192D01*
G01X10405Y4246D01*
G01X10398Y4308D01*
G01X10397Y4379D01*
G01X10398Y4433D01*
G01X10404Y4493D01*
G01X10413Y4558D01*
G01X10425Y4625D01*
G01X10438Y4692D01*
G01X10455Y4756D01*
G01X10472Y4817D01*
G01X10492Y4872D01*
G01X10517Y4945D01*
G01X10535Y5015D01*
G01X10548Y5080D01*
G01X10554Y5143D01*
G01X10553Y5201D01*
G01X10547Y5256D01*
G01X10533Y5307D01*
G01X10513Y5355D01*
G01X10487Y5400D01*
G01X10454Y5441D01*
G01X10415Y5478D01*
G01X10369Y5512D01*
G01X10314Y5544D01*
G01X10264Y5566D01*
G01X10216Y5579D01*
G01X10172Y5582D01*
G01X10131Y5576D01*
G01X10094Y5561D01*
G01X10061Y5536D01*
G01X10031Y5502D01*
G01X10006Y5459D01*
G01X9985Y5406D01*
G01X9967Y5344D01*
G01X9954Y5274D01*
G01X9940Y5195D01*
G01X9921Y5125D01*
G01X9898Y5063D01*
G01X9870Y5008D01*
G01X9837Y4961D01*
G01X9799Y4920D01*
G01X9755Y4887D01*
G01X9704Y4860D01*
G01X9647Y4838D01*
G01X9584Y4823D01*
G01X9513Y4814D01*
G01X9435Y4809D01*
G01X9374Y4809D01*
G01X9317Y4813D01*
G01X9265Y4820D01*
G01X9217Y4832D01*
G01X9171Y4847D01*
G01X9129Y4868D01*
G01X9090Y4895D01*
G01X9053Y4927D01*
G01X9017Y4965D01*
G01X8983Y5009D01*
G01X8949Y5061D01*
G01X8916Y5121D01*
G01X8883Y5188D01*
G01X8850Y5263D01*
G01X8815Y5348D01*
G01X8780Y5441D01*
G01X8748Y5528D01*
G01X8715Y5614D01*
G01X8684Y5697D01*
G01X8655Y5776D01*
G01X8628Y5846D01*
G01X8606Y5907D01*
G01X8587Y5956D01*
G01X8573Y5991D01*
G01X8553Y6032D01*
G01X8526Y6064D01*
G01X8494Y6090D01*
G01X8458Y6108D01*
G01X8419Y6119D01*
G37*

%LPD*%
G36*
G01X-3959Y-5676D02*
G01X-4015Y-5676D01*
G01X-4074Y-5685D01*
G01X-4133Y-5703D01*
G01X-4166Y-5720D01*
G01X-4188Y-5739D01*
G01X-4200Y-5765D01*
G01X-4200Y-5797D01*
G01X-4189Y-5839D01*
G01X-4166Y-5892D01*
G01X-4132Y-5958D01*
G01X-4085Y-6039D01*
G01X-4028Y-6124D01*
G01X-3974Y-6182D01*
G01X-3924Y-6212D01*
G01X-3880Y-6212D01*
G01X-3846Y-6190D01*
G01X-3821Y-6156D01*
G01X-3804Y-6114D01*
G01X-3798Y-6070D01*
G01X-3801Y-6027D01*
G01X-3814Y-5991D01*
G01X-3836Y-5966D01*
G01X-3869Y-5956D01*
G01X-3889Y-5950D01*
G01X-3890Y-5936D01*
G01X-3872Y-5917D01*
G01X-3837Y-5893D01*
G01X-3796Y-5862D01*
G01X-3772Y-5831D01*
G01X-3765Y-5800D01*
G01X-3772Y-5770D01*
G01X-3791Y-5743D01*
G01X-3821Y-5719D01*
G01X-3860Y-5699D01*
G01X-3907Y-5684D01*
G01X-3959Y-5676D01*
G37*

%LPD*%
G36*
G01X-5327Y-5086D02*
G01X-5360Y-5081D01*
G01X-5398Y-5088D01*
G01X-5441Y-5104D01*
G01X-5490Y-5131D01*
G01X-5521Y-5158D01*
G01X-5542Y-5190D01*
G01X-5552Y-5227D01*
G01X-5552Y-5267D01*
G01X-5543Y-5311D01*
G01X-5524Y-5357D01*
G01X-5496Y-5405D01*
G01X-5461Y-5453D01*
G01X-5417Y-5500D01*
G01X-5366Y-5547D01*
G01X-5307Y-5592D01*
G01X-5242Y-5633D01*
G01X-5189Y-5663D01*
G01X-5136Y-5691D01*
G01X-5084Y-5716D01*
G01X-5035Y-5738D01*
G01X-4990Y-5756D01*
G01X-4950Y-5770D01*
G01X-4917Y-5779D01*
G01X-4893Y-5782D01*
G01X-4844Y-5777D01*
G01X-4828Y-5756D01*
G01X-4845Y-5706D01*
G01X-4894Y-5615D01*
G01X-4941Y-5546D01*
G01X-4997Y-5482D01*
G01X-5057Y-5429D01*
G01X-5112Y-5395D01*
G01X-5160Y-5364D01*
G01X-5203Y-5319D01*
G01X-5235Y-5265D01*
G01X-5252Y-5210D01*
G01X-5262Y-5163D01*
G01X-5278Y-5127D01*
G01X-5299Y-5101D01*
G01X-5327Y-5086D01*
G37*

%LPD*%
G36*
G01X-5170Y-4816D02*
G01X-5192Y-4812D01*
G01X-5221Y-4829D01*
G01X-5258Y-4868D01*
G01X-5286Y-4908D01*
G01X-5303Y-4947D01*
G01X-5308Y-4979D01*
G01X-5299Y-5002D01*
G01X-5250Y-5012D01*
G01X-5196Y-4974D01*
G01X-5158Y-4910D01*
G01X-5155Y-4842D01*
G01X-5170Y-4816D01*
G37*

%LPD*%
G36*
G01X-4517Y5937D02*
G01X-4548Y5941D01*
G01X-4576Y5938D01*
G01X-4602Y5926D01*
G01X-4624Y5908D01*
G01X-4642Y5880D01*
G01X-4655Y5844D01*
G01X-4669Y5812D01*
G01X-4694Y5776D01*
G01X-4727Y5736D01*
G01X-4769Y5696D01*
G01X-4816Y5656D01*
G01X-4866Y5617D01*
G01X-4919Y5579D01*
G01X-4971Y5547D01*
G01X-5023Y5519D01*
G01X-5070Y5498D01*
G01X-5113Y5484D01*
G01X-5149Y5480D01*
G01X-5200Y5492D01*
G01X-5277Y5524D01*
G01X-5370Y5570D01*
G01X-5468Y5626D01*
G01X-5562Y5683D01*
G01X-5646Y5728D01*
G01X-5710Y5760D01*
G01X-5746Y5771D01*
G01X-5763Y5744D01*
G01X-5777Y5668D01*
G01X-5787Y5556D01*
G01X-5790Y5419D01*
G01X-5789Y5316D01*
G01X-5787Y5235D01*
G01X-5781Y5173D01*
G01X-5771Y5128D01*
G01X-5757Y5098D01*
G01X-5737Y5080D01*
G01X-5711Y5070D01*
G01X-5678Y5068D01*
G01X-5650Y5065D01*
G01X-5612Y5058D01*
G01X-5568Y5048D01*
G01X-5518Y5033D01*
G01X-5464Y5016D01*
G01X-5407Y4996D01*
G01X-5349Y4974D01*
G01X-5292Y4951D01*
G01X-5218Y4921D01*
G01X-5146Y4895D01*
G01X-5075Y4874D01*
G01X-5007Y4858D01*
G01X-4940Y4845D01*
G01X-4876Y4838D01*
G01X-4813Y4835D01*
G01X-4752Y4837D01*
G01X-4693Y4843D01*
G01X-4636Y4853D01*
G01X-4580Y4868D01*
G01X-4526Y4888D01*
G01X-4473Y4912D01*
G01X-4423Y4940D01*
G01X-4374Y4973D01*
G01X-4327Y5011D01*
G01X-4268Y5063D01*
G01X-4223Y5109D01*
G01X-4188Y5151D01*
G01X-4163Y5193D01*
G01X-4147Y5237D01*
G01X-4139Y5284D01*
G01X-4136Y5340D01*
G01X-4139Y5404D01*
G01X-4145Y5458D01*
G01X-4157Y5510D01*
G01X-4174Y5562D01*
G01X-4195Y5613D01*
G01X-4219Y5661D01*
G01X-4247Y5708D01*
G01X-4278Y5751D01*
G01X-4310Y5791D01*
G01X-4344Y5828D01*
G01X-4379Y5860D01*
G01X-4415Y5888D01*
G01X-4450Y5910D01*
G01X-4484Y5926D01*
G01X-4517Y5937D01*
G37*

%LPD*%
G36*
G01X11098Y9047D02*
G01X11003Y9056D01*
G01X10907Y9049D01*
G01X10841Y9022D01*
G01X10795Y8967D01*
G01X10755Y8875D01*
G01X10732Y8804D01*
G01X10711Y8733D01*
G01X10693Y8663D01*
G01X10678Y8595D01*
G01X10665Y8527D01*
G01X10656Y8460D01*
G01X10649Y8395D01*
G01X10645Y8330D01*
G01X10644Y8266D01*
G01X10646Y8203D01*
G01X10650Y8141D01*
G01X10658Y8081D01*
G01X10668Y8021D01*
G01X10681Y7962D01*
G01X10697Y7904D01*
G01X10716Y7847D01*
G01X10737Y7791D01*
G01X10761Y7736D01*
G01X10789Y7682D01*
G01X10819Y7629D01*
G01X10852Y7577D01*
G01X10887Y7526D01*
G01X10926Y7475D01*
G01X10968Y7426D01*
G01X11040Y7344D01*
G01X11099Y7283D01*
G01X11149Y7240D01*
G01X11196Y7213D01*
G01X11246Y7199D01*
G01X11305Y7196D01*
G01X11377Y7202D01*
G01X11468Y7214D01*
G01X11748Y7254D01*
G01X11987Y7737D01*
G01X12042Y7848D01*
G01X12088Y7942D01*
G01X12124Y8021D01*
G01X12153Y8089D01*
G01X12174Y8148D01*
G01X12187Y8201D01*
G01X12195Y8250D01*
G01X12196Y8300D01*
G01X12191Y8352D01*
G01X12182Y8408D01*
G01X12170Y8474D01*
G01X12152Y8550D01*
G01X12134Y8630D01*
G01X12115Y8698D01*
G01X12097Y8753D01*
G01X12078Y8797D01*
G01X12058Y8831D01*
G01X12037Y8853D01*
G01X12013Y8865D01*
G01X11985Y8868D01*
G01X11955Y8861D01*
G01X11920Y8846D01*
G01X11881Y8822D01*
G01X11837Y8790D01*
G01X11787Y8757D01*
G01X11736Y8732D01*
G01X11684Y8714D01*
G01X11633Y8703D01*
G01X11581Y8700D01*
G01X11532Y8705D01*
G01X11483Y8716D01*
G01X11437Y8735D01*
G01X11394Y8761D01*
G01X11354Y8794D01*
G01X11319Y8833D01*
G01X11288Y8879D01*
G01X11231Y8965D01*
G01X11170Y9019D01*
G01X11098Y9047D01*
G37*

%LPD*%
G36*
G01X13106Y9056D02*
G01X12708Y9056D01*
G01X12730Y8859D01*
G01X12734Y8814D01*
G01X12732Y8767D01*
G01X12727Y8717D01*
G01X12720Y8666D01*
G01X12709Y8615D01*
G01X12695Y8566D01*
G01X12679Y8521D01*
G01X12660Y8480D01*
G01X12634Y8425D01*
G01X12614Y8366D01*
G01X12596Y8303D01*
G01X12584Y8238D01*
G01X12575Y8169D01*
G01X12570Y8099D01*
G01X12570Y8026D01*
G01X12575Y7951D01*
G01X12583Y7875D01*
G01X12596Y7798D01*
G01X12613Y7720D01*
G01X12634Y7642D01*
G01X12654Y7581D01*
G01X12675Y7531D01*
G01X12698Y7488D01*
G01X12725Y7452D01*
G01X12756Y7423D01*
G01X12792Y7399D01*
G01X12834Y7379D01*
G01X12883Y7362D01*
G01X12972Y7336D01*
G01X13053Y7315D01*
G01X13127Y7297D01*
G01X13194Y7284D01*
G01X13254Y7275D01*
G01X13307Y7271D01*
G01X13354Y7270D01*
G01X13395Y7273D01*
G01X13431Y7281D01*
G01X13461Y7292D01*
G01X13486Y7308D01*
G01X13507Y7328D01*
G01X13529Y7348D01*
G01X13558Y7365D01*
G01X13596Y7380D01*
G01X13641Y7392D01*
G01X13693Y7401D01*
G01X13753Y7408D01*
G01X13820Y7412D01*
G01X13893Y7414D01*
G01X14209Y7414D01*
G01X14209Y8746D01*
G01X13938Y8684D01*
G01X13857Y8667D01*
G01X13792Y8655D01*
G01X13740Y8650D01*
G01X13699Y8651D01*
G01X13666Y8660D01*
G01X13637Y8676D01*
G01X13612Y8701D01*
G01X13586Y8733D01*
G01X13554Y8784D01*
G01X13529Y8842D01*
G01X13511Y8900D01*
G01X13505Y8950D01*
G01X13502Y8981D01*
G01X13491Y9005D01*
G01X13470Y9024D01*
G01X13435Y9037D01*
G01X13384Y9047D01*
G01X13314Y9052D01*
G01X13223Y9055D01*
G01X13106Y9056D01*
G37*

%LPD*%
G36*
G01X9547Y9055D02*
G01X9449Y9058D01*
G01X9364Y9055D01*
G01X9305Y9046D01*
G01X9282Y9030D01*
G01X9287Y9008D01*
G01X9299Y8967D01*
G01X9318Y8912D01*
G01X9341Y8850D01*
G01X9360Y8782D01*
G01X9367Y8717D01*
G01X9361Y8654D01*
G01X9344Y8597D01*
G01X9316Y8546D01*
G01X9276Y8502D01*
G01X9226Y8466D01*
G01X9167Y8441D01*
G01X9125Y8431D01*
G01X9083Y8428D01*
G01X9040Y8431D01*
G01X8999Y8443D01*
G01X8957Y8461D01*
G01X8915Y8486D01*
G01X8874Y8519D01*
G01X8832Y8559D01*
G01X8790Y8606D01*
G01X8748Y8661D01*
G01X8706Y8723D01*
G01X8662Y8793D01*
G01X8508Y9056D01*
G01X7641Y9056D01*
G01X7788Y8724D01*
G01X7825Y8642D01*
G01X7860Y8565D01*
G01X7894Y8495D01*
G01X7927Y8429D01*
G01X7959Y8368D01*
G01X7991Y8312D01*
G01X8022Y8260D01*
G01X8054Y8211D01*
G01X8087Y8166D01*
G01X8120Y8123D01*
G01X8155Y8083D01*
G01X8192Y8044D01*
G01X8230Y8008D01*
G01X8271Y7973D01*
G01X8314Y7938D01*
G01X8360Y7904D01*
G01X8409Y7870D01*
G01X8462Y7836D01*
G01X8519Y7801D01*
G01X8581Y7764D01*
G01X8662Y7716D01*
G01X8740Y7668D01*
G01X8811Y7623D01*
G01X8875Y7581D01*
G01X8930Y7544D01*
G01X8973Y7512D01*
G01X9003Y7488D01*
G01X9019Y7471D01*
G01X9050Y7449D01*
G01X9105Y7437D01*
G01X9178Y7435D01*
G01X9259Y7441D01*
G01X9345Y7454D01*
G01X9426Y7475D01*
G01X9496Y7501D01*
G01X9549Y7533D01*
G01X9569Y7554D01*
G01X9593Y7585D01*
G01X9622Y7626D01*
G01X9653Y7675D01*
G01X9686Y7731D01*
G01X9721Y7791D01*
G01X9755Y7855D01*
G01X9788Y7921D01*
G01X9819Y7986D01*
G01X9846Y8046D01*
G01X9868Y8100D01*
G01X9886Y8150D01*
G01X9900Y8199D01*
G01X9910Y8246D01*
G01X9917Y8294D01*
G01X9920Y8344D01*
G01X9921Y8398D01*
G01X9918Y8456D01*
G01X9914Y8521D01*
G01X9898Y8667D01*
G01X9889Y8736D01*
G01X9880Y8801D01*
G01X9870Y8860D01*
G01X9861Y8911D01*
G01X9852Y8954D01*
G01X9843Y8984D01*
G01X9836Y9002D01*
G01X9803Y9021D01*
G01X9736Y9036D01*
G01X9647Y9048D01*
G01X9547Y9055D01*
G37*

%LPD*%
G36*
G01X-1576Y9056D02*
G01X-1689Y9056D01*
G01X-1773Y9053D01*
G01X-1834Y9047D01*
G01X-1876Y9034D01*
G01X-1900Y9014D01*
G01X-1914Y8983D01*
G01X-1918Y8940D01*
G01X-1919Y8884D01*
G01X-1917Y8833D01*
G01X-1912Y8781D01*
G01X-1902Y8729D01*
G01X-1889Y8675D01*
G01X-1873Y8621D01*
G01X-1854Y8567D01*
G01X-1831Y8513D01*
G01X-1806Y8459D01*
G01X-1779Y8405D01*
G01X-1748Y8353D01*
G01X-1716Y8301D01*
G01X-1681Y8251D01*
G01X-1644Y8202D01*
G01X-1606Y8154D01*
G01X-1566Y8109D01*
G01X-1524Y8066D01*
G01X-1481Y8025D01*
G01X-1438Y7987D01*
G01X-1392Y7951D01*
G01X-1347Y7919D01*
G01X-1301Y7890D01*
G01X-1254Y7864D01*
G01X-1207Y7843D01*
G01X-1160Y7825D01*
G01X-1113Y7812D01*
G01X-1061Y7800D01*
G01X-1006Y7791D01*
G01X-947Y7784D01*
G01X-886Y7780D01*
G01X-824Y7777D01*
G01X-759Y7776D01*
G01X-694Y7778D01*
G01X-629Y7781D01*
G01X-563Y7786D01*
G01X-499Y7793D01*
G01X-436Y7802D01*
G01X-374Y7813D01*
G01X-316Y7825D01*
G01X-259Y7840D01*
G01X-207Y7855D01*
G01X-158Y7872D01*
G01X-114Y7891D01*
G01X-76Y7911D01*
G01X-42Y7932D01*
G01X2Y7968D01*
G01X46Y8009D01*
G01X90Y8053D01*
G01X133Y8103D01*
G01X175Y8154D01*
G01X216Y8210D01*
G01X255Y8267D01*
G01X292Y8326D01*
G01X326Y8387D01*
G01X357Y8448D01*
G01X386Y8509D01*
G01X410Y8570D01*
G01X432Y8629D01*
G01X450Y8688D01*
G01X462Y8744D01*
G01X471Y8798D01*
G01X500Y9056D01*
G01X-131Y9056D01*
G01X-223Y9054D01*
G01X-302Y9052D01*
G01X-370Y9048D01*
G01X-428Y9042D01*
G01X-477Y9035D01*
G01X-519Y9026D01*
G01X-554Y9014D01*
G01X-584Y8999D01*
G01X-611Y8983D01*
G01X-635Y8962D01*
G01X-658Y8939D01*
G01X-712Y8890D01*
G01X-770Y8854D01*
G01X-831Y8833D01*
G01X-893Y8826D01*
G01X-955Y8833D01*
G01X-1016Y8854D01*
G01X-1074Y8890D01*
G01X-1127Y8939D01*
G01X-1160Y8970D01*
G01X-1195Y8996D01*
G01X-1235Y9016D01*
G01X-1282Y9032D01*
G01X-1338Y9043D01*
G01X-1405Y9051D01*
G01X-1483Y9055D01*
G01X-1576Y9056D01*
G37*

%LPD*%
G36*
G01X6819Y9056D02*
G01X5785Y9056D01*
G01X5692Y9055D01*
G01X5602Y9054D01*
G01X5516Y9052D01*
G01X5434Y9050D01*
G01X5357Y9048D01*
G01X5284Y9045D01*
G01X5218Y9042D01*
G01X5157Y9038D01*
G01X5103Y9035D01*
G01X5056Y9031D01*
G01X5016Y9027D01*
G01X4984Y9022D01*
G01X4961Y9018D01*
G01X4947Y9013D01*
G01X4942Y9008D01*
G01X4946Y8983D01*
G01X4958Y8955D01*
G01X4978Y8925D01*
G01X5004Y8893D01*
G01X5037Y8860D01*
G01X5075Y8825D01*
G01X5119Y8789D01*
G01X5167Y8753D01*
G01X5220Y8717D01*
G01X5275Y8680D01*
G01X5334Y8644D01*
G01X5395Y8609D01*
G01X5457Y8575D01*
G01X5521Y8542D01*
G01X5586Y8510D01*
G01X5650Y8481D01*
G01X5715Y8453D01*
G01X5778Y8428D01*
G01X5840Y8407D01*
G01X5899Y8388D01*
G01X5956Y8373D01*
G01X6010Y8362D01*
G01X6059Y8355D01*
G01X6104Y8353D01*
G01X6171Y8356D01*
G01X6237Y8364D01*
G01X6302Y8379D01*
G01X6365Y8399D01*
G01X6427Y8423D01*
G01X6486Y8452D01*
G01X6542Y8485D01*
G01X6594Y8521D01*
G01X6643Y8560D01*
G01X6686Y8603D01*
G01X6724Y8647D01*
G01X6757Y8693D01*
G01X6783Y8741D01*
G01X6803Y8790D01*
G01X6815Y8840D01*
G01X6819Y8890D01*
G01X6819Y9056D01*
G37*

%LPD*%
G36*
G01X3910Y9055D02*
G01X3828Y9056D01*
G01X3741Y9055D01*
G01X3663Y9052D01*
G01X3593Y9046D01*
G01X3533Y9039D01*
G01X3484Y9030D01*
G01X3448Y9020D01*
G01X3425Y9009D01*
G01X3417Y8996D01*
G01X3433Y8962D01*
G01X3474Y8918D01*
G01X3536Y8870D01*
G01X3609Y8821D01*
G01X3690Y8776D01*
G01X3769Y8739D01*
G01X3841Y8714D01*
G01X3899Y8704D01*
G01X3942Y8714D01*
G01X3994Y8739D01*
G01X4050Y8777D01*
G01X4106Y8822D01*
G01X4157Y8872D01*
G01X4199Y8923D01*
G01X4228Y8969D01*
G01X4238Y9008D01*
G01X4230Y9018D01*
G01X4206Y9027D01*
G01X4168Y9035D01*
G01X4117Y9042D01*
G01X4057Y9048D01*
G01X3987Y9052D01*
G01X3910Y9055D01*
G37*

%LPD*%
G36*
G01X-3478Y9054D02*
G01X-3598Y9054D01*
G01X-3687Y9053D01*
G01X-3762Y9050D01*
G01X-3824Y9046D01*
G01X-3872Y9039D01*
G01X-3905Y9032D01*
G01X-3923Y9024D01*
G01X-3926Y9014D01*
G01X-3913Y9002D01*
G01X-3860Y8979D01*
G01X-3781Y8955D01*
G01X-3686Y8932D01*
G01X-3586Y8912D01*
G01X-3469Y8898D01*
G01X-3382Y8901D01*
G01X-3319Y8923D01*
G01X-3271Y8964D01*
G01X-3251Y8992D01*
G01X-3243Y9013D01*
G01X-3250Y9029D01*
G01X-3275Y9040D01*
G01X-3319Y9048D01*
G01X-3386Y9052D01*
G01X-3478Y9054D01*
G37*

%LPD*%

%LPD*%
G36*
G01X9194Y2089D02*
G01X9152Y2102D01*
G01X9063Y2006D01*
G01X9122Y1989D01*
G01X9184Y1974D01*
G01X9250Y1959D01*
G01X9319Y1946D01*
G01X9391Y1933D01*
G01X9465Y1921D01*
G01X9541Y1910D01*
G01X9620Y1899D01*
G01X9620Y1602D01*
G01X8985Y1602D01*
G01X8985Y1487D01*
G01X9620Y1487D01*
G01X9620Y1185D01*
G01X8886Y1185D01*
G01X8886Y1071D01*
G01X9620Y1071D01*
G01X9620Y657D01*
G01X9625Y600D01*
G01X9643Y559D01*
G01X9671Y531D01*
G01X9711Y512D01*
G01X9768Y500D01*
G01X9846Y494D01*
G01X9948Y492D01*
G01X10077Y492D01*
G01X10085Y520D01*
G01X10098Y551D01*
G01X10112Y581D01*
G01X10128Y609D01*
G01X10017Y606D01*
G01X9920Y605D01*
G01X9844Y606D01*
G01X9797Y606D01*
G01X9772Y610D01*
G01X9754Y619D01*
G01X9745Y634D01*
G01X9742Y657D01*
G01X9742Y1071D01*
G01X10478Y1071D01*
G01X10478Y1185D01*
G01X9742Y1185D01*
G01X9742Y1487D01*
G01X10361Y1487D01*
G01X10361Y1602D01*
G01X9742Y1602D01*
G01X9742Y1886D01*
G01X9816Y1879D01*
G01X9891Y1872D01*
G01X9965Y1866D01*
G01X10040Y1861D01*
G01X10186Y1851D01*
G01X10258Y1847D01*
G01X10328Y1843D01*
G01X10333Y1870D01*
G01X10341Y1898D01*
G01X10350Y1926D01*
G01X10359Y1950D01*
G01X10295Y1953D01*
G01X10230Y1957D01*
G01X10098Y1965D01*
G01X10031Y1970D01*
G01X9963Y1975D01*
G01X9829Y1987D01*
G01X9697Y2001D01*
G01X9633Y2009D01*
G01X9570Y2017D01*
G01X9509Y2026D01*
G01X9450Y2035D01*
G01X9393Y2045D01*
G01X9339Y2055D01*
G01X9287Y2066D01*
G01X9239Y2077D01*
G01X9194Y2089D01*
G37*

%LPD*%

%LPD*%
G36*
G01X9947Y3212D02*
G01X8944Y3212D01*
G01X8944Y3100D01*
G01X9424Y3100D01*
G01X9424Y2549D01*
G01X8860Y2549D01*
G01X8860Y2437D01*
G01X10130Y2437D01*
G01X10130Y2549D01*
G01X9543Y2549D01*
G01X9543Y3100D01*
G01X9947Y3100D01*
G01X9947Y3212D01*
G37*

%LPD*%
G36*
G01X9887Y3921D02*
G01X9873Y4000D01*
G01X9757Y3984D01*
G01X9769Y3909D01*
G01X9783Y3833D01*
G01X9798Y3756D01*
G01X9815Y3680D01*
G01X8896Y3680D01*
G01X8896Y3563D01*
G01X9846Y3563D01*
G01X9861Y3502D01*
G01X9878Y3441D01*
G01X9895Y3381D01*
G01X9914Y3321D01*
G01X9934Y3262D01*
G01X9955Y3204D01*
G01X10001Y3088D01*
G01X10026Y3032D01*
G01X10053Y2976D01*
G01X10081Y2922D01*
G01X10110Y2869D01*
G01X10141Y2817D01*
G01X10173Y2766D01*
G01X10207Y2717D01*
G01X10242Y2669D01*
G01X10279Y2622D01*
G01X10318Y2578D01*
G01X10359Y2534D01*
G01X10402Y2493D01*
G01X10418Y2515D01*
G01X10439Y2540D01*
G01X10461Y2564D01*
G01X10481Y2585D01*
G01X10432Y2631D01*
G01X10386Y2681D01*
G01X10342Y2733D01*
G01X10300Y2787D01*
G01X10262Y2843D01*
G01X10224Y2902D01*
G01X10190Y2962D01*
G01X10157Y3024D01*
G01X10127Y3088D01*
G01X10098Y3153D01*
G01X10072Y3219D01*
G01X10046Y3286D01*
G01X10023Y3354D01*
G01X10001Y3423D01*
G01X9981Y3493D01*
G01X9962Y3563D01*
G01X10414Y3563D01*
G01X10414Y3680D01*
G01X9934Y3680D01*
G01X9902Y3842D01*
G01X9887Y3921D01*
G37*

%LPD*%
G54D20*
G01X6573Y2899D02*
G01X6755Y2422D01*
G01X6573Y2899D02*
G01X6392Y2422D01*
G01X6687Y2581D02*
G01X6460Y2581D01*
G01X5901Y2786D02*
G01X5923Y2831D01*
G01X5969Y2877D01*
G01X6014Y2899D01*
G01X6105Y2899D01*
G01X6151Y2877D01*
G01X6196Y2831D01*
G01X6219Y2786D01*
G01X6242Y2718D01*
G01X6242Y2604D01*
G01X6219Y2536D01*
G01X6196Y2490D01*
G01X6151Y2445D01*
G01X6105Y2422D01*
G01X6014Y2422D01*
G01X5969Y2445D01*
G01X5923Y2490D01*
G01X5901Y2536D01*
G01X5901Y2604D01*
G01X6014Y2604D02*
G01X5901Y2604D01*
G01X5432Y2831D02*
G01X5478Y2877D01*
G01X5546Y2899D01*
G01X5637Y2899D01*
G01X5705Y2877D01*
G01X5751Y2831D01*
G01X5751Y2786D01*
G01X5728Y2740D01*
G01X5705Y2718D01*
G01X5660Y2695D01*
G01X5523Y2650D01*
G01X5478Y2627D01*
G01X5455Y2604D01*
G01X5432Y2559D01*
G01X5432Y2490D01*
G01X5478Y2445D01*
G01X5546Y2422D01*
G01X5637Y2422D01*
G01X5705Y2445D01*
G01X5751Y2490D01*
G01X5282Y2263D02*
G01X4873Y2263D01*
G01X4723Y2740D02*
G01X4723Y2513D01*
G01X4701Y2445D01*
G01X4655Y2422D01*
G01X4587Y2422D01*
G01X4542Y2445D01*
G01X4473Y2513D01*
G01X4473Y2740D02*
G01X4473Y2422D01*
G01X4073Y2672D02*
G01X4096Y2718D01*
G01X4164Y2740D01*
G01X4232Y2740D01*
G01X4301Y2718D01*
G01X4323Y2672D01*
G01X4301Y2627D01*
G01X4255Y2604D01*
G01X4142Y2581D01*
G01X4096Y2559D01*
G01X4073Y2513D01*
G01X4073Y2490D01*
G01X4096Y2445D01*
G01X4164Y2422D01*
G01X4232Y2422D01*
G01X4301Y2445D01*
G01X4323Y2490D01*
G01X3923Y2899D02*
G01X3923Y2422D01*
G01X3923Y2672D02*
G01X3878Y2718D01*
G01X3832Y2740D01*
G01X3764Y2740D01*
G01X3719Y2718D01*
G01X3673Y2672D01*
G01X3651Y2604D01*
G01X3651Y2559D01*
G01X3673Y2490D01*
G01X3719Y2445D01*
G01X3764Y2422D01*
G01X3832Y2422D01*
G01X3878Y2445D01*
G01X3923Y2490D01*
G01X3160Y2786D02*
G01X3182Y2831D01*
G01X3228Y2877D01*
G01X3273Y2899D01*
G01X3364Y2899D01*
G01X3410Y2877D01*
G01X3455Y2831D01*
G01X3478Y2786D01*
G01X3501Y2718D01*
G01X3501Y2604D01*
G01X3478Y2536D01*
G01X3455Y2490D01*
G01X3410Y2445D01*
G01X3364Y2422D01*
G01X3273Y2422D01*
G01X3228Y2445D01*
G01X3182Y2490D01*
G01X3160Y2536D01*
M00*
M02*
